<svg width="239" height="53" viewBox="0 0 239 53" fill="none" xmlns="http://www.w3.org/2000/svg">
<g clip-path="url(#clip0)">
<path d="M74.6051 8.29294C73.7267 5.05059 71.1541 2.49412 67.8913 1.62118C61.9304 0 38.0869 0 38.0869 0C38.0869 0 14.2434 0 8.28249 1.55882C5.08244 2.43176 2.4471 5.05059 1.56865 8.29294C0 14.2165 0 26.5 0 26.5C0 26.5 0 38.8459 1.56865 44.7071C2.4471 47.9494 5.01969 50.5059 8.28249 51.3788C14.3061 53 38.0869 53 38.0869 53C38.0869 53 61.9304 53 67.8913 51.4412C71.1541 50.5682 73.7267 48.0118 74.6051 44.7694C76.1738 38.8459 76.1738 26.5624 76.1738 26.5624C76.1738 26.5624 76.2365 14.2165 74.6051 8.29294Z" fill="#FF0000"/>
<path d="M30.4946 37.8482L50.3224 26.5L30.4946 15.1518V37.8482Z" fill="white"/>
<path d="M110.621 48.2612C109.116 47.2635 108.049 45.7047 107.421 43.5224C106.794 41.4024 106.48 38.5341 106.48 35.0424V30.2412C106.48 26.6871 106.857 23.8188 107.547 21.6365C108.3 19.4541 109.429 17.8953 110.935 16.8977C112.504 15.9 114.512 15.4012 117.022 15.4012C119.469 15.4012 121.477 15.9 122.982 16.8977C124.488 17.8953 125.555 19.5165 126.245 21.6365C126.935 23.7565 127.312 26.6247 127.312 30.2412V35.0424C127.312 38.5965 126.998 41.4024 126.308 43.5847C125.618 45.7047 124.551 47.3259 123.045 48.3235C121.539 49.3212 119.469 49.82 116.896 49.82C114.261 49.7577 112.127 49.2588 110.621 48.2612ZM119.092 43.0235C119.531 41.9635 119.72 40.1553 119.72 37.7235V27.3729C119.72 25.0035 119.531 23.2577 119.092 22.1353C118.653 21.0129 117.963 20.5141 116.896 20.5141C115.892 20.5141 115.139 21.0753 114.763 22.1353C114.323 23.2577 114.135 25.0035 114.135 27.3729V37.7235C114.135 40.1553 114.323 41.9635 114.763 43.0235C115.139 44.0835 115.892 44.6447 116.959 44.6447C117.963 44.6447 118.653 44.1459 119.092 43.0235ZM226.451 35.1047V36.7882C226.451 38.9082 226.514 40.5294 226.639 41.5894C226.765 42.6494 227.016 43.46 227.455 43.8965C227.831 44.3953 228.459 44.6447 229.337 44.6447C230.467 44.6447 231.22 44.2082 231.659 43.3353C232.098 42.4624 232.286 41.0282 232.349 38.9706L238.812 39.3447C238.875 39.6565 238.875 40.0306 238.875 40.5294C238.875 43.5847 238.059 45.8918 236.365 47.3882C234.671 48.8847 232.286 49.6329 229.212 49.6329C225.51 49.6329 222.937 48.4482 221.431 46.1412C219.925 43.8341 219.172 40.28 219.172 35.4165V29.6177C219.172 24.6294 219.925 21.0129 221.494 18.7059C223.063 16.3988 225.698 15.2765 229.4 15.2765C231.972 15.2765 233.98 15.7753 235.361 16.7106C236.741 17.6459 237.682 19.1424 238.247 21.0753C238.812 23.0706 239.063 25.8141 239.063 29.3059V34.98H226.451V35.1047ZM227.392 21.1377C227.016 21.6365 226.765 22.3847 226.639 23.4447C226.514 24.5047 226.451 26.1259 226.451 28.3082V30.6777H231.973V28.3082C231.973 26.1882 231.91 24.5671 231.784 23.4447C231.659 22.3224 231.345 21.5741 230.969 21.1377C230.592 20.7012 229.965 20.4518 229.212 20.4518C228.333 20.3894 227.768 20.6388 227.392 21.1377ZM92.2996 34.4812L83.7661 3.74118H91.2329L94.2447 17.6459C94.9977 21.0753 95.5624 24.0059 95.9389 26.4377H96.1271C96.3781 24.6918 96.9428 21.8235 97.8212 17.7082L100.959 3.74118H108.425L99.7664 34.4812V49.1965H92.3623V34.4812H92.2996ZM151.595 16.0247V49.2588H145.697L145.069 45.2059H144.881C143.312 48.2612 140.865 49.82 137.665 49.82C135.469 49.82 133.838 49.0718 132.771 47.6377C131.704 46.2035 131.202 43.9588 131.202 40.8412V16.0247H138.732V40.4047C138.732 41.9012 138.92 42.9612 139.234 43.5847C139.547 44.2082 140.112 44.52 140.865 44.52C141.493 44.52 142.12 44.3329 142.747 43.8965C143.375 43.5224 143.814 43.0235 144.065 42.4V16.0247H151.595ZM190.184 16.0247V49.2588H184.285L183.658 45.2059H183.47C181.901 48.2612 179.454 49.82 176.254 49.82C174.058 49.82 172.426 49.0718 171.36 47.6377C170.293 46.2035 169.791 43.9588 169.791 40.8412V16.0247H177.321V40.4047C177.321 41.9012 177.509 42.9612 177.823 43.5847C178.136 44.2082 178.701 44.52 179.454 44.52C180.081 44.52 180.709 44.3329 181.336 43.8965C181.964 43.5224 182.403 43.0235 182.654 42.4V16.0247H190.184Z" fill="white"/>
<path d="M172.05 9.78941H164.583V49.1965H157.242V9.78941H149.775V3.74118H172.05V9.78941ZM215.094 21.3247C214.655 19.2047 213.902 17.7082 212.898 16.7729C211.894 15.8376 210.451 15.3388 208.694 15.3388C207.313 15.3388 205.996 15.7129 204.803 16.5235C203.611 17.2718 202.67 18.3318 202.043 19.5788H201.98V2.05765H194.701V49.1965H200.913L201.666 46.0788H201.854C202.419 47.2012 203.298 48.0741 204.49 48.76C205.682 49.3835 206.937 49.7576 208.38 49.7576C210.953 49.7576 212.772 48.5729 213.964 46.2659C215.157 43.9588 215.784 40.28 215.784 35.3541V30.1165C215.721 26.3129 215.533 23.3824 215.094 21.3247ZM208.192 34.8553C208.192 37.2871 208.066 39.1576 207.878 40.5294C207.69 41.9012 207.313 42.8988 206.874 43.46C206.372 44.0212 205.745 44.3329 204.992 44.3329C204.364 44.3329 203.8 44.2082 203.298 43.8965C202.796 43.5847 202.356 43.1482 202.043 42.5871V23.7565C202.294 22.8835 202.733 22.1353 203.36 21.5118C203.988 20.9506 204.678 20.6388 205.368 20.6388C206.121 20.6388 206.749 20.9506 207.125 21.5118C207.564 22.1353 207.815 23.1329 208.004 24.5047C208.192 25.9388 208.255 27.9341 208.255 30.4906V34.8553H208.192Z" fill="white"/>
</g>
<defs>
<clipPath id="clip0">
<rect width="239" height="53" fill="white"/>
</clipPath>
</defs>
</svg>
