<svg xmlns="http://www.w3.org/2000/svg" width="136.057" height="136.057" viewBox="0 0 136.057 136.057"><defs><style>.a{fill:#2f80ed;}</style></defs><g transform="translate(-1241.679 -2462.363)"><path class="a" d="M41.277,17.905a12,12,0,0,1,20.763,0L92.869,71.079A12,12,0,0,1,82.487,89.1H20.828A12,12,0,0,1,10.447,71.079Z" transform="translate(1304.681 2462.363) rotate(45)"/><g transform="translate(1248.775 2459.809)"><path d="M58.71,90.511H57.529V88.5a8.4,8.4,0,0,0-6.615-8.2V66.767A1.772,1.772,0,0,0,49.3,65c-.139-.013-47.552-.017-47.747.006A1.77,1.77,0,0,0,0,66.74c0,.017-.008,34.038.006,34.2a1.77,1.77,0,0,0,1.442,1.589c.256.047-2.015.031,36.469.031v5.788a1.772,1.772,0,0,0,1.772,1.772H58.71a1.772,1.772,0,0,0,1.772-1.772V92.283A1.772,1.772,0,0,0,58.71,90.511ZM53.985,88.5v2.008H44.3V88.5a4.843,4.843,0,0,1,9.686,0Zm-13.84,2.008-7.652-6.733L47.37,70.687v9.619a8.4,8.4,0,0,0-6.615,8.2v2.008Zm4.3-21.972L25.513,85.2,6.486,68.539Zm-40.9,2.135,14.965,13.1L3.545,96.881ZM6.486,99.016,21.2,86.132l3.15,2.758a1.772,1.772,0,0,0,2.338,0l3.125-2.75,8.108,7.135v5.743Zm50.452,7.56H41.464V94.055H56.938Z" transform="translate(0)"/><path d="M402.779,345.013a1.772,1.772,0,0,0-1.772,1.772v.945a1.772,1.772,0,1,0,3.544,0v-.945A1.772,1.772,0,0,0,402.779,345.013Z" transform="translate(-353.637 -246.942)"/></g></g></svg>