<svg xmlns="http://www.w3.org/2000/svg" width="48.33" height="33.331" viewBox="0 0 48.33 33.331"><defs><style>.a{fill:#306fc5;}.b{fill:#202121;opacity:0.15;}.c{fill:#fff;}</style></defs><g transform="translate(0 -79.451)"><path class="a" d="M48.33,109.925a2.857,2.857,0,0,1-2.857,2.857H2.857A2.857,2.857,0,0,1,0,109.925V82.308a2.857,2.857,0,0,1,2.857-2.857H45.474a2.857,2.857,0,0,1,2.857,2.857v27.617Z"/><path class="b" d="M2.031,109.925V82.308a2.857,2.857,0,0,1,2.857-2.857H2.857A2.857,2.857,0,0,0,0,82.308v27.617a2.857,2.857,0,0,0,2.857,2.857H4.888A2.857,2.857,0,0,1,2.031,109.925Z"/><g transform="translate(3.469 89.244)"><path class="c" d="M74.59,203.116h1.444l-.722-1.838Z" transform="translate(-71.018 -199.571)"/><path class="c" d="M155.946,286.107v.853h2.429v.919h-2.429v.985h2.691l1.247-1.379-1.181-1.379Z" transform="translate(-144.694 -276.393)"/><path class="c" d="M349.341,201.278l-.788,1.838h1.51Z" transform="translate(-319.12 -199.571)"/><path class="c" d="M213.975,284.982v-3.741l-1.707,1.838Z" transform="translate(-195.7 -271.986)"/><path class="c" d="M244.268,286.7a.663.663,0,0,0-.723-.591h-1.378v1.181h1.444C244,287.289,244.268,287.092,244.268,286.7Z" transform="translate(-222.776 -276.393)"/><path class="c" d="M295.459,287.79a.512.512,0,0,0,.2-.459.365.365,0,0,0-.2-.46,1.276,1.276,0,0,0-.525-.066h-1.313v1.05h1.313A1.277,1.277,0,0,0,295.459,287.79Z" transform="translate(-269.373 -277.025)"/><path class="c" d="M72.285,183.2v.788l-.394-.788H68.807v.788l-.394-.788h-4.2a4,4,0,0,0-1.838.394V183.2H59.421v.394a1.893,1.893,0,0,0-1.247-.394H47.606l-.722,1.641-.722-1.641H42.814v.788l-.328-.788H39.6l-1.313,3.085-1.509,3.347-.028.066h3.417l.024-.066.394-.984h.853l.394,1.05h3.807v-.788l.328.788h1.9l.328-.788v.788H57.32v-1.707h.132c.131,0,.131,0,.131.2v1.444h4.726v-.394a3.927,3.927,0,0,0,1.772.394H66.05l.394-1.05h.919l.394,1.05h3.807v-.984l.591.984h3.085V183.2H72.285Zm-22.25,5.514h-1.05V185.1l-.066.151v0l-1.527,3.461h-.967l-1.575-3.61v3.61H42.618l-.459-.985H39.926l-.46.985H38.313l1.942-4.595H41.9l1.838,4.4v-4.4h1.739l.031.066h0l.828,1.8.595,1.35.021-.068,1.313-3.15h1.772v4.595Zm4.529-3.61H52v.853H54.5v.919H52v.919h2.56v.984H50.888v-4.66h3.676v.984Zm4.682,1.693.006,0a.751.751,0,0,1,.064.078,1.262,1.262,0,0,1,.232.769v.019s0,.007,0,.01,0,0,0,.006c0,.036,0,.073,0,.113v.919h-.984v-.525a1.562,1.562,0,0,0-.2-.919.6.6,0,0,0-.193-.132,1.311,1.311,0,0,0-.594-.065H56.4v1.641H55.285v-4.595H57.78a2.517,2.517,0,0,1,1.313.2,1.109,1.109,0,0,1,.523,1.021,1.3,1.3,0,0,1-.786,1.211A.879.879,0,0,1,59.245,186.794Zm2.21,1.918H60.339v-4.595h1.116Zm12.8,0H72.81l-2.1-3.479v2.888l-.007-.007v.6H69.594v0H68.478l-.394-.985h-2.3l-.394,1.05H64.146a1.973,1.973,0,0,1-2.166-2.3,2.691,2.691,0,0,1,.591-1.838,2.067,2.067,0,0,1,1.641-.525h1.05v.984h-1.05a1.21,1.21,0,0,0-.853.263,1.542,1.542,0,0,0-.328,1.05,1.429,1.429,0,0,0,.328,1.116,1.047,1.047,0,0,0,.788.263h.459l1.509-3.61h1.641l1.838,4.4v-4.4h1.641l1.9,3.216v-3.216h1.116v4.529h0Z" transform="translate(-36.748 -183.198)"/><path class="c" d="M246.853,204.293a.352.352,0,0,0,.051-.07.709.709,0,0,0,.091-.495.365.365,0,0,0-.01-.06c0-.005,0-.01,0-.015h0a.368.368,0,0,0-.2-.223,1.286,1.286,0,0,0-.525-.065h-1.313v1.05h1.313a1.279,1.279,0,0,0,.525-.066.248.248,0,0,0,.054-.039h0Z" transform="translate(-225.292 -201.46)"/><path class="c" d="M165.923,268.95a2.515,2.515,0,0,0-.328-1.247v-2.954h0v-.2h-3.161a1.868,1.868,0,0,0-.906.394v-.394h-3.019a2.085,2.085,0,0,0-1.313.394v-.394h-5.382v.394a2.539,2.539,0,0,0-1.444-.394h-3.544v.394a2.493,2.493,0,0,0-1.51-.394h-3.938l-.919.985-.853-.985H133.7v6.63h5.776l.949-.949.823.949h3.676v-1.51h.328a3.987,3.987,0,0,0,1.509-.2v1.772h2.954v-1.707h.131c.2,0,.2,0,.2.2v1.51h8.926a2.573,2.573,0,0,0,1.51-.394v.394H163.3a2.948,2.948,0,0,0,1.575-.328,2.2,2.2,0,0,0,1.042-1.77c0-.023.006-.045.008-.068l0,0C165.921,269.035,165.923,268.993,165.923,268.95Zm-20.675-.394h-1.313v1.706h-2.157l-1.256-1.444,0,0-.061-.071-1.444,1.51h-4.2v-4.595h4.266l1.166,1.277.245.267.033-.034,1.379-1.509h3.479a1.7,1.7,0,0,1,1.718.854,1.856,1.856,0,0,1,.054.459C147.15,268.294,146.231,268.556,145.247,268.556Zm6.564-.066a1.49,1.49,0,0,1,.2.853v.919h-1.116v-.591a1.465,1.465,0,0,0-.2-.919c-.131-.2-.394-.2-.787-.2h-1.181v1.706H147.61V265.6H150.1a2.648,2.648,0,0,1,1.313.2,1.162,1.162,0,0,1,.59,1.05,1.307,1.307,0,0,1-.788,1.247A1.119,1.119,0,0,1,151.811,268.491Zm4.529-1.9h-2.56v.853h2.494v.919H153.78v.919h2.56v.984h-3.676V265.6h3.676Zm2.757,3.676H157v-.984h2.1a.555.555,0,0,0,.46-.131.477.477,0,0,0,0-.656.557.557,0,0,0-.394-.131c-1.05-.066-2.3,0-2.3-1.444,0-.656.394-1.379,1.575-1.379h2.166v1.116h-2.035a.974.974,0,0,0-.46.066c-.131.066-.131.2-.131.328,0,.2.131.263.262.328a.832.832,0,0,0,.394.066h.591a1.671,1.671,0,0,1,1.247.394,1.359,1.359,0,0,1,.328.985C160.8,269.8,160.212,270.263,159.1,270.263Zm5.645-.46a1.912,1.912,0,0,1-1.379.46h-2.1v-.984h2.1a.554.554,0,0,0,.46-.131.476.476,0,0,0,0-.656.555.555,0,0,0-.394-.131c-1.05-.066-2.3,0-2.3-1.444a1.342,1.342,0,0,1,1.237-1.355,2.448,2.448,0,0,1,.338-.024h2.166v1.116h-2.035a.971.971,0,0,0-.459.066.5.5,0,0,0-.132.328c0,.2.066.263.263.328a.83.83,0,0,0,.394.066h.591a2.05,2.05,0,0,1,.7.105,1.413,1.413,0,0,1,.918,1.038,1.476,1.476,0,0,1,.02.236A1.335,1.335,0,0,1,164.741,269.8Z" transform="translate(-124.544 -256.873)"/></g></g></svg>