<svg xmlns="http://www.w3.org/2000/svg" width="136.057" height="136.057" viewBox="0 0 136.057 136.057"><defs><style>.a{fill:#2f80ed;}</style></defs><g transform="translate(-1591.679 -2462.363)"><path class="a" d="M41.277,17.905a12,12,0,0,1,20.763,0L92.869,71.079A12,12,0,0,1,82.487,89.1H20.828A12,12,0,0,1,10.447,71.079Z" transform="translate(1654.681 2462.363) rotate(45)"/><g transform="translate(1568.04 2511.85)"><g transform="translate(36.002 0)"><path d="M80.512,260.687H68.57v-5.428A3.261,3.261,0,0,0,65.314,252H54.457a3.261,3.261,0,0,0-3.257,3.257v1.086H39.259A3.261,3.261,0,0,0,36,259.6v19.541a1.086,1.086,0,0,0,1.086,1.086h45.6a1.086,1.086,0,0,0,1.086-1.086v-15.2a3.261,3.261,0,0,0-3.257-3.257ZM66.4,278.057H53.372v-2.714a1.086,1.086,0,1,0-2.171,0v2.714H38.173V259.6a1.087,1.087,0,0,1,1.086-1.086H51.2v7.056a1.086,1.086,0,1,0,2.171,0V255.259a1.087,1.087,0,0,1,1.086-1.086H65.314a1.087,1.087,0,0,1,1.086,1.086Zm15.2,0H68.57v-15.2H80.512a1.087,1.087,0,0,1,1.086,1.086Z" transform="translate(-36.002 -224.644)"/><path d="M371.974,375.26a3.245,3.245,0,0,0-5.713-2.118,1.086,1.086,0,1,0,1.651,1.41,1.074,1.074,0,0,1,1.891.708,1.083,1.083,0,0,1-.325.777,1.086,1.086,0,0,0,.151,1.671,1.631,1.631,0,0,1-.9,2.98,1.592,1.592,0,0,1-.979-.333,1.086,1.086,0,1,0-1.324,1.721,3.745,3.745,0,0,0,2.3.783,3.8,3.8,0,0,0,2.935-6.2A3.253,3.253,0,0,0,371.974,375.26Z" transform="translate(-330.176 -331.618)"/><path d="M91.431,340.672H88.815c.239-.22.539-.455.888-.725,1.242-.958,2.787-2.15,2.813-4.4a3.479,3.479,0,0,0-2.565-3.464,3.159,3.159,0,0,0-3.633,1.7,1.086,1.086,0,0,0,1.918,1.017.992.992,0,0,1,1.178-.609,1.3,1.3,0,0,1,.931,1.335c-.013,1.114-.752,1.764-1.968,2.7-1.113.859-2.374,1.832-2.374,3.53a1.086,1.086,0,0,0,1.086,1.086h4.342a1.086,1.086,0,0,0,0-2.171Z" transform="translate(-80.575 -295.944)"/><path d="M238.406,300.688h-.118v-7.6a1.086,1.086,0,0,0-1.628-.94l-1.2.695a1.086,1.086,0,0,0,.661,2.02v5.825H236a1.086,1.086,0,1,0,0,2.171h2.407a1.086,1.086,0,1,0,0-2.171Z" transform="translate(-213.319 -260.303)"/><path d="M157.985,33.792l-.544,4.149a2.787,2.787,0,0,0,.235,1.755,2.813,2.813,0,0,0,3.76,1.3l3.816-1.857L169.173,41a2.813,2.813,0,0,0,3.994-2.926l-.588-4.208,2.9-3.056a2.813,2.813,0,0,0-1.461-4.8l-4.182-.741-2.073-3.814h0a2.808,2.808,0,0,0-4.943.022l-2,3.748-4.2.781a2.81,2.81,0,0,0-1.584,4.724Zm-1.368-5.468a.633.633,0,0,1,.346-.171l.037-.006,4.731-.879a1.086,1.086,0,0,0,.76-.557l2.242-4.209a.637.637,0,0,1,1.12-.005l2.323,4.272a1.085,1.085,0,0,0,.764.551l4.7.832a.642.642,0,0,1,.328,1.1l-.047.047-3.277,3.456a1.085,1.085,0,0,0-.287.9l.66,4.724a.643.643,0,0,1-.909.667l-4.394-2.093a1.085,1.085,0,0,0-.942,0l-4.286,2.086a.642.642,0,0,1-.858-.3.635.635,0,0,1-.052-.409q.008-.039.013-.078l.617-4.7a1.086,1.086,0,0,0-.295-.895L156.6,29.227a.638.638,0,0,1,.017-.9Z" transform="translate(-141.413 -17.822)"/><path d="M95.043,2.026,99.329,4.5a1.086,1.086,0,0,0,1.086-1.88L96.129.146a1.086,1.086,0,1,0-1.086,1.88Z" transform="translate(-88.15 0)"/><path d="M61.741,114.867a1.113,1.113,0,0,0,.158-.011l4.9-.712a1.086,1.086,0,1,0-.313-2.149l-4.9.712a1.086,1.086,0,0,0,.155,2.16Z" transform="translate(-57.98 -99.826)"/><path d="M108.012,196.786l-3.5,3.5a1.086,1.086,0,1,0,1.535,1.535l3.5-3.5a1.086,1.086,0,1,0-1.535-1.535Z" transform="translate(-96.792 -175.139)"/><path d="M359.114,4.646a1.081,1.081,0,0,0,.542-.146l4.285-2.474a1.086,1.086,0,1,0-1.086-1.88L358.57,2.62a1.086,1.086,0,0,0,.544,2.026Z" transform="translate(-323.068 0)"/><path d="M386.251,112.912a1.086,1.086,0,0,0,.918,1.231l4.9.713a1.1,1.1,0,0,0,.158.011,1.086,1.086,0,0,0,.155-2.16l-4.9-.712A1.086,1.086,0,0,0,386.251,112.912Z" transform="translate(-348.217 -99.825)"/><path d="M355.9,196.786a1.086,1.086,0,0,0,0,1.535l3.5,3.5a1.086,1.086,0,0,0,1.535-1.535l-3.5-3.5A1.086,1.086,0,0,0,355.9,196.786Z" transform="translate(-320.885 -175.139)"/><path d="M177.088,412a1.086,1.086,0,1,0,1.086,1.086h0A1.085,1.085,0,0,0,177.088,412Z" transform="translate(-160.803 -367.273)"/></g></g></g></svg>