<svg xmlns="http://www.w3.org/2000/svg" width="48.92" height="33.737" viewBox="0 0 48.92 33.737"><defs><style>.a{fill:#fff;}.b{fill:#f79f1a;}.c{fill:#059bbf;}.d{fill:#202121;opacity:0.15;}</style></defs><g transform="translate(0 -79.451)"><path class="a" d="M48.92,110.3a2.892,2.892,0,0,1-2.892,2.892H2.892A2.892,2.892,0,0,1,0,110.3V82.343a2.892,2.892,0,0,1,2.892-2.892H46.028a2.892,2.892,0,0,1,2.892,2.892V110.3Z" transform="translate(0 0)"/><path class="b" d="M38.446,196.258l-1.149-5.51a1.37,1.37,0,0,0-1.482-1.016H30.549l-.047.252C34.6,190.978,37.318,193.377,38.446,196.258Z" transform="translate(-27.588 -99.744)"/><g transform="translate(0 79.451)"><path class="c" d="M189.027,190.892h-3.4L183.5,203.363h3.4Z" transform="translate(-165.966 -180.244)"/><path class="c" d="M72.477,203.431l5.352-12.45h-3.6L70.9,199.487l-.355-1.284a13.306,13.306,0,0,0-4.707-5.169l3.043,10.4Z" transform="translate(-59.546 -180.325)"/><path class="c" d="M251.061,197.267c.013-1.416-.9-2.5-2.856-3.388-1.191-.576-1.916-.96-1.908-1.545,0-.517.615-1.071,1.946-1.071a6.276,6.276,0,0,1,2.544.478l.307.141.461-2.7a8.813,8.813,0,0,0-3.047-.521c-3.359,0-5.724,1.69-5.745,4.115-.021,1.793,1.69,2.792,2.979,3.389,1.323.609,1.767,1,1.758,1.545-.008.835-1.054,1.216-2.032,1.216a7.132,7.132,0,0,1-3.2-.654l-.435-.2-.478,2.795a10.725,10.725,0,0,0,3.785.662C248.714,201.528,251.036,199.859,251.061,197.267Z" transform="translate(-218.295 -178.225)"/><path class="c" d="M344.67,201.616l4.354,0c.1.434.414,1.869.414,1.869h3.154l-2.753-12.463h-2.625a1.691,1.691,0,0,0-1.78,1.033l-5.049,11.43h3.573S344.538,201.954,344.67,201.616Zm2.33-6.04c-.017.034.282-.721.453-1.191l.23,1.075s.649,2.979.785,3.6h-2.821C345.929,198.347,347,195.577,347,195.577Z" transform="translate(-307.862 -180.366)"/><path class="c" d="M46.028,79.451H2.892A2.892,2.892,0,0,0,0,82.343v3H48.92v-3A2.892,2.892,0,0,0,46.028,79.451Z" transform="translate(0 -79.451)"/></g><path class="b" d="M46.028,376.764H2.892A2.892,2.892,0,0,1,0,373.872v-3H48.92v3A2.892,2.892,0,0,1,46.028,376.764Z" transform="translate(0 -263.576)"/><path class="d" d="M2.056,110.3V82.343a2.892,2.892,0,0,1,2.892-2.892H2.892A2.892,2.892,0,0,0,0,82.343V110.3a2.892,2.892,0,0,0,2.892,2.892H4.948A2.892,2.892,0,0,1,2.056,110.3Z" transform="translate(0 0)"/></g></svg>