<svg xmlns="http://www.w3.org/2000/svg" width="136.057" height="136.057" viewBox="0 0 136.057 136.057"><defs><style>.a{fill:#2f80ed;}</style></defs><g transform="translate(-542.678 -2462.363)"><path class="a" d="M41.277,17.905a12,12,0,0,1,20.763,0L92.869,71.079A12,12,0,0,1,82.487,89.1H20.828A12,12,0,0,1,10.447,71.079Z" transform="translate(605.68 2462.363) rotate(45)"/><g transform="translate(551.631 2519.605)"><g transform="translate(0 0)"><path d="M73.826,77.211l-1.935-3.352a1.451,1.451,0,1,0-2.513,1.451l1.935,3.352a.566.566,0,0,1-.207.774L65.988,82.39a.567.567,0,0,1-.774-.207L54.92,64.353a.567.567,0,0,1,.207-.774l5.117-2.954a.567.567,0,0,1,.774.207L62.848,64a1.451,1.451,0,1,0,2.513-1.451l-1.83-3.17a3.472,3.472,0,0,0-4.738-1.269l-5.117,2.954a3.456,3.456,0,0,0-1.569,1.95H37.6a7.576,7.576,0,0,0-5.392,2.233l-1.486,1.486a17.167,17.167,0,0,0-3.981-.47h-4.5a3.458,3.458,0,0,0-1.621-2.135L15.5,61.175a3.468,3.468,0,0,0-4.738,1.269L.466,80.275a3.468,3.468,0,0,0,1.269,4.738l5.117,2.954a3.446,3.446,0,0,0,1.728.464,3.491,3.491,0,0,0,.637-.06l4.188,4.189a5.278,5.278,0,0,0-.1,1.01,5.214,5.214,0,0,0,4.93,5.209,5.3,5.3,0,0,0-.029.551,5.22,5.22,0,0,0,5.22,5.22l.113,0c0,.038,0,.075,0,.113a5.22,5.22,0,0,0,5.22,5.22l.113,0c0,.038,0,.075,0,.113a5.22,5.22,0,0,0,8.911,3.691l2.064-2.064a5.187,5.187,0,0,0,1.274-2.088,5.224,5.224,0,0,0,8.083-2.653,5.222,5.222,0,0,0,7.962-3.322A5.221,5.221,0,0,0,62.5,94.91l-3.387-3.387L65.3,85.341a3.492,3.492,0,0,0,.414.026,3.447,3.447,0,0,0,1.728-.464l5.117-2.954a3.468,3.468,0,0,0,1.27-4.738ZM3.186,82.5a.566.566,0,0,1-.207-.774L13.274,63.9a.564.564,0,0,1,.344-.264.582.582,0,0,1,.148-.019.559.559,0,0,1,.281.076l5.117,2.954a.567.567,0,0,1,.207.774L9.077,85.247a.567.567,0,0,1-.774.207ZM16.211,93.57a2.3,2.3,0,0,1,.679-1.639l1.252-1.252a2.318,2.318,0,1,1,3.278,3.278l-1.252,1.252a2.318,2.318,0,0,1-3.957-1.639Zm7.219,8.078a2.318,2.318,0,0,1-1.639-3.957l2.064-2.064a2.318,2.318,0,1,1,3.278,3.278l-2.064,2.064A2.3,2.3,0,0,1,23.43,101.648Zm5.33,5.33a2.318,2.318,0,0,1-1.639-3.957l2.064-2.064a2.318,2.318,0,1,1,3.278,3.278L30.4,106.3A2.3,2.3,0,0,1,28.76,106.978Zm9.033,2.587-2.064,2.064a2.318,2.318,0,1,1-3.278-3.278l2.064-2.064a2.318,2.318,0,1,1,3.278,3.278Zm22.656-9.326a2.318,2.318,0,0,1-3.278,0L43.322,86.39a1.451,1.451,0,0,0-2.052,2.052l12.42,12.42a2.318,2.318,0,1,1-3.278,3.278L35.487,89.216a1.451,1.451,0,0,0-2.052,2.052l12.42,12.42a2.318,2.318,0,0,1-3.278,3.278l-2.732-2.732-.012-.011a5.2,5.2,0,0,0-3.793-1.513c0-.038,0-.077,0-.116a5.213,5.213,0,0,0-5.333-5.215c0-.038,0-.077,0-.115A5.216,5.216,0,0,0,25,92.072a5.22,5.22,0,0,0-8.905-3.445l-1.252,1.252,0,0-3.222-3.222,10.1-17.495h5.029a14.246,14.246,0,0,1,1.473.077L26.556,70.9a5.22,5.22,0,0,0,7.382,7.382l3.917-3.917L60.449,96.962a2.321,2.321,0,0,1,0,3.278ZM46.509,78.917a8.234,8.234,0,0,0,3.406-6.673,1.451,1.451,0,1,0-2.9,0,5.332,5.332,0,0,1-2.6,4.579L38.887,71.3a1.45,1.45,0,0,0-2.051-.015l-4.951,4.951a2.318,2.318,0,1,1-3.278-3.278L34.261,67.3a4.693,4.693,0,0,1,3.34-1.383H52.473L62.7,83.634c.024.042.051.082.076.122l-5.715,5.715Z" transform="translate(0 -57.647)"/><path d="M455.759,128.316a1.452,1.452,0,1,0-1.026-.425A1.464,1.464,0,0,0,455.759,128.316Z" transform="translate(-388.389 -115.581)"/></g></g></g></svg>