<svg xmlns="http://www.w3.org/2000/svg" width="56.101" height="33.661" viewBox="0 0 56.101 33.661"><defs><style>.a{fill:#ffb600;}.b{fill:#f7981d;}.c{fill:#ff8500;}.d{fill:#ff5050;}.e{fill:#e52836;}.f{fill:#cb2026;}.g{fill:#fff;}.h{fill:#dce5e5;}</style></defs><g transform="translate(0 -100.8)"><path class="a" d="M235.26,117.63a16.83,16.83,0,1,1-33.66,0h0a16.83,16.83,0,1,1,33.66,0Z" transform="translate(-179.16 0)"/><path class="b" d="M218.43,100.8a16.874,16.874,0,0,1,16.83,16.83h0a16.83,16.83,0,1,1-33.66,0" transform="translate(-179.16)"/><path class="c" d="M352.8,100.8a16.874,16.874,0,0,1,16.83,16.83h0a16.817,16.817,0,0,1-16.83,16.83" transform="translate(-313.53)"/><path class="d" d="M16.652,100.8a16.831,16.831,0,0,0,.178,33.66A17.026,17.026,0,0,0,28.139,130.1h0a16,16,0,0,0,1.692-1.781H26.358a20.543,20.543,0,0,1-1.247-1.692h5.966a11.407,11.407,0,0,0,.98-1.781H24.132a10.613,10.613,0,0,1-.712-1.781h9.261a17.682,17.682,0,0,0,.89-5.343,22.986,22.986,0,0,0-.356-3.562H22.885a13.018,13.018,0,0,1,.445-1.781h9.261a10.613,10.613,0,0,0-.712-1.781H24.043a17.659,17.659,0,0,1,.98-1.781h5.966a8.468,8.468,0,0,0-1.336-1.781H26.358a15.178,15.178,0,0,1,1.692-1.692,16.432,16.432,0,0,0-11.309-4.363C16.741,100.8,16.741,100.8,16.652,100.8Z"/><path class="e" d="M0,119.052a16.817,16.817,0,0,0,16.83,16.83,17.026,17.026,0,0,0,11.309-4.363h0a16,16,0,0,0,1.692-1.781H26.358a20.543,20.543,0,0,1-1.247-1.692h5.966a11.407,11.407,0,0,0,.98-1.781H24.132a10.613,10.613,0,0,1-.712-1.781h9.261a17.682,17.682,0,0,0,.89-5.343,22.986,22.986,0,0,0-.356-3.562H22.885a13.018,13.018,0,0,1,.445-1.781h9.261a10.613,10.613,0,0,0-.712-1.781H24.043a17.66,17.66,0,0,1,.98-1.781h5.966a8.468,8.468,0,0,0-1.336-1.781H26.358a15.177,15.177,0,0,1,1.692-1.692A16.432,16.432,0,0,0,16.741,102.4h-.089" transform="translate(0 -1.422)"/><path class="f" d="M149.778,135.882a17.026,17.026,0,0,0,11.309-4.363h0a16,16,0,0,0,1.692-1.781h-3.473a20.539,20.539,0,0,1-1.247-1.692h5.966a11.407,11.407,0,0,0,.98-1.781H157.08a10.613,10.613,0,0,1-.712-1.781h9.261a17.682,17.682,0,0,0,.89-5.343,22.985,22.985,0,0,0-.356-3.562h-10.33a13.021,13.021,0,0,1,.445-1.781h9.261a10.614,10.614,0,0,0-.712-1.781h-7.836a17.66,17.66,0,0,1,.98-1.781h5.966a8.468,8.468,0,0,0-1.336-1.781h-3.295A15.177,15.177,0,0,1,161,106.763a16.432,16.432,0,0,0-11.309-4.363H149.6" transform="translate(-132.948 -1.422)"/><g transform="translate(1.603 113.267)"><path class="g" d="M184.182,227.836l.267-1.514a3.857,3.857,0,0,1-.445.089c-.623,0-.712-.356-.623-.534l.534-3.117h.98l.267-1.692h-.89L184.45,220h-1.781s-1.069,5.877-1.069,6.59a1.337,1.337,0,0,0,1.425,1.514A2.734,2.734,0,0,0,184.182,227.836Z" transform="translate(-162.989 -219.199)"/><path class="g" d="M210.4,232.717a2.832,2.832,0,0,0,3.117,3.117,4.624,4.624,0,0,0,1.87-.267l.356-1.692a5.338,5.338,0,0,1-1.87.445c-1.959,0-1.6-1.425-1.6-1.425h3.651a11.546,11.546,0,0,0,.267-1.6,2.413,2.413,0,0,0-2.582-2.582C211.736,228.532,210.4,230.491,210.4,232.717Zm3.117-2.582c.98,0,.8,1.158.8,1.247h-1.959C212.359,231.292,212.537,230.135,213.517,230.135Z" transform="translate(-188.583 -226.929)"/><path class="g" d="M300.9,221.438l.356-1.959a4.376,4.376,0,0,1-1.514.445c-1.247,0-1.781-.98-1.781-2.048,0-2.137,1.069-3.295,2.315-3.295a2.974,2.974,0,0,1,1.6.534l.267-1.87a6.261,6.261,0,0,0-2.048-.445c-2.048,0-4.1,1.781-4.1,5.165,0,2.226,1.069,3.74,3.206,3.74A7.992,7.992,0,0,0,300.9,221.438Z" transform="translate(-264.655 -212.8)"/><path class="g" d="M89.784,227.2a6.307,6.307,0,0,0-2.137.356l-.267,1.514a5.264,5.264,0,0,1,1.959-.356c.623,0,1.158.089,1.158.623,0,.356-.089.445-.089.445h-.8c-1.514,0-3.206.623-3.206,2.671,0,1.6,1.069,1.959,1.692,1.959a2.676,2.676,0,0,0,1.87-.8l-.089.712h1.6l.712-4.9A2.11,2.11,0,0,0,89.784,227.2Zm.356,4.007c0,.267-.178,1.692-1.247,1.692a.7.7,0,0,1-.712-.712c0-.445.267-1.069,1.6-1.069A1.4,1.4,0,0,0,90.14,231.207Z" transform="translate(-78.386 -225.597)"/><path class="g" d="M137.248,233.7a2.282,2.282,0,0,0,2.671-2.315c0-2.226-2.137-1.781-2.137-2.671,0-.445.356-.623.98-.623.267,0,1.247.089,1.247.089l.267-1.6a6.764,6.764,0,0,0-1.692-.178c-1.336,0-2.671.534-2.671,2.315,0,2.048,2.226,1.87,2.226,2.671,0,.534-.623.623-1.069.623a5.823,5.823,0,0,1-1.6-.267l-.267,1.6C135.289,233.524,135.734,233.7,137.248,233.7Z" transform="translate(-121.754 -224.886)"/><path class="g" d="M432.276,214.4l-.356,2.4a2.469,2.469,0,0,0-1.692-.89c-1.6,0-3.028,1.959-3.028,4.274,0,1.425.712,2.939,2.226,2.939a2.377,2.377,0,0,0,1.692-.712l-.089.623h1.781l1.336-8.549Zm-.8,4.72c0,.98-.445,2.226-1.425,2.226-.623,0-.98-.534-.98-1.425,0-1.425.623-2.315,1.425-2.315C431.118,217.606,431.474,218.051,431.474,219.12Z" transform="translate(-381.251 -214.222)"/><path class="g" d="M16.092,222.949l1.069-6.411.178,6.411h1.247l2.315-6.411-.98,6.411h1.87l1.425-8.549H20.277L18.5,219.654l-.089-5.254H15.825L14.4,222.949Z" transform="translate(-14.4 -214.222)"/><path class="g" d="M261.959,235.746c.534-2.939.623-5.343,1.87-4.9a6.989,6.989,0,0,1,.623-2.048H264.1c-.8,0-1.425,1.069-1.425,1.069l.178-.98h-1.692L260,235.835h1.959Z" transform="translate(-232.662 -227.019)"/><path class="g" d="M349.784,227.2a6.307,6.307,0,0,0-2.137.356l-.267,1.514a5.263,5.263,0,0,1,1.959-.356c.623,0,1.158.089,1.158.623,0,.356-.089.445-.089.445h-.8c-1.514,0-3.206.623-3.206,2.671,0,1.6,1.069,1.959,1.692,1.959a2.676,2.676,0,0,0,1.87-.8l-.089.712h1.6l.712-4.9A2.079,2.079,0,0,0,349.784,227.2Zm.445,4.007c0,.267-.178,1.692-1.247,1.692a.7.7,0,0,1-.712-.712c0-.445.267-1.069,1.6-1.069C350.14,231.207,350.14,231.207,350.229,231.207Z" transform="translate(-309.445 -225.597)"/><path class="g" d="M396.359,235.746c.534-2.939.623-5.343,1.87-4.9a6.989,6.989,0,0,1,.623-2.048H398.5c-.8,0-1.425,1.069-1.425,1.069l.178-.98h-1.692l-1.158,6.946h1.959Z" transform="translate(-352.102 -227.019)"/></g><g transform="translate(1.603 113.267)"><path class="h" d="M180,226.59a1.337,1.337,0,0,0,1.425,1.514,3.39,3.39,0,0,0,1.336-.267l.267-1.514a3.856,3.856,0,0,1-.445.089c-.623,0-.712-.356-.623-.534l.534-3.117h.98l.267-1.692h-.891l.178-1.069" transform="translate(-161.567 -219.199)"/><path class="h" d="M218.4,232.717c0,2.493.8,3.117,2.226,3.117a4.624,4.624,0,0,0,1.87-.267l.356-1.692a5.338,5.338,0,0,1-1.87.445c-1.959,0-1.6-1.425-1.6-1.425h3.651a11.546,11.546,0,0,0,.267-1.6,2.413,2.413,0,0,0-2.582-2.582C218.845,228.532,218.4,230.491,218.4,232.717Zm2.226-2.582c.98,0,1.158,1.158,1.158,1.247h-2.315C219.469,231.292,219.647,230.135,220.626,230.135Z" transform="translate(-195.693 -226.929)"/><path class="h" d="M308.007,221.438l.356-1.959a4.376,4.376,0,0,1-1.514.445c-1.247,0-1.781-.98-1.781-2.048,0-2.137,1.069-3.295,2.315-3.295a2.974,2.974,0,0,1,1.6.534l.267-1.87a6.261,6.261,0,0,0-2.048-.445c-2.048,0-3.206,1.781-3.206,5.165,0,2.226.178,3.74,2.315,3.74A7.992,7.992,0,0,0,308.007,221.438Z" transform="translate(-271.764 -212.8)"/><path class="h" d="M87.38,230.581a5.264,5.264,0,0,1,1.959-.356c.623,0,1.158.089,1.158.623,0,.356-.089.445-.089.445h-.8c-1.514,0-3.206.623-3.206,2.671,0,1.6,1.069,1.959,1.692,1.959a2.676,2.676,0,0,0,1.87-.8l-.089.712h1.6l.712-4.9c0-2.048-1.781-2.137-2.493-2.137m1.336,3.829a2.915,2.915,0,0,1-2.137,1.692.7.7,0,0,1-.712-.712c0-.445.267-1.069,1.6-1.069A7.275,7.275,0,0,0,91.031,232.629Z" transform="translate(-78.386 -227.019)"/><path class="h" d="M136,233.524a7.535,7.535,0,0,0,2.048.178,2.282,2.282,0,0,0,2.671-2.315c0-2.226-2.137-1.781-2.137-2.671,0-.445.356-.623.98-.623.267,0,1.247.089,1.247.089l.267-1.6a6.764,6.764,0,0,0-1.692-.178c-1.336,0-1.781.534-1.781,2.315,0,2.048,1.336,1.87,1.336,2.671,0,.534-.623.623-1.069.623" transform="translate(-122.465 -224.886)"/><path class="h" d="M438.977,217.515a2.469,2.469,0,0,0-1.692-.89c-1.6,0-2.137,1.959-2.137,4.274,0,1.425-.178,2.939,1.336,2.939a2.377,2.377,0,0,0,1.692-.712l-.089.623h1.781L441.2,215.2m-2.315,4.631c0,.98-.8,2.226-1.781,2.226-.623,0-.98-.534-.98-1.425,0-1.425.623-2.315,1.425-2.315A1.361,1.361,0,0,1,438.888,219.831Z" transform="translate(-388.309 -214.933)"/><path class="h" d="M16.092,222.949l1.069-6.411.178,6.411h1.247l2.315-6.411-.98,6.411h1.87l1.425-8.549H20.99L18.5,219.654l-.089-5.254h-.98L14.4,222.949Z" transform="translate(-14.4 -214.222)"/><path class="h" d="M260.8,235.746h1.87c.534-2.939.623-5.343,1.87-4.9a6.988,6.988,0,0,1,.623-2.048h-.356c-.8,0-1.425,1.069-1.425,1.069l.178-.98" transform="translate(-233.373 -227.019)"/><path class="h" d="M347.38,230.581a5.263,5.263,0,0,1,1.959-.356c.623,0,1.158.089,1.158.623,0,.356-.089.445-.089.445h-.8c-1.514,0-3.206.623-3.206,2.671,0,1.6,1.069,1.959,1.692,1.959a2.676,2.676,0,0,0,1.87-.8l-.089.712h1.6l.712-4.9c0-2.048-1.781-2.137-2.493-2.137m1.336,3.829a2.915,2.915,0,0,1-2.137,1.692.7.7,0,0,1-.712-.712c0-.445.267-1.069,1.6-1.069A7.834,7.834,0,0,0,351.031,232.629Z" transform="translate(-309.445 -227.019)"/><path class="h" d="M395.2,235.746h1.87c.534-2.939.623-5.343,1.87-4.9a6.989,6.989,0,0,1,.623-2.048h-.356c-.8,0-1.425,1.069-1.425,1.069l.178-.98" transform="translate(-352.813 -227.019)"/></g></g></svg>