<svg xmlns="http://www.w3.org/2000/svg" width="33.416" height="33.416" viewBox="0 0 33.416 33.416"><defs><style>.a{fill:#fff;}</style></defs><path class="a" d="M30.778,0H2.638A2.638,2.638,0,0,0,0,2.638v28.14a2.638,2.638,0,0,0,2.638,2.638h28.14a2.638,2.638,0,0,0,2.638-2.638V2.638A2.638,2.638,0,0,0,30.778,0ZM11.849,25.5H8.2V13.76h3.645ZM10.025,12.157a2.121,2.121,0,1,1,2.113-2.132A2.121,2.121,0,0,1,10.025,12.157ZM25.5,25.5H21.859V19.786c0-1.363-.026-3.111-1.9-3.111s-2.2,1.482-2.2,3.012V25.5h-3.63V13.76h3.5v1.6h.051a3.827,3.827,0,0,1,3.449-1.9c3.689,0,4.368,2.418,4.368,5.586Z"/></svg>