<svg xmlns="http://www.w3.org/2000/svg" width="33.737" height="33.737" viewBox="0 0 33.737 33.737"><defs><style>.a{fill:#fff;}</style></defs><g transform="translate(0)"><circle class="a" cx="3.01" cy="3.01" r="3.01" transform="translate(13.859 13.859)"/><path class="a" d="M31.074,0H2.663A2.663,2.663,0,0,0,0,2.663v28.41a2.663,2.663,0,0,0,2.663,2.663h28.41a2.663,2.663,0,0,0,2.663-2.663V2.663A2.663,2.663,0,0,0,31.074,0ZM25.867,17.756c0,.533-.011,1.068-.02,1.6s-.022,1.11-.04,1.671a4.643,4.643,0,0,1-4.583,4.639q-1,.036-2,.053-3.329.069-6.681-.055a4.661,4.661,0,0,1-2.885-1.088,4.539,4.539,0,0,1-.506-.506,5.185,5.185,0,0,1-1.19-3.056c-.016-.222-.062-.444-.1-.666V13.395c.06-.422.1-.846.18-1.265a4.636,4.636,0,0,1,4.506-4.064c2.885-.1,5.784-.1,8.672,0a4.748,4.748,0,0,1,3.085,1.223l.127.124.067.067A4.828,4.828,0,0,1,25.809,12.7c.02.653.036,1.3.047,1.955.013,1.032.02,2.064.011,3.1ZM24.224,13a3.211,3.211,0,0,0-3.389-3.376q-3.94-.082-7.879,0a3.185,3.185,0,0,0-3.383,3.329q-.107,3.913,0,7.828a3.205,3.205,0,0,0,3.385,3.329c1.3.049,2.608,0,3.913,0h.761c1.068,0,2.135.029,3.2-.011a3.222,3.222,0,0,0,3.389-3.378q.038-1.478.042-2.954V16.147q0-1.554-.042-3.125Zm-7.356,8.454A4.591,4.591,0,1,1,20.076,13.6l.036.036.042.042a4.588,4.588,0,0,1-3.285,7.78Zm4.856-8.294a1.086,1.086,0,1,1,.692-1.933l.024.022a.677.677,0,0,1,.1.1l.024.027a1.092,1.092,0,0,1-.843,1.776Z" transform="translate(0)"/></g></svg>