<svg xmlns="http://www.w3.org/2000/svg" width="33.233" height="33.233" viewBox="0 0 33.233 33.233"><defs><style>.a{fill:#fff;}</style></defs><path class="a" d="M30.609,0H2.624A2.624,2.624,0,0,0,0,2.624V30.609a2.624,2.624,0,0,0,2.624,2.624H30.609a2.624,2.624,0,0,0,2.624-2.624V2.624A2.624,2.624,0,0,0,30.609,0ZM25.17,12.244c0,.188.015.376.015.571A12.475,12.475,0,0,1,12.622,25.373a12.416,12.416,0,0,1-6.778-1.981,7.969,7.969,0,0,0,1.056.061,8.875,8.875,0,0,0,5.467-1.883,4.458,4.458,0,0,1-4.111-3.085,3.935,3.935,0,0,0,.837.074,4.4,4.4,0,0,0,1.157-.144,4.434,4.434,0,0,1-3.535-4.338V14.03a4.355,4.355,0,0,0,1.994.544,4.416,4.416,0,0,1-1.358-5.9,12.5,12.5,0,0,0,9.1,4.62,4.563,4.563,0,0,1-.1-1.006A4.412,4.412,0,0,1,23.98,9.268a8.816,8.816,0,0,0,2.8-1.069,4.386,4.386,0,0,1-1.942,2.44,9.183,9.183,0,0,0,2.543-.7,8.78,8.78,0,0,1-2.21,2.3Z"/></svg>