<svg xmlns="http://www.w3.org/2000/svg" width="32.822" height="32.822" viewBox="0 0 32.822 32.822"><defs><style>.a{fill:#fff;}</style></defs><path class="a" d="M30.231,0H2.591A2.591,2.591,0,0,0,0,2.591V30.231a2.591,2.591,0,0,0,2.591,2.591H30.231a2.591,2.591,0,0,0,2.591-2.591V2.591A2.591,2.591,0,0,0,30.231,0ZM21.079,10.68c0,.309-.13.432-.432.432-.581,0-1.162,0-1.74.024s-.894.287-.894.892c-.013.648,0,1.283,0,1.943H20.5c.354,0,.475.121.475.477v2.6c0,.352-.112.462-.469.464H17.992v7.026c0,.376-.117.494-.488.494H14.8c-.326,0-.453-.127-.453-.453V17.527H12.2c-.337,0-.458-.123-.458-.462V14.446c0-.337.127-.464.46-.464h2.144V12.092a4.727,4.727,0,0,1,.589-2.431,3.565,3.565,0,0,1,1.928-1.6,4.731,4.731,0,0,1,1.652-.285h2.123c.3,0,.432.134.432.432.011.831.011,1.654.009,2.475Z"/></svg>