<svg xmlns="http://www.w3.org/2000/svg" width="81.853" height="81.854" viewBox="0 0 81.853 81.854"><defs><style>.a{fill:#2f80ed;}.b{fill:#151a6a;}</style></defs><path class="a" d="M81.778,72.909c-.076-.054-7.644-5.637-7.734-22.45-.11-.357,2.764-26.319-20.81-31.293v-.616a5.549,5.549,0,0,0-11.1,0v.627c-23.688,5.042-20.685,30.866-20.81,31.275-.09,16.82-7.658,22.4-7.728,22.451a1.387,1.387,0,0,0,.791,2.528h26.36a6.937,6.937,0,1,0,13.874,0H80.98a1.387,1.387,0,0,0,.8-2.522ZM44.909,18.549a2.775,2.775,0,0,1,5.549,0v.15a26.575,26.575,0,0,0-5.549,0ZM29.648,44.909a1.387,1.387,0,1,1-2.775,0A20.834,20.834,0,0,1,47.684,24.1a1.387,1.387,0,1,1,0,2.775A18.056,18.056,0,0,0,29.648,44.909ZM47.684,79.593a4.162,4.162,0,0,1-4.162-4.162h8.324A4.162,4.162,0,0,1,47.684,79.593Z" transform="translate(-0.514 -0.514)"/><path d="M34.522,4A30.522,30.522,0,1,0,65.043,34.522,30.522,30.522,0,0,0,34.522,4Zm1.387,58.2v-2.7a1.387,1.387,0,1,0-2.775,0v2.7A27.735,27.735,0,0,1,6.845,35.909h2.7a1.387,1.387,0,1,0,0-2.775h-2.7A27.735,27.735,0,0,1,33.134,6.845v2.7a1.387,1.387,0,1,0,2.775,0v-2.7A27.735,27.735,0,0,1,62.2,33.134h-2.7a1.387,1.387,0,1,0,0,2.775h2.7A27.735,27.735,0,0,1,35.909,62.2Z" transform="translate(-4 -4)"/><path class="b" d="M41.036,30.423H31.069A4.162,4.162,0,0,0,28.55,27.9V12.387a1.387,1.387,0,1,0-2.775,0V27.9A4.152,4.152,0,1,0,31.069,33.2h9.967a1.387,1.387,0,1,0,0-2.775ZM27.162,33.2A1.387,1.387,0,1,1,28.55,31.81,1.387,1.387,0,0,1,27.162,33.2Z" transform="translate(3.359 -1.289)"/></svg>