<svg xmlns="http://www.w3.org/2000/svg" width="136.057" height="136.057" viewBox="0 0 136.057 136.057"><defs><style>.a{fill:#2f80ed;}</style></defs><g transform="translate(-891.679 -2462.363)"><path class="a" d="M41.277,17.905a12,12,0,0,1,20.763,0L92.869,71.079A12,12,0,0,1,82.487,89.1H20.828A12,12,0,0,1,10.447,71.079Z" transform="translate(954.681 2462.363) rotate(45)"/><g transform="translate(906.606 2512.605)"><g transform="translate(0)"><path d="M57.051,16.863q0-.032-.012-.065a20.442,20.442,0,0,0-1.572-4.882.837.837,0,0,0-.079-.169,20.655,20.655,0,0,0-2.436-3.9.844.844,0,0,0-.128-.166L52.8,7.659A20.79,20.79,0,0,0,49.66,4.53l-.019-.021a.841.841,0,0,0-.171-.131,20.651,20.651,0,0,0-3.916-2.416.829.829,0,0,0-.167-.078A20.436,20.436,0,0,0,40.477.332L40.413.32A20.681,20.681,0,0,0,33.977.192h-.009a20.662,20.662,0,0,0-17.4,16.379,20.528,20.528,0,0,0-6.359,2.412.842.842,0,0,0,.851,1.454A18.822,18.822,0,0,1,16.3,18.355a20.672,20.672,0,0,0,.2,5.881c0,.023.008.046.013.069a20.432,20.432,0,0,0,1.551,4.907.835.835,0,0,0,.078.168A20.658,20.658,0,0,0,20.551,33.3a.841.841,0,0,0,.131.171l.021.019a20.8,20.8,0,0,0,3.129,3.144l.019.021a.841.841,0,0,0,.166.128,20.654,20.654,0,0,0,3.9,2.436.834.834,0,0,0,.169.079,20.437,20.437,0,0,0,4.883,1.572l.063.012a20.64,20.64,0,0,0,6,.219A18.926,18.926,0,0,1,1.685,36.783,18.752,18.752,0,0,1,7.62,23.019a.842.842,0,0,0-1.157-1.225A20.611,20.611,0,1,0,40.822,40.822a20.661,20.661,0,0,0,16.4-17.549c0-.005,0-.01,0-.015a20.709,20.709,0,0,0-.173-6.395ZM52.137,9.557a18.961,18.961,0,0,1,1.508,2.463L38.717,26.947a20.68,20.68,0,0,0-1.549-2.422Zm-1.052-1.33L36.1,23.207a20.759,20.759,0,0,0-1.99-1.981L49.093,6.247A19.1,19.1,0,0,1,51.084,8.227ZM47.758,5.2,32.789,20.168a20.674,20.674,0,0,0-2.431-1.539L45.283,3.7A18.945,18.945,0,0,1,47.758,5.2Zm-7.19-3.135a18.766,18.766,0,0,1,3.067.9L28.752,17.851A20.444,20.444,0,0,0,25.8,16.835Zm-6.117-.236a19.016,19.016,0,0,1,2.333-.144c.574,0,1.142.027,1.7.077L23.825,16.425a20.685,20.685,0,0,0-3.215-.251c-.171,0-.342,0-.513.009Zm-3.007.625L18.627,15.27A19,19,0,0,1,31.443,2.453ZM17.936,22.314c-.05-.562-.078-1.13-.078-1.7A19.016,19.016,0,0,1,18,18.277L18.275,18a18.982,18.982,0,0,1,2.335-.146c.574,0,1.142.027,1.7.077Zm.3,2.08,6.155-6.155a18.741,18.741,0,0,1,3.067.9l-8.319,8.319A18.769,18.769,0,0,1,18.239,24.394Zm3.135,7.19a18.948,18.948,0,0,1-1.5-2.475l9.232-9.232a18.961,18.961,0,0,1,2.475,1.5Zm1.047,1.336,10.5-10.5a19.113,19.113,0,0,1,1.991,1.98L24.4,34.91A19.091,19.091,0,0,1,22.421,32.919Zm3.31,3.043L35.963,25.731a18.947,18.947,0,0,1,1.508,2.463l-9.278,9.278A18.984,18.984,0,0,1,25.731,35.963Zm7.156,3.168a18.745,18.745,0,0,1-3.053-.918l8.38-8.38a18.768,18.768,0,0,1,.918,3.053Zm6.522-.169-.447.447a19.023,19.023,0,0,1-2.179.126c-.617,0-1.227-.031-1.83-.089l4.493-4.493c.058.6.089,1.212.089,1.83A19.021,19.021,0,0,1,39.409,38.962Zm1.12-7.474A20.448,20.448,0,0,0,39.5,28.547L54.387,13.66a18.758,18.758,0,0,1,.918,3.053Zm1.4,7.335L55,25.757A19,19,0,0,1,41.93,38.824ZM55.583,22.789,41.216,37.156c0-.124,0-.248,0-.372a20.659,20.659,0,0,0-.271-3.332L55.62,18.78c.058.6.089,1.212.089,1.83A19.071,19.071,0,0,1,55.583,22.789Z" transform="translate(0)"/></g></g></g></svg>