<svg xmlns="http://www.w3.org/2000/svg" width="23.861" height="24.309" viewBox="0 0 23.861 24.309"><defs><style>.a{fill:#fff;}</style></defs><g transform="translate(0 0)"><path class="a" d="M3.324,35.293a.8.8,0,0,1-.647-.468,1.7,1.7,0,0,1,0-1.405l5.3-10.13-5.3-10.422a1.7,1.7,0,0,1,0-1.405.684.684,0,0,1,.93-.41L25.856,22.177a1.134,1.134,0,0,1,.526,1.113,1.234,1.234,0,0,1-.566,1.113L3.567,35.234a.375.375,0,0,1-.243.059ZM5.508,14.507l4.126,8.08a1.7,1.7,0,0,1,0,1.405L5.549,31.78l17.516-8.49Z" transform="translate(-2.525 -10.984)"/></g><g transform="translate(5.532 11.501)"><path class="a" d="M33.716,31.618H17.009a.809.809,0,1,1,0-1.618H33.716a.809.809,0,1,1,0,1.618Z" transform="translate(-16.2 -30)"/></g></svg>