<?xml version="1.0" encoding="UTF-8" standalone="no"?>
<!-- Created with Inkscape (http://www.inkscape.org/) -->

<svg
   xmlns:dc="http://purl.org/dc/elements/1.1/"
   xmlns:cc="http://creativecommons.org/ns#"
   xmlns:rdf="http://www.w3.org/1999/02/22-rdf-syntax-ns#"
   xmlns:svg="http://www.w3.org/2000/svg"
   xmlns="http://www.w3.org/2000/svg"
   xmlns:sodipodi="http://sodipodi.sourceforge.net/DTD/sodipodi-0.dtd"
   xmlns:inkscape="http://www.inkscape.org/namespaces/inkscape"
   width="180.87726mm"
   height="49.266354mm"
   viewBox="0 0 180.87726 49.266354"
   version="1.1"
   id="svg954"
   inkscape:version="0.92.3 (2405546, 2018-03-11)"
   sodipodi:docname="drawing-1.svg">
  <defs
     id="defs948" />
  <sodipodi:namedview
     id="base"
     pagecolor="#ffffff"
     bordercolor="#666666"
     borderopacity="1.0"
     inkscape:pageopacity="0.0"
     inkscape:pageshadow="2"
     inkscape:zoom="3.959798"
     inkscape:cx="252.91094"
     inkscape:cy="107.10618"
     inkscape:document-units="mm"
     inkscape:current-layer="layer1"
     showgrid="false"
     inkscape:window-width="1600"
     inkscape:window-height="1137"
     inkscape:window-x="-8"
     inkscape:window-y="-8"
     inkscape:window-maximized="1"
     fit-margin-top="2.7755576e-017"
     fit-margin-left="0"
     fit-margin-right="0"
     fit-margin-bottom="0" />
  <metadata
     id="metadata951">
    <rdf:RDF>
      <cc:Work
         rdf:about="">
        <dc:format>image/svg+xml</dc:format>
        <dc:type
           rdf:resource="http://purl.org/dc/dcmitype/StillImage" />
        <dc:title></dc:title>
      </cc:Work>
    </rdf:RDF>
  </metadata>
  <g
     inkscape:label="Layer 1"
     inkscape:groupmode="layer"
     id="layer1"
     transform="translate(-22.268306,-211.35692)">
    <path
       style="fill:#717174;fill-opacity:1;stroke-width:0.08466666"
       d="m 111.79501,260.50215 c -0.43273,-0.11632 -0.92155,-0.4112 -1.17396,-0.70819 -0.23383,-0.27513 -0.52016,-0.99816 -0.57287,-1.4466 -0.12888,-1.09654 0.39862,-2.13027 1.3303,-2.60704 0.48609,-0.24873 0.63233,-0.28286 1.22278,-0.28531 0.72679,-0.003 1.13542,0.12157 1.62603,0.49578 l 0.28716,0.21902 -0.31969,0.3274 c -0.28358,0.29041 -0.33498,0.31356 -0.45504,0.20491 -0.60386,-0.54648 -1.7151,-0.48494 -2.29916,0.12733 -0.76197,0.79877 -0.5608,2.24582 0.37522,2.69894 0.51795,0.25073 1.18107,0.23789 1.71665,-0.0333 l 0.41622,-0.21071 0.3161,0.31655 0.31611,0.31655 -0.30069,0.20556 c -0.70685,0.48321 -1.59419,0.61856 -2.48516,0.37907 z"
       id="path1656"
       inkscape:connector-curvature="0" />
    <path
       style="fill:#717174;fill-opacity:1;stroke-width:0.08466666"
       d="m 121.24865,260.51675 c -0.53837,-0.14477 -0.9869,-0.51452 -1.24574,-1.02691 -0.20218,-0.40022 -0.21289,-0.49778 -0.23896,-2.17584 l -0.0273,-1.75684 h 0.4718 0.47179 v 1.58194 c 0,1.40323 0.0189,1.62103 0.16754,1.92802 0.40596,0.8386 1.65413,0.92142 2.13888,0.14192 0.17863,-0.28725 0.19315,-0.4179 0.22007,-1.97971 l 0.0288,-1.67217 h 0.46656 0.46657 l -0.0323,1.75684 c -0.0285,1.54944 -0.0528,1.80181 -0.2061,2.13783 -0.42881,0.93983 -1.52625,1.37564 -2.68167,1.06492 z"
       id="path1654"
       inkscape:connector-curvature="0" />
    <path
       style="fill:#717174;fill-opacity:1;stroke-width:0.31999999"
       d="m 562.20703,965.43164 c -1.47282,-0.0392 -2.95323,0.21081 -4.26562,0.77539 -3.72654,1.60313 -5.71643,5.22359 -5.4375,9.89063 0.27435,4.59072 2.66095,7.59463 6.88476,8.66015 3.60132,0.90849 8.22461,-0.50938 10.22852,-3.13672 2.99471,-3.92632 2.56473,-10.38637 -0.91407,-13.71875 -1.60608,-1.5385 -4.04139,-2.40541 -6.49609,-2.4707 z m -0.17187,3.33398 c 2.73679,0 4.39313,1.01622 5.47461,3.35938 1.71023,3.70568 -0.19362,8.42292 -3.80469,9.42578 -1.53778,0.4272 -2.19851,0.40299 -3.70703,-0.13476 -1.52508,-0.54369 -2.98924,-1.90187 -3.58985,-3.33008 -0.63602,-1.51193 -0.56288,-4.41545 0.15039,-5.96094 1.08148,-2.34316 2.73977,-3.35938 5.47657,-3.35938 z"
       transform="scale(0.26458333)"
       id="path1652"
       inkscape:connector-curvature="0" />
    <path
       style="fill:#717174;fill-opacity:1;stroke-width:0.31999999"
       d="m 681.69922,965.48047 c -3.98676,0 -6.75759,1.63008 -8.57422,5.04492 -0.75806,1.42503 -0.84938,1.95075 -0.84961,4.80078 -2.3e-4,2.74292 0.10655,3.40436 0.75391,4.63867 1.37132,2.61479 3.21944,4.08117 6.04101,4.79297 2.10157,0.53016 5.46648,0.13875 7.42578,-0.86328 6.76158,-3.458 6.32433,-14.67026 -0.68945,-17.6875 -1.25888,-0.54149 -2.30001,-0.72656 -4.10742,-0.72656 z m 0.0156,3.28515 c 2.7368,0 4.39318,1.01622 5.47461,3.35938 1.71028,3.70568 -0.19365,8.42292 -3.80468,9.42578 -0.65454,0.1818 -1.47821,0.32592 -1.83008,0.31836 -1.0769,-0.0206 -3.05781,-0.84857 -3.91407,-1.63672 -2.61547,-2.40748 -2.6409,-7.70994 -0.0488,-10.08594 1.05449,-0.96661 2.29288,-1.38086 4.12304,-1.38086 z"
       transform="scale(0.26458333)"
       id="path1648"
       inkscape:connector-curvature="0" />
    <path
       style="fill:#717174;fill-opacity:1;stroke-width:0.08466666"
       d="m 196.02939,260.52728 c -1.19241,-0.33844 -1.83685,-1.31977 -1.75562,-2.6734 0.0897,-1.49476 1.08806,-2.41079 2.61706,-2.40122 0.59439,0.004 1.24019,0.22822 1.66608,0.57918 l 0.195,0.1607 -0.30501,0.29562 -0.305,0.29563 -0.3377,-0.19435 c -0.91905,-0.52894 -2.04569,-0.20817 -2.45815,0.69988 -0.27443,0.60415 -0.16256,1.48351 0.24625,1.93558 0.52929,0.58529 1.66729,0.64228 2.40917,0.12064 0.12581,-0.0885 0.1935,-0.0578 0.45913,0.2078 0.37135,0.37135 0.3339,0.45527 -0.35321,0.79144 -0.54302,0.26568 -1.49149,0.34898 -2.078,0.1825 z"
       id="path1644"
       inkscape:connector-curvature="0" />
    <path
       style="fill:#ebc14a;fill-opacity:1;stroke-width:0.08466666"
       d="m 44.649579,260.53128 c 0,-0.0154 0.17145,-0.5392 0.381,-1.16398 0.20955,-0.62477 0.381,-1.1771 0.381,-1.2274 0,-0.0503 -0.459363,-0.43288 -1.020806,-0.85019 l -1.020806,-0.75874 1.293437,-0.0423 1.293436,-0.0423 0.378951,-1.18533 0.378951,-1.18533 0.378925,1.2065 0.378926,1.2065 h 1.312874 1.312875 l -1.031048,0.77139 c -0.567077,0.42427 -1.031049,0.81835 -1.031049,0.87575 0,0.0574 0.07756,0.32939 0.172347,0.60444 0.373364,1.08337 0.575943,1.82196 0.478888,1.74599 -0.0555,-0.0434 -0.481902,-0.35645 -0.947568,-0.69557 -0.465667,-0.33913 -0.888739,-0.64937 -0.94016,-0.68942 -0.05806,-0.0452 -0.234551,0.0341 -0.465667,0.20933 -0.797353,0.60452 -1.684506,1.24742 -1.684506,1.22073 z"
       id="path1642"
       inkscape:connector-curvature="0" />
    <path
       style="fill:#717174;fill-opacity:1;stroke-width:0.08466666"
       d="m 80.971576,258.01264 v -2.45534 h 0.465667 0.465666 v 2.45534 2.45533 h -0.465666 -0.465667 z"
       id="path1640"
       inkscape:connector-curvature="0" />
    <path
       style="fill:#717174;fill-opacity:1;stroke-width:0.08466666"
       d="m 83.003576,258.01264 v -2.45534 h 0.376399 0.3764 l 1.168767,1.47999 1.168767,1.47998 0.02312,-1.47998 0.02312,-1.47999 h 0.463712 0.463714 v 2.46045 2.46044 l -0.315379,-0.0263 c -0.300245,-0.025 -0.374384,-0.10224 -1.545166,-1.60936 l -1.229789,-1.58307 -0.02299,1.60424 -0.023,1.60424 h -0.463837 -0.463839 z"
       id="path1638"
       inkscape:connector-curvature="0" />
    <path
       style="fill:#717174;fill-opacity:1;stroke-width:0.08466666"
       d="m 89.353575,258.43915 v -2.02882 l -0.783166,-0.0243 -0.783167,-0.0243 -0.02581,-0.40217 -0.02581,-0.40217 h 2.078972 2.078972 v 0.42334 0.42333 H 91.089233 90.2849 v 2.032 2.032 h -0.465667 -0.465667 z"
       id="path1636"
       inkscape:connector-curvature="0" />
    <path
       style="fill:#717174;fill-opacity:1;stroke-width:0.08466666"
       d="m 92.570908,258.01264 v -2.45534 h 1.862667 1.862667 v 0.42334 0.42333 h -1.397 -1.397 v 0.59267 0.59266 h 1.312333 1.312333 v 0.42334 0.42333 h -1.312333 -1.312333 v 0.59267 0.59266 h 1.397 1.397 v 0.42334 0.42333 h -1.862667 -1.862667 z"
       id="path1634"
       inkscape:connector-curvature="0" />
    <path
       style="fill:#717174;fill-opacity:1;stroke-width:0.08466666"
       d="m 97.058241,258.01264 v -2.45534 h 0.507996 0.508 v 2.032 2.032 h 1.27 1.270003 v 0.42334 0.42333 h -1.778003 -1.777996 z"
       id="path1632"
       inkscape:connector-curvature="0" />
    <path
       style="fill:#717174;fill-opacity:1;stroke-width:0.08466666"
       d="m 101.37624,258.01264 v -2.45534 h 0.46567 0.46567 v 2.032 2.032 h 1.27 1.27 v 0.42334 0.42333 h -1.73567 -1.73567 z"
       id="path1630"
       inkscape:connector-curvature="0" />
    <path
       style="fill:#717174;fill-opacity:1;stroke-width:0.08466666"
       d="m 105.60958,258.01264 v -2.45534 h 1.86266 1.86267 v 0.42124 0.42124 l -1.37583,0.0233 -1.37584,0.0233 -0.025,0.5715 -0.025,0.5715 h 1.35854 1.35853 v 0.42119 0.42118 l -1.3335,0.0233 -1.3335,0.0233 v 0.55034 0.55033 l 1.37584,0.0233 1.37583,0.0233 v 0.42123 0.42124 h -1.86267 -1.86266 z"
       id="path1628"
       inkscape:connector-curvature="0" />
    <path
       style="fill:#717174;fill-opacity:1;stroke-width:0.08466666"
       d="m 116.44691,258.43597 v -2.032 h -0.80433 -0.80434 v -0.42333 -0.42334 h 2.032 2.032 v 0.42334 0.42333 h -0.762 -0.762 v 2.032 2.032 h -0.46566 -0.46567 z"
       id="path1626"
       inkscape:connector-curvature="0" />
    <path
       style="fill:#717174;fill-opacity:1;stroke-width:0.31999999"
       d="m 483.47461,965.86914 -2.06055,0.0879 -2.05859,0.0879 -4.10156,9.10156 c -2.25525,5.00527 -4.09961,9.14442 -4.09961,9.19922 0,0.0548 0.87186,0.0996 1.9375,0.0996 h 1.9375 l 0.77929,-1.75976 0.77735,-1.75977 h 4.82226 4.82227 l 0.80469,1.75977 0.80664,1.75976 h 1.92968 c 1.70669,0 1.9066,-0.0636 1.71875,-0.55859 -0.11701,-0.30799 -1.96944,-4.48865 -4.11523,-9.28906 z m -2.04883,4.40234 c 0.18463,0.0764 0.6015,0.80456 1.00195,1.76954 0.45771,1.10279 1.20377,2.83369 1.65625,3.8457 l 0.82227,1.83984 h -3.35547 c -1.84581,0 -3.35742,-0.12585 -3.35742,-0.27929 0,-0.36824 2.86561,-6.85043 3.16797,-7.16602 0.0161,-0.0168 0.0381,-0.0207 0.0644,-0.01 z"
       transform="scale(0.26458333)"
       id="path1624"
       inkscape:connector-curvature="0" />
    <path
       style="fill:#717174;fill-opacity:1;stroke-width:0.08466666"
       d="m 130.75558,258.01264 v -2.45534 h 0.46566 0.46567 v 2.032 2.032 h 1.27 1.27 v 0.42334 0.42333 h -1.73567 -1.73566 z"
       id="path1620"
       inkscape:connector-curvature="0" />
    <path
       style="fill:#717174;fill-opacity:1;stroke-width:0.31999999"
       d="m 515.95508,965.84766 v 9.29882 9.30079 h 1.74609 1.74805 l 0.0918,-2.64063 0.0937,-2.64062 3.83984,-0.17774 c 4.10143,-0.19162 4.9544,-0.41785 6.28906,-1.66211 3.00015,-2.79685 2.61092,-8.17082 -0.75195,-10.39844 -1.31131,-0.86864 -1.40671,-0.8822 -7.19336,-0.98046 z m 7.96094,3.30664 c 2.65143,0.0565 3.64553,0.65644 4.1914,2.31054 0.32134,0.97395 0.29024,1.32632 -0.20703,2.3418 -0.32198,0.65756 -0.94674,1.37492 -1.38672,1.59375 -1.13076,0.56145 -6.68502,0.54626 -6.90234,-0.0195 -0.0888,-0.23392 -0.12172,-1.70924 -0.0703,-3.2793 l 0.0937,-2.85547 3.03906,-0.084 c 0.44996,-0.0126 0.86341,-0.0159 1.24219,-0.008 z"
       transform="scale(0.26458333)"
       id="path1618"
       inkscape:connector-curvature="0" />
    <path
       style="fill:#717174;fill-opacity:1;stroke-width:0.31999999"
       d="m 534.51367,965.88672 v 9.2793 0.004 9.2793 h 1.91992 1.91993 v -3.03906 -3.03907 l 1.68164,0.0176 1.67968,0.0195 2.5586,3.00782 2.56054,3.00781 2.16016,0.0117 c 1.18802,0.006 2.16016,-0.0754 2.16016,-0.18164 0,-0.10636 -1.15256,-1.4783 -2.56055,-3.04688 -1.40803,-1.56862 -2.55985,-2.95705 -2.55664,-3.08594 0.002,-0.12907 0.56525,-0.46943 1.25195,-0.75781 1.91883,-0.80561 3.02905,-2.70687 3.02149,-5.18359 -0.005,-2.11091 -0.50948,-3.42121 -1.76953,-4.59766 -1.56008,-1.45682 -2.76761,-1.69531 -8.57618,-1.69531 z m 3.83985,3.19922 h 3.17578 c 2.94931,0 3.2457,0.0606 4.16015,0.83008 1.32907,1.11843 1.40468,3.14408 0.16016,4.31445 -0.74442,0.70008 -1.15078,0.78612 -4.16016,0.88476 l -3.33593,0.10938 v -3.06836 z"
       transform="scale(0.26458333)"
       id="path1614"
       inkscape:connector-curvature="0" />
    <path
       style="fill:#717174;fill-opacity:1;stroke-width:0.31999999"
       d="m 574.83398,965.88672 v 9.2793 0.002 9.2793 h 1.75977 1.75977 v -2.69336 -2.69532 l 3.94531,-0.10547 c 3.67869,-0.0989 4.03436,-0.16537 5.27344,-0.98632 4.08196,-2.70444 3.66758,-9.48289 -0.70118,-11.4668 -1.11609,-0.50691 -2.13591,-0.59791 -6.67773,-0.60547 z m 3.51954,3.14258 3.35351,0.10742 c 3.16993,0.10314 3.4022,0.15933 4.24024,0.99805 0.70926,0.70994 0.88671,1.17832 0.88671,2.3457 0,1.24354 -0.1542,1.59668 -1.04492,2.39258 -1.00675,0.89971 -1.16237,0.93359 -4.24023,0.93359 h -3.19531 v -3.38867 z"
       transform="scale(0.26458333)"
       id="path1610"
       inkscape:connector-curvature="0" />
    <path
       style="fill:#717174;fill-opacity:1;stroke-width:0.08466666"
       d="m 156.91757,258.01284 v -2.45534 h 1.86267 1.86267 v 0.42124 0.42124 l -1.37584,0.0233 -1.37583,0.0233 v 0.55034 0.55033 l 1.3335,0.0233 1.3335,0.0233 v 0.41904 0.41903 l -1.3335,0.0233 -1.3335,0.0233 v 0.55034 0.55033 l 1.37583,0.0233 1.37584,0.0233 v 0.42123 0.42124 h -1.86267 -1.86267 z"
       id="path1606"
       inkscape:connector-curvature="0" />
    <path
       style="fill:#717174;fill-opacity:1;stroke-width:0.31999999"
       d="m 610.35352,965.88672 v 9.2793 0.002 9.28125 h 1.76171 1.75977 v -3.04102 -3.03906 h 1.74609 1.74805 l 2.65234,3.03516 2.65235,3.0332 2.16015,0.004 c 1.18799,0.003 2.16016,-0.0826 2.16016,-0.19141 0,-0.10889 -1.15256,-1.45968 -2.56055,-3.00195 -1.40802,-1.54228 -2.55456,-2.92934 -2.55078,-3.08203 0.005,-0.15285 0.57845,-0.54203 1.27539,-0.86329 1.72872,-0.79695 2.64016,-2.17533 2.8125,-4.25195 0.28101,-3.38819 -0.7262,-5.40101 -3.2832,-6.5625 -1.09228,-0.49618 -2.15023,-0.58619 -6.8125,-0.59375 z m 3.52148,3.19922 h 3.33398 c 3.12148,0 3.39891,0.0548 4.32032,0.83008 1.27778,1.07523 1.36795,2.84951 0.21289,4.19336 -0.73905,0.85984 -0.91163,0.90148 -4.08008,1.0039 -1.81954,0.0586 -3.41497,-9.1e-4 -3.54688,-0.13281 -0.1319,-0.13206 -0.24023,-1.51174 -0.24023,-3.06641 z"
       transform="scale(0.26458333)"
       id="path1604"
       inkscape:connector-curvature="0" />
    <path
       style="fill:#717174;fill-opacity:1;stroke-width:0.08466666"
       d="m 167.92424,258.43935 v -2.02882 l -0.78317,-0.0243 -0.78316,-0.0243 -0.0258,-0.40217 -0.0258,-0.40217 h 2.07898 2.07897 v 0.42334 0.42333 h -0.80433 -0.80434 v 2.032 2.032 h -0.46566 -0.46567 z"
       id="path1600"
       inkscape:connector-curvature="0" />
    <path
       style="fill:#717174;fill-opacity:1;stroke-width:0.08466666"
       d="m 173.00424,259.43055 v -1.03762 l -0.78979,-1.18488 c -0.43438,-0.65168 -0.85787,-1.28965 -0.94107,-1.41771 l -0.15128,-0.23284 0.58124,5.1e-4 0.58123,5.1e-4 0.59222,0.97318 c 0.32572,0.53525 0.61449,0.97318 0.64169,0.97318 0.0272,0 0.32756,-0.43815 0.66745,-0.97367 l 0.61798,-0.97367 h 0.58604 c 0.45906,0 0.57137,0.0239 0.51833,0.11004 -0.0372,0.0605 -0.47728,0.70474 -0.97787,1.43159 l -0.91017,1.32155 v 1.02375 1.02374 h -0.508 -0.508 v -1.03762 z"
       id="path1598"
       inkscape:connector-curvature="0" />
    <path
       style="fill:#717174;fill-opacity:1;stroke-width:0.08466666"
       d="m 183.7569,258.01284 v -2.45534 h 1.778 1.778 v 0.42334 0.42333 h -1.31233 -1.31233 v 0.67733 0.67734 h 1.22766 1.22767 v 0.46566 0.46567 h -1.22767 -1.22766 v 0.889 0.889 h -0.46567 -0.46567 z"
       id="path1596"
       inkscape:connector-curvature="0" />
    <path
       style="fill:#717174;fill-opacity:1;stroke-width:0.08466666"
       d="m 188.0749,258.01284 v -2.45534 h 1.778 1.778 v 0.42334 0.42333 h -1.31233 -1.31233 v 0.67733 0.67734 h 1.22766 1.22767 v 0.46566 0.46567 h -1.22767 -1.22766 v 0.889 0.889 h -0.46567 -0.46567 z"
       id="path1594"
       inkscape:connector-curvature="0" />
    <path
       style="fill:#717174;fill-opacity:1;stroke-width:0.08466666"
       d="m 192.47757,258.01284 v -2.45534 h 0.46567 0.46566 v 2.45534 2.45533 h -0.46566 -0.46567 z"
       id="path1592"
       inkscape:connector-curvature="0" />
    <path
       style="fill:#717174;fill-opacity:1;stroke-width:0.08466666"
       d="m 199.42024,258.01284 v -2.45534 h 1.86266 1.86267 v 0.42334 0.42333 h -1.397 -1.397 v 0.59267 0.59266 h 1.31233 1.31234 v 0.42334 0.42333 h -1.31234 -1.31233 v 0.59267 0.59266 h 1.397 1.397 v 0.42334 0.42333 h -1.86267 -1.86266 z"
       id="path1590"
       inkscape:connector-curvature="0" />
    <path
       style="fill:#ebc14a;fill-opacity:1;stroke-width:0.08466666"
       d="m 34.320246,257.18208 c 0,-0.0361 0.17145,-0.57679 0.381,-1.20156 0.20955,-0.62477 0.381,-1.15889 0.381,-1.18693 0,-0.028 -0.466725,-0.39157 -1.037167,-0.80786 l -1.037166,-0.75688 1.296341,-0.0423 1.296342,-0.0423 0.385621,-1.17953 0.385621,-1.17953 0.202053,0.6292 c 0.111129,0.34606 0.279784,0.88637 0.374789,1.2007 l 0.172736,0.5715 h 1.323797 1.323797 l -1.031049,0.77139 c -0.603325,0.45139 -1.031048,0.83043 -1.031048,0.91369 0,0.0783 0.169095,0.64646 0.375766,1.26265 l 0.375768,1.12035 -0.269934,-0.18805 c -0.215789,-0.15033 -1.254618,-0.91768 -1.716371,-1.26783 -0.05598,-0.0425 -0.493485,0.22652 -1.121833,0.68969 -0.566534,0.41761 -1.030063,0.72976 -1.030063,0.69367 z"
       id="path1588"
       inkscape:connector-curvature="0" />
    <path
       style="fill:#ebc14a;fill-opacity:1;stroke-width:0.08466666"
       d="m 55.091397,257.04615 c 0.126118,-0.32867 0.732868,-2.27999 0.713819,-2.29567 -0.01208,-0.01 -0.493911,-0.36591 -1.070726,-0.79103 l -1.048755,-0.77293 h 1.318998 1.318998 l 0.357778,-1.143 c 0.196777,-0.62865 0.379968,-1.14299 0.40709,-1.14297 0.02712,2e-5 0.206578,0.50484 0.398792,1.12183 l 0.349478,1.1218 1.295158,0.0423 1.295158,0.0423 -1.009638,0.75359 c -0.555299,0.41448 -1.018705,0.76009 -1.029788,0.76804 -0.01109,0.008 0.148839,0.54396 0.355386,1.19114 0.206547,0.64717 0.360868,1.19135 0.342937,1.20928 -0.01793,0.0179 -0.47313,-0.29499 -1.011551,-0.69538 l -0.978948,-0.72799 -0.971926,0.71916 c -0.534559,0.39554 -0.995837,0.71916 -1.025061,0.71916 -0.02922,0 -0.03246,-0.0539 -0.0072,-0.1197 z"
       id="path1586"
       inkscape:connector-curvature="0" />
    <path
       style="fill:#717174;fill-opacity:1;stroke-width:0.08466666"
       d="m 86.91702,252.80808 c -0.5262,-0.16431 -0.902342,-0.48743 -1.153025,-0.99049 -0.21621,-0.43387 -0.220419,-0.47596 -0.220419,-2.2037 v -1.76137 h 0.465666 0.465667 v 1.68081 c 0,1.6065 0.0085,1.69353 0.192187,1.9685 0.53288,0.79767 1.68505,0.74356 2.114848,-0.0993 0.125739,-0.24659 0.148055,-0.53579 0.148167,-1.92015 l 1.31e-4,-1.62983 h 0.471587 0.471586 l -0.02709,1.8415 c -0.02526,1.71704 -0.03991,1.86549 -0.216805,2.19643 -0.456191,0.85345 -1.637863,1.2532 -2.712504,0.91763 z"
       id="path1584"
       inkscape:connector-curvature="0" />
    <path
       style="fill:#717174;fill-opacity:1;stroke-width:0.31999999"
       d="m 371.23633,936.4375 c -1.92589,-0.0136 -3.92726,0.36252 -5.125,1.06445 -1.97301,1.15627 -3.67061,3.21519 -4.24414,5.14649 -0.62805,2.11483 -0.59841,5.47061 0.0645,7.41601 0.7311,2.14564 3.31977,4.72369 5.41992,5.39649 1.07375,0.34424 2.38603,0.46319 4.19336,0.3789 2.18604,-0.10182 2.91694,-0.284 4.32031,-1.07226 3.2591,-1.83062 4.9498,-5.24775 4.65235,-9.40625 -0.29012,-4.05472 -2.63739,-7.31942 -6.08594,-8.46485 -0.91111,-0.30261 -2.03978,-0.4508 -3.19531,-0.45898 z m -0.006,3.26562 c 1.80417,0.0595 3.5551,0.75653 4.4668,2.06446 2.65554,3.80965 1.23543,9.30083 -2.75,10.63281 -2.01272,0.67272 -4.70927,0.18249 -6.17969,-1.125 -2.29307,-2.03894 -2.46879,-7.43669 -0.32031,-9.8125 1.12212,-1.24087 2.97903,-1.81925 4.7832,-1.75977 z"
       transform="scale(0.26458333)"
       id="path1582"
       inkscape:connector-curvature="0" />
    <path
       style="fill:#717174;fill-opacity:1;stroke-width:0.08466666"
       d="m 124.60596,252.81706 c -0.5197,-0.17077 -0.92751,-0.52244 -1.16991,-1.00888 -0.21051,-0.42242 -0.21581,-0.47634 -0.21581,-2.19444 v -1.76137 h 0.46567 0.46567 v 1.68081 c 0,1.6065 0.008,1.69353 0.19218,1.9685 0.53288,0.79767 1.68505,0.74356 2.11485,-0.0993 0.12574,-0.24659 0.14805,-0.53579 0.14816,-1.92015 v -1.62983 h 0.47159 0.47158 l -0.0271,1.8415 c -0.029,1.96875 -0.0594,2.12184 -0.52383,2.6329 -0.45708,0.50301 -1.62579,0.74244 -2.3932,0.49029 z"
       id="path1578"
       inkscape:connector-curvature="0" />
    <path
       style="fill:#717174;fill-opacity:1;stroke-width:0.31999999"
       d="m 522.38672,936.44727 c -2.62163,0.002 -4.03691,0.38379 -5.78906,1.56054 -3.82957,2.57193 -5.15728,8.42844 -2.9336,12.94531 1.14342,2.32264 2.55596,3.57789 5.00782,4.45508 2.38578,0.85357 5.93254,0.62037 8.32226,-0.54882 6.01172,-2.94127 6.59738,-12.97242 0.98047,-16.78907 -1.82491,-1.23998 -3.15157,-1.62493 -5.58789,-1.62304 z m -0.0918,3.21289 c 0.88803,0.0172 1.77507,0.15717 2.39453,0.41601 1.36774,0.57143 2.98858,2.45492 3.40625,3.95899 0.96295,3.46752 -0.39331,6.76418 -3.34179,8.125 -1.50966,0.6969 -3.05351,0.74217 -4.74024,0.14062 -2.14605,-0.76539 -3.43495,-2.49168 -3.88672,-5.20508 -0.47089,-2.82788 1.30666,-6.18353 3.76758,-7.11132 0.62283,-0.23488 1.51236,-0.34138 2.40039,-0.32422 z"
       transform="scale(0.26458333)"
       id="path1576"
       inkscape:connector-curvature="0" />
    <path
       style="fill:#717174;fill-opacity:1;stroke-width:0.08466666"
       d="m 80.971576,250.34999 v -2.49766 h 1.862667 1.862666 v 0.46566 0.46567 h -1.397 -1.397 v 0.55033 0.55034 h 1.354667 1.354666 v 0.42333 0.42333 h -1.354666 -1.354667 v 0.59267 0.59267 h 1.397 1.397 v 0.46566 0.46567 h -1.862666 -1.862667 z"
       id="path1572"
       inkscape:connector-curvature="0" />
    <path
       style="fill:#717174;fill-opacity:1;stroke-width:0.31999999"
       d="m 343.47461,936.76562 v 9.22657 c 0,5.07466 0.0955,9.32229 0.21289,9.43945 0.11733,0.11717 0.90376,0.21289 1.74805,0.21289 h 1.53515 l 0.0918,-3.11914 0.0918,-3.12109 1.64648,-0.0957 1.64649,-0.0957 2.80468,3.2168 2.80664,3.21484 h 2.02735 c 1.1411,0 2.02929,-0.14003 2.02929,-0.32031 0,-0.17632 -1.2229,-1.67409 -2.71679,-3.32813 l -2.7168,-3.00781 1.5,-0.75195 c 1.81645,-0.91102 2.56462,-1.88697 2.90625,-3.79102 0.56189,-3.13187 -0.64775,-5.75943 -3.22656,-7.00781 -1.247,-0.60359 -1.95448,-0.67188 -6.88867,-0.67188 z m 3.67969,3.35938 h 3.46875 c 3.40377,0 3.48303,0.0173 4.24023,0.89844 1.1549,1.34392 1.06487,3.11819 -0.21289,4.19336 -0.91491,0.76985 -1.20976,0.82812 -4.16992,0.82812 -2.3654,0 -3.22757,-0.10987 -3.34961,-0.42773 -0.0904,-0.23554 -0.12224,-1.56852 -0.0703,-2.96094 z"
       transform="scale(0.26458333)"
       id="path1570"
       inkscape:connector-curvature="0" />
    <path
       style="fill:#717174;fill-opacity:1;stroke-width:0.31999999"
       d="m 383.47461,936.72461 v 9.24609 c 0,5.08558 0.10146,9.34951 0.22656,9.47461 0.12522,0.12586 0.95309,0.18655 1.83985,0.13477 l 1.61328,-0.0957 0.0918,-2.77344 0.0918,-2.77539 3.96289,-0.10547 c 3.80769,-0.10171 4.01348,-0.1418 5.31836,-1.06446 1.85076,-1.30862 2.69285,-3.01827 2.67774,-5.4414 -0.0144,-2.44573 -0.95257,-4.31983 -2.76368,-5.51953 -1.3113,-0.86865 -1.40675,-0.8822 -7.19336,-0.98047 z m 3.83984,3.24023 h 2.73047 c 3.45687,0 4.7964,0.51575 5.45899,2.10157 0.6319,1.51237 0.33918,2.78724 -0.87696,3.81054 -0.88652,0.74589 -1.20739,0.8086 -4.13672,0.8086 h -3.17578 v -3.36133 z"
       transform="scale(0.26458333)"
       id="path1566"
       inkscape:connector-curvature="0" />
    <path
       style="fill:#717174;fill-opacity:1;stroke-width:0.08466666"
       d="m 106.42802,252.79122 c -0.031,-0.031 -0.0564,-1.155 -0.0564,-2.49767 v -2.44122 h 1.86266 1.86267 v 0.46566 0.46567 h -1.397 -1.397 v 0.55033 0.55034 h 1.35467 1.35466 v 0.42118 0.42118 l -1.3335,0.0233 -1.3335,0.0233 v 0.55033 0.55033 l 1.37584,0.0233 1.37583,0.0233 v 0.46357 0.46357 h -1.80622 c -0.99343,0 -1.83162,-0.0254 -1.86267,-0.0564 z"
       id="path1562"
       inkscape:connector-curvature="0" />
    <path
       style="fill:#717174;fill-opacity:1;stroke-width:0.31999999"
       d="m 425.80078,936.76562 -3.76562,8.39844 c -2.07187,4.61998 -3.96634,8.86942 -4.20899,9.44141 l -0.4414,1.03906 h 1.94335 1.94141 l 0.7793,-1.75976 0.77734,-1.75977 h 4.96875 4.9668 l 0.7793,1.75977 0.77734,1.75976 h 1.97266 c 1.45141,0 1.92878,-0.10596 1.80859,-0.40039 -0.0898,-0.22001 -1.99658,-4.46745 -4.23633,-9.43945 l -4.07226,-9.03907 h -1.99414 z m 2.02344,4.24219 c 0.13141,0.13142 3.33008,7.30901 3.33008,7.47266 0,0.0684 -1.52406,0.125 -3.38672,0.125 -1.8627,0 -3.33788,-0.12011 -3.2793,-0.26563 0.86113,-2.13486 3.25997,-7.408 3.33594,-7.33203 z"
       transform="scale(0.26458333)"
       id="path1560"
       inkscape:connector-curvature="0" />
    <path
       style="fill:#717174;fill-opacity:1;stroke-width:0.08466666"
       d="m 116.53158,250.34999 v -2.49766 l 0.40216,0.002 0.40217,0.002 1.10067,1.40205 c 0.60536,0.77112 1.14829,1.44183 1.2065,1.49046 0.084,0.0702 0.10583,-0.21928 0.10583,-1.40362 v -1.49204 h 0.46567 0.46566 v 2.49766 2.49767 h -0.29019 c -0.27685,0 -0.34989,-0.0769 -1.5875,-1.6705 l -1.29731,-1.67051 -0.023,1.67051 -0.023,1.6705 h -0.46387 -0.46388 z"
       id="path1556"
       inkscape:connector-curvature="0" />
    <path
       style="fill:#717174;fill-opacity:1;stroke-width:0.08466666"
       d="m 128.63891,250.34999 v -2.49766 l 0.40217,5.1e-4 0.40216,5e-4 1.18534,1.50231 1.18533,1.5023 0.0231,-1.50282 0.0231,-1.50282 h 0.46371 0.46372 v 2.49767 2.49766 h -0.2902 c -0.27684,0 -0.34988,-0.0769 -1.5875,-1.6705 l -1.2973,-1.67051 -0.023,1.67051 -0.023,1.6705 h -0.46387 -0.46388 v -2.49766 z"
       id="path1554"
       inkscape:connector-curvature="0" />
    <path
       style="fill:#717174;fill-opacity:1;stroke-width:0.08466666"
       d="m 133.80358,250.35399 v -2.50209 h 0.46694 0.46695 l -0.0224,2.4765 -0.0224,2.4765 -0.4445,0.0256 -0.4445,0.0256 z"
       id="path1552"
       inkscape:connector-curvature="0" />
    <path
       style="fill:#717174;fill-opacity:1;stroke-width:0.08466666"
       d="m 141.59291,250.34999 v -2.49766 l 0.40216,0.004 0.40217,0.004 1.18533,1.49905 1.18534,1.49905 0.0231,-1.50283 0.0231,-1.50284 h 0.46372 0.46371 v 2.49767 2.49767 h -0.29285 c -0.28014,0 -0.34906,-0.0722 -1.5875,-1.66282 l -1.29465,-1.66282 -0.023,1.66282 -0.023,1.66282 h -0.46387 -0.46388 v -2.49767 z"
       id="path1550"
       inkscape:connector-curvature="0" />
    <path
       style="fill:#ebc14a;fill-opacity:1;stroke-width:0.08466666"
       d="m 26.37562,249.62865 c 0.226021,-0.60219 0.774854,-2.3693 0.744378,-2.39672 -0.02131,-0.0192 -0.509357,-0.38171 -1.084541,-0.80562 l -1.04579,-0.77074 1.339148,-0.0234 1.339149,-0.0234 0.344596,-1.0754 c 0.189528,-0.59147 0.365427,-1.09623 0.390887,-1.12169 0.02546,-0.0255 0.208454,0.46705 0.406655,1.09446 l 0.360365,1.14074 1.309512,0.0233 1.309512,0.0233 -1.020623,0.75874 c -0.561342,0.4173 -1.020622,0.81894 -1.020622,0.89252 0,0.0736 0.169043,0.63779 0.37565,1.25379 0.206608,0.616 0.330433,1.09326 0.275167,1.06058 -0.05527,-0.0327 -0.505788,-0.35729 -1.001161,-0.72136 -0.495373,-0.36407 -0.937367,-0.66194 -0.982207,-0.66194 -0.04484,0 -0.325336,0.18239 -0.623322,0.40532 -1.141873,0.85423 -1.462146,1.06842 -1.416753,0.94748 z"
       id="path1548"
       inkscape:connector-curvature="0" />
    <path
       style="fill:#ebc14a;fill-opacity:1;stroke-width:0.08466666"
       d="m 62.852911,249.69385 c 0,-0.0154 0.17145,-0.5392 0.381,-1.16397 0.20955,-0.62477 0.381,-1.17844 0.381,-1.23038 0,-0.0519 -0.465532,-0.43453 -1.034517,-0.8502 l -1.034516,-0.75575 1.30731,-0.0423 1.30731,-0.0423 0.375806,-1.18533 0.375806,-1.18534 0.381045,1.20442 0.381046,1.20442 1.294723,0.0233 1.294723,0.0232 -1.012035,0.76163 c -0.556619,0.41889 -1.011698,0.79989 -1.011286,0.84666 4.23e-4,0.0468 0.167454,0.60893 0.371206,1.24923 l 0.370458,1.16419 -0.434706,-0.31438 c -0.239089,-0.17291 -0.700425,-0.51325 -1.025192,-0.75633 l -0.590484,-0.44194 -0.425516,0.30569 c -0.234033,0.16813 -0.70174,0.50997 -1.039348,0.75964 -0.337608,0.24967 -0.613833,0.44133 -0.613833,0.42591 z"
       id="path1546"
       inkscape:connector-curvature="0" />
    <path
       style="fill:#0c4da2;fill-opacity:1;stroke-width:0.31999999"
       d="m 158.42773,849.41406 c -11.20861,-0.01 -21.69236,0.0825 -21.8164,0.28321 -0.0993,0.16059 -0.0828,17.94413 0.0351,39.51953 l 0.2129,39.22851 h 7.125 7.12304 l 1.04492,-1.83984 c 1.36687,-2.40843 4.13448,-5.10228 6.57618,-6.40039 1.07589,-0.572 2.08637,-1.03906 2.24609,-1.03906 0.15973,0 2.51475,2.08596 5.23437,4.63476 l 4.94532,4.63281 24.16015,-0.0137 c 21.05371,-0.0128 24.03579,-0.0731 23.19922,-0.4668 -0.528,-0.24854 -2.47231,-1.11887 -4.32031,-1.93359 -5.53067,-2.43836 -12.03003,-7.00131 -16.06055,-11.27539 -3.15825,-3.34908 -3.17515,-3.4101 -1.14453,-4.26953 7.07149,-2.99282 14.80743,-8.37961 18.49219,-12.87891 4.09882,-5.00489 6.05517,-11.36964 5.64844,-18.36914 -0.20263,-3.48695 -0.82652,-6.39879 -2.10743,-9.82422 -4.54958,-12.16667 -15.44049,-18.38707 -34.42773,-19.66406 -3.02417,-0.20353 -14.9574,-0.31471 -26.16602,-0.32422 z m 12.35743,10.87891 c 2.07457,-0.0242 4.14477,0.13706 5.64843,0.49023 8.01525,1.88259 14.86741,8.60923 16.9961,16.68555 0.83969,3.1858 0.90955,8.28548 0.15625,11.45703 -1.8503,7.79017 -7.94692,14.25646 -15.8711,16.83399 -3.0176,0.98135 -9.21028,1.14029 -12.44531,0.31835 -4.09018,-1.03921 -7.49624,-3.00058 -10.59961,-6.10546 -4.53104,-4.53328 -6.61848,-9.10751 -6.94726,-15.22071 -0.60053,-11.16559 6.63688,-21.08557 17.39062,-23.83593 1.51859,-0.38839 3.5973,-0.59888 5.67188,-0.62305 z"
       transform="scale(0.26458333)"
       id="path1544"
       inkscape:connector-curvature="0" />
    <path
       style="fill:#ebc14a;fill-opacity:1;stroke-width:0.08466666"
       d="m 44.476063,238.62188 c -1.904953,-0.2934 -3.601134,-1.86566 -4.054196,-3.75801 -0.137529,-0.57443 -0.120467,-1.77248 0.03358,-2.35777 0.47396,-1.80078 1.94929,-3.18891 3.794284,-3.57 0.797608,-0.16475 1.20493,-0.16604 1.966183,-0.006 0.932999,0.19589 1.759548,0.64974 2.451849,1.34628 0.69228,0.69652 1.080843,1.37528 1.317897,2.30215 0.396858,1.5517 0.0128,3.13004 -1.073271,4.41073 -1.001247,1.18066 -2.880739,1.87243 -4.436324,1.63284 z"
       id="path1540"
       inkscape:connector-curvature="0" />
    <path
       style="fill:#0c4da2;fill-opacity:1;stroke-width:0.08466666"
       d="m 80.886909,235.95685 v -9.18633 h 9.186333 9.186335 v 2.62467 2.62466 h -6.519335 -6.519333 v 0.93134 0.93133 h 3.937 3.936999 v 2.07433 2.07434 h -3.936999 -3.937 v 0.889 0.889 h 6.519333 6.519335 v 2.66699 2.667 h -9.186335 -9.186333 z"
       id="path1538"
       inkscape:connector-curvature="0" />
    <path
       style="fill:#0c4da2;fill-opacity:1;stroke-width:0.08466666"
       d="m 109.46191,245.04774 c -3.70386,-0.46265 -6.82047,-3.21838 -7.7479,-6.85075 -0.28249,-1.1064 -0.33188,-2.12671 -0.33491,-6.91797 l -0.003,-4.5085 h 2.667 2.667 v 4.80821 c 0,4.04669 0.0206,4.88713 0.12979,5.3065 0.29836,1.1455 1.04573,2.04926 2.11425,2.55671 1.49826,0.71151 3.27115,0.38012 4.43709,-0.82938 0.4523,-0.46919 0.91809,-1.40699 1.02468,-2.06304 0.0464,-0.28539 0.0828,-2.53928 0.083,-5.1435 l 4.9e-4,-4.6355 h 2.62466 2.62467 v 5.02658 c 0,4.04027 -0.0244,5.1658 -0.12427,5.73616 -0.83849,4.78777 -5.34073,8.11679 -10.16273,7.51448 z"
       id="path1536"
       inkscape:connector-curvature="0" />
    <path
       style="fill:#717174;fill-opacity:1;stroke-width:0.08466666"
       d="m 124.03869,245.08674 c -0.0311,-0.031 -0.0565,-4.16489 -0.0565,-9.18633 v -9.12989 h 2.62467 2.62467 v 9.18633 9.18633 h -2.56822 c -1.41253,0 -2.59363,-0.0254 -2.62467,-0.0564 z"
       id="path1534"
       inkscape:connector-curvature="0" />
    <path
       style="fill:#717174;fill-opacity:1;stroke-width:0.31999999"
       d="m 496.43359,857.05859 v 34.73243 l 0.002,0.002 v 34.73242 h 9.91992 9.91992 v -7.95312 -7.95313 l 12.88086,-0.19141 c 10.15684,-0.1511 13.38172,-0.30194 15.25977,-0.71289 9.99583,-2.18721 17.80355,-9.83039 20.18359,-19.75781 0.85421,-3.56727 0.85817,-9.04103 0.008,-12.58789 -2.22867,-9.2956 -8.91138,-16.25312 -18.47461,-19.23437 l -2.81836,-0.87891 -23.43945,-0.0977 z m 19.52149,18.26563 11.59961,0.008 c 10.53513,0.006 11.7164,0.0619 12.8789,0.5918 6.67159,3.04123 6.86644,12.01126 0.33594,15.50781 -1.24966,0.66905 -1.70076,0.69565 -13.05469,0.78711 l -11.75976,0.0957 v -8.49414 z"
       transform="scale(0.26458333)"
       id="path1532"
       inkscape:connector-curvature="0" />
    <path
       style="fill:#717174;fill-opacity:1;stroke-width:0.31999999"
       d="m 606.98828,857.15625 c -12.51857,-0.22379 -24.97186,6.24522 -31.33398,18.49805 -8.48637,16.34385 -2.85763,36.47805 12.77929,45.70898 4.92662,2.90831 9.49808,4.40223 14.72071,4.8125 10.56268,0.82976 19.83897,-2.46173 27.27734,-9.67969 13.79539,-13.38659 13.98226,-35.58717 0.41406,-49.1875 -6.6966,-6.71246 -15.29208,-9.99922 -23.85742,-10.15234 z m -0.61133,18.17773 c 4.65699,-0.0141 8.42516,1.62235 11.8086,5.12696 6.32058,6.54678 6.18103,16.43225 -0.32422,22.9375 -2.24398,2.24398 -5.51309,4.01246 -8.43164,4.5625 -5.35707,1.00966 -10.33685,-0.49244 -14.42774,-4.35156 -3.46238,-3.26627 -5.13256,-7.10348 -5.125,-11.78126 0.007,-4.75944 1.50181,-8.40653 4.79688,-11.70507 3.34756,-3.35112 6.82787,-4.77395 11.70312,-4.78907 z"
       transform="scale(0.26458333)"
       id="path1528"
       inkscape:connector-curvature="0" />
    <path
       style="fill:#ebc14a;fill-opacity:1;stroke-width:0.08466666"
       d="m 23.910652,238.06037 c 0.229339,-0.68458 0.407893,-1.25121 0.396787,-1.25918 -0.01111,-0.008 -0.474454,-0.35361 -1.029663,-0.76808 l -1.00947,-0.75359 1.267675,-0.0233 1.267674,-0.0233 0.373283,-1.14089 c 0.205306,-0.62749 0.393914,-1.14047 0.41913,-1.13995 0.02522,5e-4 0.2018,0.50533 0.392411,1.12183 l 0.346566,1.1209 1.288073,0.0423 1.288073,0.0423 -1.018378,0.75693 c -0.93141,0.6923 -1.013799,0.77544 -0.964763,0.97367 0.02949,0.1192 0.199496,0.65206 0.377795,1.18412 0.1783,0.53206 0.308797,0.98277 0.289993,1.00158 -0.0188,0.0188 -0.478918,-0.29489 -1.022478,-0.69709 l -0.988292,-0.73127 -0.77591,0.57989 c -0.426751,0.31894 -0.897315,0.6649 -1.045698,0.7688 l -0.269787,0.1889 z"
       id="path1524"
       inkscape:connector-curvature="0" />
    <path
       style="fill:#ebc14a;fill-opacity:1;stroke-width:0.08466666"
       d="m 65.989982,238.06037 c 0.229339,-0.68458 0.407894,-1.25121 0.396787,-1.25918 -0.01111,-0.008 -0.474454,-0.35361 -1.029662,-0.76808 l -1.009471,-0.75359 1.267675,-0.0233 1.267674,-0.0233 0.373284,-1.14089 c 0.205305,-0.62749 0.393914,-1.14026 0.419128,-1.13949 0.02522,7.6e-4 0.203971,0.50559 0.397234,1.12183 l 0.351387,1.12044 1.29325,0.0423 1.293249,0.0423 -1.009637,0.75359 c -0.5553,0.41447 -1.018705,0.76009 -1.029789,0.76804 -0.01108,0.008 0.14884,0.54396 0.355387,1.19113 0.206547,0.64718 0.362271,1.18996 0.346054,1.20617 -0.01622,0.0162 -0.47414,-0.29953 -1.017606,-0.70166 l -0.988119,-0.73114 -0.777114,0.58079 c -0.427414,0.31944 -0.89852,0.66581 -1.046903,0.76971 l -0.269787,0.1889 z"
       id="path1522"
       inkscape:connector-curvature="0" />
    <path
       style="fill:#ebc14a;fill-opacity:1;stroke-width:0.08466666"
       d="m 29.578913,228.24735 c -0.395817,-0.29831 -0.858766,-0.64089 -1.028777,-0.7613 l -0.309111,-0.21893 -0.989424,0.73211 c -0.544184,0.40266 -1.002771,0.71876 -1.019084,0.70245 -0.01631,-0.0163 0.13906,-0.54322 0.345272,-1.17091 0.206211,-0.62769 0.375273,-1.1656 0.375694,-1.19536 4.23e-4,-0.0298 -0.461843,-0.40021 -1.027251,-0.82323 l -1.028014,-0.76912 1.287122,-0.0234 1.287122,-0.0234 0.390201,-1.18534 0.390201,-1.18533 0.38053,1.20437 0.380529,1.20437 1.270799,0.0233 1.270799,0.0233 -0.988304,0.74215 c -0.543567,0.40818 -0.988304,0.79156 -0.988304,0.85195 0,0.0604 0.115382,0.45033 0.256403,0.86652 0.272375,0.80385 0.507396,1.56526 0.479867,1.55465 -0.0091,-0.004 -0.340453,-0.25047 -0.73627,-0.54877 z"
       id="path1520"
       inkscape:connector-curvature="0" />
    <path
       style="fill:#ebc14a;fill-opacity:1;stroke-width:0.08466666"
       d="m 63.278845,227.56709 c 0.230331,-0.68754 0.409698,-1.2566 0.398591,-1.26457 -0.01111,-0.008 -0.474454,-0.3536 -1.029662,-0.76808 l -1.009471,-0.75359 1.267675,-0.0233 1.267674,-0.0233 0.373106,-1.14034 c 0.205208,-0.62719 0.399859,-1.11201 0.432558,-1.07739 0.0327,0.0346 0.210473,0.53921 0.395055,1.12129 l 0.335603,1.05834 1.285607,0.0423 1.285607,0.0423 -1.020805,0.75874 c -0.561444,0.41731 -1.020806,0.78084 -1.020806,0.80786 0,0.027 0.171051,0.55911 0.380114,1.18243 0.209062,0.62331 0.365242,1.14817 0.347068,1.16635 -0.01818,0.0182 -0.476651,-0.2952 -1.018834,-0.69638 l -0.985788,-0.72942 -0.779447,0.5692 c -0.428695,0.31306 -0.901662,0.66107 -1.051038,0.77336 l -0.271591,0.20417 z"
       id="path1518"
       inkscape:connector-curvature="0" />
    <path
       style="fill:#ebc14a;fill-opacity:1;stroke-width:0.08466666"
       d="m 56.079578,220.7387 c 0,-0.0159 0.17145,-0.54007 0.381,-1.16485 0.20955,-0.62477 0.381,-1.16551 0.381,-1.20165 0,-0.0361 -0.444743,-0.39968 -0.988318,-0.80786 l -0.988316,-0.74215 1.236038,-0.0234 1.236039,-0.0234 0.404139,-1.20427 0.404139,-1.20428 0.381131,1.20439 0.381131,1.20439 1.257236,0.0233 1.257236,0.0233 -0.975029,0.71966 c -0.536266,0.39582 -0.976318,0.77841 -0.977895,0.8502 -0.0016,0.0718 0.165922,0.63376 0.372219,1.24883 0.206295,0.61507 0.359003,1.11831 0.33935,1.11831 -0.01965,0 -0.473405,-0.32385 -1.008339,-0.71967 -0.534935,-0.39582 -0.997027,-0.71967 -1.026872,-0.71967 -0.02985,0 -0.456584,0.29528 -0.94831,0.65617 -0.933505,0.68513 -1.117579,0.81075 -1.117579,0.76268 z"
       id="path1516"
       inkscape:connector-curvature="0" />
    <path
       style="fill:#ebc14a;fill-opacity:1;stroke-width:0.08466666"
       d="m 32.966343,220.61052 c 4.24e-4,-0.0346 0.169427,-0.57639 0.375569,-1.20387 0.230937,-0.70295 0.345758,-1.17587 0.299131,-1.23205 -0.04162,-0.0501 -0.517586,-0.41306 -1.057702,-0.80646 l -0.982028,-0.71529 1.31505,-0.0233 1.31505,-0.0233 0.35628,-1.14226 c 0.195954,-0.62825 0.384051,-1.11306 0.417993,-1.07736 0.03394,0.0357 0.210914,0.54115 0.39327,1.12323 l 0.331556,1.05834 1.337185,0.0234 1.337185,0.0234 -1.075212,0.80864 c -0.591366,0.44476 -1.058812,0.85334 -1.038767,0.90797 0.21581,0.58815 0.749314,2.27548 0.726296,2.29707 -0.01647,0.0155 -0.458733,-0.29174 -0.982798,-0.68265 -0.524064,-0.39092 -0.993753,-0.71076 -1.043753,-0.71076 -0.05,0 -0.526095,0.32362 -1.057989,0.71916 -0.531894,0.39554 -0.966736,0.69082 -0.966316,0.65617 z"
       id="path1514"
       inkscape:connector-curvature="0" />
    <path
       style="fill:#ebc14a;fill-opacity:1;stroke-width:0.08466666"
       d="m 44.480245,217.77616 c 0,-0.0163 0.17145,-0.54087 0.381,-1.16564 0.20955,-0.62477 0.379964,-1.17564 0.378697,-1.22414 -0.0013,-0.0485 -0.448942,-0.41204 -0.994834,-0.80786 l -0.992529,-0.71967 1.24252,-0.0234 1.24252,-0.0234 0.409187,-1.22756 0.409186,-1.22757 0.378285,1.22769 0.378285,1.22769 1.255069,0.0233 1.25507,0.0233 -0.975029,0.71967 c -0.536266,0.39582 -0.976319,0.7639 -0.977895,0.81797 -0.0016,0.0541 0.163874,0.61538 0.367666,1.24736 0.203792,0.63198 0.327617,1.12489 0.275166,1.09535 -0.05245,-0.0295 -0.499602,-0.35272 -0.99367,-0.71819 -0.494068,-0.36547 -0.927088,-0.66449 -0.962265,-0.66449 -0.03518,0 -0.46914,0.29713 -0.96436,0.66028 -0.950448,0.69698 -1.112069,0.80734 -1.112069,0.75936 z"
       id="path1510"
       inkscape:connector-curvature="0" />
  </g>
</svg>
