<svg xmlns="http://www.w3.org/2000/svg" width="57.898" height="82" viewBox="0 0 57.898 82"><g transform="translate(-75.247)"><path d="M158.421,195.239a1.6,1.6,0,0,0-1.6,1.6v39.593H118v-3.2a1.6,1.6,0,0,0-3.2,0v4.805a1.6,1.6,0,0,0,1.6,1.6h42.028a1.6,1.6,0,0,0,1.6-1.6V196.841A1.6,1.6,0,0,0,158.421,195.239Z" transform="translate(-33.212 -163.97)" fill="#fff" fill-rule="evenodd"/><path d="M131.543,7.318H117.38a8.682,8.682,0,0,0-5.8-2.216h-.874a6.7,6.7,0,0,0-13.021,0h-.874a8.68,8.68,0,0,0-5.8,2.216H76.849a1.6,1.6,0,0,0-1.6,1.6V80.4a1.6,1.6,0,0,0,1.6,1.6h54.694a1.6,1.6,0,0,0,1.6-1.6V8.92A1.6,1.6,0,0,0,131.543,7.318Zm-32.45.988a1.6,1.6,0,0,0,1.6-1.6,3.5,3.5,0,0,1,7,0,1.6,1.6,0,0,0,1.6,1.6h2.283a5.5,5.5,0,0,1,3.95,1.671c.014.016.025.033.039.048a6.154,6.154,0,0,1,1.524,4.5c0,.242,0,.483,0,.725v.726H91.3v-.726c0-1.946.112-3.744,1.526-5.228.014-.015.025-.032.039-.048a5.5,5.5,0,0,1,3.949-1.671ZM129.941,78.8H78.45V10.521H88.743l-.011.029a8.785,8.785,0,0,0-.635,3.1H83.182a1.6,1.6,0,0,0-1.6,1.6V56.448a1.6,1.6,0,0,0,3.2,0V16.854h3.309v.726a1.6,1.6,0,0,0,1.6,1.6h29a1.6,1.6,0,0,0,1.6-1.6v-.726h3.309v3.2a1.6,1.6,0,0,0,3.2,0V15.253a1.6,1.6,0,0,0-1.6-1.6h-4.915a8.722,8.722,0,0,0-.637-3.106l-.009-.024h10.292Z" fill="#fff" fill-rule="evenodd"/><path d="M174.131,212.589a15.612,15.612,0,1,0-15.612-15.613A15.63,15.63,0,0,0,174.131,212.589Zm0-28.022a12.409,12.409,0,1,1-12.409,12.409A12.423,12.423,0,0,1,174.131,184.567Z" transform="translate(-69.935 -152.317)" fill="#fff" fill-rule="evenodd"/><path d="M210.94,261.559a1.6,1.6,0,0,0,2.265,0l8.493-8.494a1.6,1.6,0,0,0-2.265-2.265l-7.361,7.361-3.114-3.114a1.6,1.6,0,1,0-2.265,2.265Z" transform="translate(-110.001 -210.239)" fill="#fff" fill-rule="evenodd"/><path d="M116.394,385.656a1.6,1.6,0,1,0-1.6-1.6A1.6,1.6,0,0,0,116.394,385.656Z" transform="translate(-33.212 -321.201)" fill="#fff" fill-rule="evenodd"/><path d="M378.812,155.239a1.6,1.6,0,1,0,1.6,1.6A1.6,1.6,0,0,0,378.812,155.239Z" transform="translate(-253.602 -130.376)" fill="#fff" fill-rule="evenodd"/></g></svg>