<?xml version="1.0" encoding="utf-8"?>
<!-- Generator: Adobe Illustrator 25.1.0, SVG Export Plug-In . SVG Version: 6.00 Build 0)  -->
<svg version="1.1"
	 id="Ebene_2" sodipodi:docname="AJAX.svg" xmlns:cc="http://creativecommons.org/ns#" xmlns:dc="http://purl.org/dc/elements/1.1/" xmlns:inkscape="http://www.inkscape.org/namespaces/inkscape" xmlns:rdf="http://www.w3.org/1999/02/22-rdf-syntax-ns#" xmlns:sodipodi="http://sodipodi.sourceforge.net/DTD/sodipodi-0.dtd" xmlns:svg="http://www.w3.org/2000/svg"
	 xmlns="http://www.w3.org/2000/svg" xmlns:xlink="http://www.w3.org/1999/xlink" x="0px" y="0px" viewBox="0 0 970.5 647"
	 style="enable-background:new 0 0 970.5 647;" xml:space="preserve">
<style type="text/css">
	.st0{fill:#006239;}
	.st1{fill:#FABC0C;}
	.st2{fill:#FFFFFF;}
	.st3{fill:none;stroke:#006239;stroke-linecap:round;stroke-linejoin:round;}
	.st4{fill:#008A2E;}
	.st5{fill:none;stroke:#FFFFFF;stroke-linecap:round;stroke-linejoin:round;}
	.st6{fill:none;stroke:#008A2E;stroke-linecap:round;stroke-linejoin:round;}
</style>
<sodipodi:namedview  bordercolor="#666666" borderopacity="1" gridtolerance="10" guidetolerance="10" id="namedview104" inkscape:current-layer="Ebene_2" inkscape:cx="234.61575" inkscape:cy="530.37564" inkscape:pageopacity="0" inkscape:pageshadow="2" inkscape:window-height="1004" inkscape:window-maximized="1" inkscape:window-width="1280" inkscape:window-x="-8" inkscape:window-y="-8" inkscape:zoom="0.35355339" objecttolerance="10" pagecolor="#ffffff" showgrid="false">
	</sodipodi:namedview>
<rect y="0" class="st0" width="970.5" height="647"/>
<polygon class="st1" points="474.9,49.2 481.3,53.9 478.8,61.4 485.2,56.8 491.6,61.5 489.2,53.9 495.6,49.3 487.7,49.2 485.3,41.7 
	482.8,49.2 "/>
<polygon class="st1" points="442.5,52.4 449.4,56.3 447.8,64.1 453.7,58.7 460.6,62.6 457.3,55.3 463.1,50 455.2,50.9 451.9,43.7 
	450.4,51.4 "/>
<polygon class="st1" points="410.7,59.3 418,62.4 417.4,70.3 422.5,64.3 429.9,67.3 425.7,60.5 430.9,54.5 423.2,56.3 419,49.6 
	418.4,57.5 "/>
<polygon class="st1" points="379.9,70 387.5,72.2 387.9,80.1 392.3,73.5 399.9,75.7 395,69.4 399.4,62.8 392,65.6 387.1,59.3 
	387.4,67.3 "/>
<polygon class="st1" points="350.6,84.2 358.5,85.5 359.7,93.3 363.3,86.3 371.2,87.5 365.6,81.9 369.2,74.8 362.1,78.4 356.5,72.8 
	357.7,80.6 "/>
<polygon class="st1" points="323.2,101.8 331.2,102.2 333.4,109.8 336.1,102.3 344,102.7 337.8,97.7 340.5,90.3 333.9,94.7 
	327.7,89.8 329.9,97.4 "/>
<polygon class="st1" points="298.1,122.6 306.1,121.9 309.1,129.3 311,121.5 318.9,120.9 312.1,116.8 313.9,109 307.9,114.2 
	301.1,110.1 304.2,117.4 "/>
<polygon class="st1" points="275.7,146.1 283.5,144.5 287.4,151.5 288.3,143.6 296.1,142 288.8,138.7 289.8,130.8 284.4,136.6 
	277.2,133.3 281.1,140.3 "/>
<polygon class="st1" points="256.1,172.1 263.7,169.7 268.4,176.1 268.3,168.1 275.9,165.7 268.3,163.2 268.3,155.3 263.7,161.7 
	256.1,159.3 260.8,165.7 "/>
<polygon class="st1" points="239.8,200.3 247,197 252.4,202.8 251.5,194.9 258.7,191.5 250.9,190 249.9,182.1 246,189.1 
	238.3,187.5 243.7,193.3 "/>
<polygon class="st1" points="226.9,230.2 233.7,226 239.7,231.2 237.9,223.4 244.6,219.3 236.7,218.7 234.8,211 231.8,218.3 
	223.9,217.7 229.9,222.8 "/>
<polygon class="st1" points="217.7,261.4 223.9,256.5 230.5,260.8 227.7,253.4 234,248.5 226,248.8 223.2,241.4 221.1,249 
	213.2,249.4 219.8,253.7 "/>
<polygon class="st1" points="212.2,293.5 217.8,287.8 224.9,291.4 221.2,284.4 226.8,278.7 219,280 215.3,272.9 214.1,280.8 
	206.3,282.1 213.4,285.6 "/>
<polygon class="st1" points="210.5,326 215.4,319.7 222.9,322.4 218.4,315.9 223.3,309.6 215.7,311.8 211.2,305.2 210.9,313.2 
	203.3,315.3 210.8,318.1 "/>
<polygon class="st1" points="212.7,358.5 216.8,351.7 224.6,353.5 219.4,347.5 223.5,340.7 216.1,343.8 210.9,337.8 211.6,345.7 
	204.3,348.8 212,350.6 "/>
<polygon class="st1" points="218.7,390.5 222,383.2 229.9,384.1 224,378.8 227.3,371.5 220.4,375.4 214.5,370.1 216.1,377.9 
	209.2,381.8 217.1,382.7 "/>
<polygon class="st1" points="228.5,421.5 230.9,413.9 238.8,413.9 232.4,409.3 234.8,401.7 228.4,406.4 221.9,401.8 224.4,409.3 
	218,414 226,414 "/>
<polygon class="st1" points="241.9,451.2 243.3,443.4 251.2,442.4 244.3,438.6 245.7,430.8 239.9,436.2 233,432.4 236.4,439.6 
	230.6,445 238.5,444 "/>
<polygon class="st1" points="258.6,479.1 259.2,471.2 266.9,469.2 259.5,466.3 260.1,458.3 255,464.4 247.6,461.5 251.8,468.2 
	246.7,474.3 254.4,472.4 "/>
<polygon class="st1" points="278.6,504.8 278.2,496.9 285.6,494 278,492 277.6,484 273.2,490.7 265.6,488.6 270.5,494.8 
	266.2,501.4 273.6,498.6 "/>
<polygon class="st1" points="301.5,528 300.1,520.1 307.2,516.5 299.3,515.3 298,507.5 294.5,514.6 286.6,513.4 292.3,519 
	288.8,526.1 295.8,522.4 "/>
<polygon class="st1" points="326.9,548.3 324.7,540.7 331.2,536.2 323.3,535.9 321,528.3 318.4,535.8 310.4,535.6 316.7,540.4 
	314.1,547.9 320.6,543.4 "/>
<polygon class="st1" points="354.6,565.4 351.5,558.1 357.4,552.9 349.5,553.6 346.4,546.3 344.6,554.1 336.7,554.8 343.5,558.9 
	341.8,566.6 347.8,561.4 "/>
<polygon class="st1" points="384.1,579.2 380.1,572.3 385.4,566.4 377.7,568.1 373.7,561.2 372.8,569.1 365.1,570.7 372.3,574 
	371.5,581.8 376.8,576 "/>
<polygon class="st1" points="415,589.4 410.3,583 414.8,576.5 407.3,579.1 402.5,572.7 402.6,580.6 395.1,583.2 402.7,585.6 
	402.8,593.5 407.4,587 "/>
<polygon class="st1" points="446.9,595.8 441.4,590 445.2,583.1 438,586.5 432.6,580.7 433.6,588.6 426.5,592.1 434.3,593.5 
	435.3,601.3 439.1,594.4 "/>
<polygon class="st1" points="479.4,598.4 473.2,593.4 476.2,586 469.5,590.2 463.3,585.2 465.3,592.9 458.6,597.1 466.5,597.6 
	468.5,605.3 471.4,597.9 "/>
<polygon class="st1" points="511.9,597.2 505.2,592.9 507.2,585.2 501.1,590.2 494.4,585.9 497.3,593.3 491.1,598.4 499.1,597.9 
	501.9,605.3 504,597.6 "/>
<polygon class="st1" points="544,592.1 536.9,588.6 538,580.8 532.5,586.5 525.3,583 529.1,590 523.6,595.7 531.4,594.4 
	535.1,601.4 536.2,593.5 "/>
<polygon class="st1" points="575.4,583.3 567.9,580.7 568,572.7 563.2,579.1 555.7,576.4 560.3,583 555.5,589.3 563.1,587 
	567.6,593.5 567.8,585.6 "/>
<polygon class="st1" points="605.4,570.8 597.7,569.1 596.9,561.2 592.9,568 585.1,566.3 590.4,572.3 586.4,579.1 593.7,575.9 
	598.9,581.9 598.1,574 "/>
<polygon class="st1" points="633.8,554.9 625.9,554.1 624.2,546.3 621,553.6 613.1,552.8 619,558.1 615.9,565.4 622.7,561.4 
	628.6,566.6 627,558.9 "/>
<polygon class="st1" points="660.1,535.7 652.2,535.8 649.5,528.3 647.2,535.9 639.3,536.1 645.8,540.6 643.5,548.2 649.9,543.4 
	656.4,548 653.8,540.5 "/>
<polygon class="st1" points="683.9,513.5 676.1,514.6 672.6,507.4 671.2,515.3 663.3,516.4 670.3,520.1 669,527.9 674.7,522.4 
	681.7,526.1 678.2,519 "/>
<polygon class="st1" points="705,488.7 697.3,490.7 693,484 692.6,491.9 684.9,494 692.3,496.8 691.8,504.8 696.9,498.6 
	704.2,501.5 700,494.8 "/>
<polygon class="st1" points="723,461.5 715.6,464.4 710.5,458.3 711,466.2 703.6,469.1 711.3,471.1 711.8,479.1 716.1,472.4 
	723.7,474.3 718.7,468.2 "/>
<polygon class="st1" points="737.6,432.4 730.6,436.2 724.8,430.7 726.3,438.5 719.3,442.3 727.1,443.4 728.6,451.2 732,444 
	739.9,445.1 734.1,439.6 "/>
<polygon class="st1" points="748.7,401.8 742.2,406.4 735.8,401.6 738.1,409.2 731.6,413.8 739.6,413.9 741.9,421.5 744.5,414 
	752.4,414.1 746.1,409.4 "/>
<polygon class="st1" points="756.1,370.1 750.1,375.4 743.3,371.4 746.5,378.7 740.6,384 748.5,383.2 751.7,390.5 753.4,382.7 
	761.2,381.9 754.4,377.9 "/>
<polygon class="st1" points="759.6,337.8 754.4,343.7 747.1,340.6 751.1,347.4 745.9,353.4 753.7,351.7 757.7,358.5 758.4,350.6 
	766.2,348.8 758.9,345.7 "/>
<polygon class="st1" points="759.4,305.2 754.9,311.8 747.2,309.5 752.1,315.8 747.6,322.4 755.1,319.7 759.9,326 759.7,318.1 
	767.2,315.4 759.6,313.2 "/>
<polygon class="st1" points="755.3,272.9 751.6,280 743.7,278.6 749.3,284.3 745.6,291.3 752.7,287.8 758.2,293.5 757.1,285.7 
	764.2,282.1 756.4,280.8 "/>
<polygon class="st1" points="747.3,241.3 744.5,248.8 736.6,248.4 742.8,253.4 739.9,260.8 746.6,256.5 752.8,261.4 750.7,253.8 
	757.3,249.4 749.4,249 "/>
<polygon class="st1" points="735.8,210.9 733.8,218.6 725.9,219.2 732.6,223.4 730.7,231.1 736.8,226 743.5,230.2 740.6,222.9 
	746.6,217.8 738.7,218.3 "/>
<polygon class="st1" points="720.7,182.1 719.6,190 711.8,191.4 719,194.8 718,202.7 723.5,197 730.6,200.3 726.8,193.4 
	732.3,187.6 724.5,189.1 "/>
<polygon class="st1" points="702.3,155.2 702.2,163.2 694.6,165.6 702.1,168.1 702.1,176.1 706.8,169.7 714.3,172.2 709.7,165.7 
	714.4,159.3 706.9,161.7 "/>
<polygon class="st1" points="680.8,130.8 681.7,138.7 674.4,141.9 682.2,143.5 683.1,151.4 687,144.6 694.8,146.2 689.4,140.3 
	693.4,133.4 686.2,136.6 "/>
<polygon class="st1" points="656.6,109 658.4,116.7 651.6,120.8 659.5,121.5 661.3,129.3 664.4,121.9 672.3,122.6 666.3,117.4 
	669.4,110.1 662.6,114.2 "/>
<polygon class="st1" points="630,90.2 632.7,97.7 626.4,102.6 634.4,102.3 637.1,109.8 639.3,102.2 647.2,101.9 640.6,97.4 
	642.8,89.8 636.6,94.7 "/>
<polygon class="st1" points="601.4,74.7 604.9,81.9 599.3,87.4 607.1,86.2 610.7,93.4 612,85.5 619.8,84.3 612.8,80.7 614.1,72.8 
	608.4,78.4 "/>
<polygon class="st1" points="571.1,62.8 575.5,69.4 570.5,75.6 578.2,73.5 582.6,80.1 582.9,72.2 590.6,70.1 583.1,67.3 583.5,59.4 
	578.5,65.6 "/>
<polygon class="st1" points="539.6,54.4 544.8,60.5 540.6,67.3 547.9,64.3 553.1,70.3 552.5,62.4 559.8,59.4 552.1,57.5 551.5,49.6 
	547.4,56.3 "/>
<polygon class="st1" points="507.4,49.9 513.2,55.3 509.9,62.5 516.8,58.7 522.6,64.1 521.1,56.3 528,52.4 520.2,51.5 518.6,43.7 
	515.3,50.9 "/>
<polygon class="st2" points="492.7,198.6 514.9,74.9 507.4,200.4 544.1,80.1 521.8,203.9 572.5,88.8 535.8,209.1 599.7,100.8 
	549,215.8 625.2,115.9 561.3,224.1 648.8,133.9 572.5,233.8 670.1,154.6 582.5,244.8 688.8,177.6 591.2,256.8 704.7,202.7 
	598.4,269.8 717.5,229.5 603.9,283.6 727,257.7 607.9,297.9 733.1,286.7 610,312.6 735.7,316.3 610.5,327.4 734.8,346 609.2,342.2 
	730.5,375.3 606.1,356.7 722.6,404 601.4,370.8 711.5,431.5 595,384.2 697.1,457.5 587,396.8 679.8,481.6 577.7,408.3 659.8,503.5 
	567,418.6 637.3,522.9 555.2,427.6 612.7,539.5 542.5,435.2 586.3,553 528.9,441.2 558.4,563.4 514.7,445.5 529.6,570.4 
	500.1,448.1 500.1,573.9 485.3,449 470.4,573.9 470.4,448.1 440.9,570.4 455.8,445.5 412.1,563.4 441.6,441.2 384.2,553 428,435.2 
	357.8,539.5 415.3,427.6 333.2,522.9 403.5,418.6 310.7,503.5 392.8,408.3 290.7,481.6 383.5,396.8 273.4,457.5 375.5,384.2 
	259,431.5 369.1,370.8 247.9,404 364.4,356.7 240,375.3 361.3,342.2 235.7,346 360,327.4 234.8,316.3 360.5,312.6 237.4,286.7 
	362.6,297.9 243.5,257.7 366.6,283.6 253,229.5 372.1,269.8 265.8,202.7 379.3,256.8 281.6,177.6 388,244.8 300.4,154.6 398,233.8 
	321.7,133.9 409.2,224.1 345.3,115.9 421.5,215.8 370.8,100.8 434.7,209.1 398,88.8 448.7,203.9 426.4,80.1 463.1,200.4 455.6,74.9 
	477.8,198.6 485.2,73.1 "/>
<path class="st0" d="M446.7,330.5c-0.1,0-0.3-0.1-0.5-0.2c-0.3-0.1-0.6-0.3-0.8-0.5c-0.2-0.1-0.4-0.3-0.4-0.7c0-0.2,0.1-0.3,0.2-0.5
	c0.2-0.3,0.5-0.4,0.6-0.6c0.1-0.1,0.2-0.2,0.3-0.5c0.2-0.6,0.6-1.1,1.3-1.3c0.1,0,0.2,0,0.3,0c0.2,0,0.5,0.1,0.7,0.3
	c0.1,0.2,0.2,0.4,0.2,0.6c0,1.1-0.9,2.6-1.2,3.1l0,0l0,0c-0.1,0.1-0.2,0.2-0.3,0.2L446.7,330.5z"/>
<path class="st3" d="M446.7,330.5c-0.1,0-0.3-0.1-0.5-0.2c-0.3-0.1-0.6-0.3-0.8-0.5c-0.2-0.1-0.4-0.3-0.4-0.7c0-0.2,0.1-0.3,0.2-0.5
	c0.2-0.3,0.5-0.4,0.6-0.6c0.1-0.1,0.2-0.2,0.3-0.5c0.2-0.6,0.6-1.1,1.3-1.3c0.1,0,0.2,0,0.3,0c0.2,0,0.5,0.1,0.7,0.3
	c0.1,0.2,0.2,0.4,0.2,0.6c0,1.1-0.9,2.6-1.2,3.1l0,0l0,0c-0.1,0.1-0.2,0.2-0.3,0.2L446.7,330.5z"/>
<path class="st4" d="M623.9,480.2L623.9,480.2L623.9,480.2z"/>
<path class="st5" d="M623.9,480.2L623.9,480.2L623.9,480.2z"/>
<path class="st0" d="M663.1,433.4c-0.1-3-0.8-6.2-2-8.9l-0.2-0.5l-0.4,0.2l0,0c-0.1-0.1-0.2-0.2-0.3-0.3l0,0l0-0.1
	c0-0.1,0.1-0.2,0.1-0.4c0-0.2-0.1-0.4-0.2-0.6c-0.1,0-0.2-0.5-0.4-0.8c-0.1-0.2-0.2-0.4-0.3-0.6c-0.1-0.1-0.1-0.1-0.2-0.2
	c0.1-0.1,0.1-0.3,0.1-0.4c0-0.3-0.2-0.6-0.4-0.8c-0.2-0.2-0.4-0.4-0.8-0.4c-0.2,0-0.4,0.1-0.6,0.3c-0.1,0.2-0.2,0.4-0.2,0.6
	c0,0.1,0,0.2,0,0.3v0c0,0.1-0.3,0.6-0.7,1c-0.4,0.4-0.9,0.6-1,0.6h0c0,0-0.1,0-0.2,0l-0.8,0.4l0.8,0.4c0.4,0.2,0.5,0.5,0.5,0.9
	c0,0.7-0.3,1.5-0.5,2.1c-0.2,0.7-0.3,1.2-0.5,1.4c-0.2,0.2-0.3,0.4-1.1,0.4l-0.3,0v0c0-0.5-0.3-0.9-0.6-1.1l-0.3-0.3l-0.3,0.3
	c-0.3,0.2-0.5,0.6-0.5,0.9c0,0.2,0.1,0.5,0.3,0.7c0.2,0.2,0.5,0.3,0.8,0.3h0h0v-0.3l0,0.3l0.1-0.4l0.4,0.2l0,0
	c-0.2,0.1-0.3,0.2-0.5,0.3c-0.2,0.3-0.3,0.6-0.4,0.8c-0.1-0.1-0.2-0.3-0.3-0.4c-0.1-0.2-0.3-0.4-0.5-0.5c-0.2-0.1-0.4-0.3-0.7-0.3
	c-0.3,0-0.5,0.2-0.6,0.4c-0.1,0.2-0.2,0.4-0.2,0.8c0,0.1,0,0.2,0,0.3c0,0.7,0.3,1.3,0.5,1.8c0,0,0,0.2,0,0.3c0,0.2,0,0.4-0.1,0.5
	l-0.3,0l0,0c0,0.1-0.3,0.2-0.7,0.4c-0.3,0.2-0.7,0.5-0.7,1.1c0,0.3,0.1,0.5,0.2,0.8c0.1,0.2,0.2,0.3,0.3,0.4l-0.2,0.1
	c-0.3,0.2-0.5,0.5-0.6,0.8l0-0.1c0-0.1,0-0.2,0-0.3l-0.1-0.4l-0.4,0.1c-0.5,0.1-0.8,0.4-0.9,0.7c-0.1,0.3-0.1,0.5-0.3,0.7
	c-0.1,0.1-0.3,0.3-0.6,0.6c-0.3,0.2-0.6,0.5-0.7,1l0,0.2l0,0.2c-0.2-0.1-0.4-0.1-0.5-0.1l-0.1,0c-0.5,0-0.9,0.3-1.2,0.6
	c-0.3,0.3-0.6,0.6-0.8,0.7c-0.1,0.1-0.5,0.3-0.8,0.5c-0.3,0.2-0.6,0.5-0.6,1.1l0,0.2l0,0l0,0.1c-0.2-0.2-0.4-0.3-0.7-0.3
	c-0.4,0-0.6,0.2-0.8,0.5c-0.3-0.1-0.6-0.1-0.9-0.1c-0.3,0-0.5,0-0.7,0.1c-0.4,0.2-0.5,0.6-0.6,0.9l-0.2,0c-0.4,0-0.6,0.2-0.9,0.4
	l-0.1,0.1c-0.1-0.1-0.2-0.2-0.2-0.3l-0.3-0.3l-0.3,0.2c-0.7,0.5-1.1,1.2-1.6,1.3c-0.1,0-0.2,0-0.3,0c-0.3,0-0.7-0.1-1.1-0.1
	c-0.3,0-0.7,0-1,0.3c-0.2,0.3-0.2,0.4-0.2,0.7c0,0.2,0,0.5,0,0.7l-0.4-0.4l0.3,1.4l0,0.2c0,0.5-0.4,1.2-0.7,1.8
	c-0.2,0.4-0.8,1-1.2,1.7c-0.5,0.7-0.9,1.4-0.9,2.2c0,0.3,0.1,0.6,0.2,0.9c0.1,0.2,0.2,0.6,0.2,1c0,0.6-0.1,1.3-0.1,2
	c0,0.1,0,0.2,0,0.3c0.1,1.4,1,2.3,0.9,3.3v0c0,0.2,0,0.4,0,0.6c0,0.8,0.1,1.5,0.6,2.3c0.2,0.4,0.3,0.6,0.3,0.8
	c0,0.3-0.2,0.7-0.4,1.3c0,0.1-0.1,0.2-0.1,0.4c0,0.4,0.2,0.6,0.3,0.8c0.1,0.2,0.1,0.3,0.1,0.3c0,0,0,0.1-0.1,0.2
	c-0.4,0.8-1,1.6-1.5,2.4c-0.5,0.8-1.2,1.7-1.6,2.8c-0.2,0.5-0.2,1-0.3,1.4c-0.1,0.4-0.2,0.6-0.5,0.7c-0.5,0.2-0.9,0.3-1.3,0.6
	c-0.3,0.3-0.4,0.8-0.5,1.5c0,0.8-1,1.8-1.3,3.1l0.4,0.1l-0.4,0.1c0.1,0.3,0.1,0.7,0.1,1.1c0,0.5,0,1.1,0,1.6c0,0.9,0.1,1.8,0.8,2.6
	c0.5,0.6,0.5,1.3,0.8,2.2c0.1,0.3,0.3,0.6,0.4,0.7c0.1,0.2,0.1,0.2,0.1,0.2c0,0,0,0.1-0.2,0.3c-0.5,0.6-0.6,1.6-0.6,2.5
	c0,0.9,0.1,1.9,0.4,2.5c0.4,0.9,0.9,1.6,1.1,2.5c0.3,1.1,0.9,1.6,1.5,2.1c0,0.2,0.1,0.2,0.1,0.3c0.2,0.3,0.5,0.5,0.9,0.7
	c0.6,0.2,1,0.1,1.4,0.2c0.4,0.1,0.8,0.4,1.2,0.8c0.4,0.4,0.9,0.8,1.6,0.9c0.2,0,0.4,0.1,0.5,0.1c1,0,2-0.6,2.8-1.2
	c0.9-0.6,1.7-1.2,2.4-1.4c0.1,0,0.2,0,0.3,0c0.3,0,0.6,0.1,1,0.1c0.2,0,0.4,0,0.6-0.1c0.5-0.2,0.9-0.5,1.3-0.5
	c1-0.2,1.4-1.2,1.7-1.8c0.4-0.8,0.6-1.6,0.8-2.4c0.3-1,0.9-1.9,1.3-3.1c0.6-2,1.3-3.9,1.9-6c0.8-2.9,1.9-5.4,2.9-8.3
	c0.8-2.3,1.3-4.6,2.3-6.8c0.2-0.5,0.7-1.3,0.7-2.1c0-0.1,0-0.2,0-0.3l0.1-0.2c0.3-0.5,0.5-1.3,0.6-1.5c0.6-1.6,0.9-3.2,1.5-4.7
	c0.9-2.2,1.8-4.1,2.3-6.6c0.1-0.3,0.1-0.6,0.1-0.9c0-0.7-0.1-1.4-0.1-2.1c0-1,0.2-1.7,1.1-2.2c0.1-0.1,0.2-0.2,0.3-0.3
	c0,0.1-0.1,0.3-0.1,0.4c0,0.2,0,0.3,0.1,0.5l0.3,0.7l0.4-0.7c0.4-0.6,0.5-1.2,0.8-1.6l-0.1-0.1l0.1-0.1h0.1c0-0.1,0-0.2,0-0.3
	l-0.8-0.2c-0.1,0.1-0.2,0.3-0.3,0.4c0.2-0.5,0.3-0.9,0.4-1.3c0-0.1,0-0.2,0-0.3c0-0.3,0-0.5,0-0.7c0-0.1,0-0.3,0-0.4l0-0.2
	c0-0.5-0.4-0.8-0.5-0.9c-0.2-0.1-0.2-0.1-0.2-0.2v0v0v0c0-0.3-0.1-1.1-0.1-1.9c0-0.4,0-0.9,0.1-1.1c0-0.1,0.1-0.2,0.1-0.2l0,0
	c0.2,0.1,0.4,0.6,0.6,1.2c0.2,0.6,0.3,1.4,1.1,1.7c0.1,0,0.2,0.1,0.3,0.1c0.5,0,0.8-0.3,1-0.6c0.7-0.9,1.1-2.6,1.2-3.1
	c0-0.1,0-0.3,0-0.4c0-1-0.6-1.5-0.8-2.1C663.1,436.5,663.1,435.1,663.1,433.4z"/>
<path class="st5" d="M663.1,433.4c-0.1-3-0.8-6.2-2-8.9l-0.2-0.5l-0.4,0.2l0,0c-0.1-0.1-0.2-0.2-0.3-0.3l0,0l0-0.1
	c0-0.1,0.1-0.2,0.1-0.4c0-0.2-0.1-0.4-0.2-0.6c-0.1,0-0.2-0.5-0.4-0.8c-0.1-0.2-0.2-0.4-0.3-0.6c-0.1-0.1-0.1-0.1-0.2-0.2
	c0.1-0.1,0.1-0.3,0.1-0.4c0-0.3-0.2-0.6-0.4-0.8c-0.2-0.2-0.4-0.4-0.8-0.4c-0.2,0-0.4,0.1-0.6,0.3c-0.1,0.2-0.2,0.4-0.2,0.6
	c0,0.1,0,0.2,0,0.3v0c0,0.1-0.3,0.6-0.7,1c-0.4,0.4-0.9,0.6-1,0.6h0c0,0-0.1,0-0.2,0l-0.8,0.4l0.8,0.4c0.4,0.2,0.5,0.5,0.5,0.9
	c0,0.7-0.3,1.5-0.5,2.1c-0.2,0.7-0.3,1.2-0.5,1.4c-0.2,0.2-0.3,0.4-1.1,0.4l-0.3,0v0c0-0.5-0.3-0.9-0.6-1.1l-0.3-0.3l-0.3,0.3
	c-0.3,0.2-0.5,0.6-0.5,0.9c0,0.2,0.1,0.5,0.3,0.7c0.2,0.2,0.5,0.3,0.8,0.3h0h0v-0.3l0,0.3l0.1-0.4l0.4,0.2l0,0
	c-0.2,0.1-0.3,0.2-0.5,0.3c-0.2,0.3-0.3,0.6-0.4,0.8c-0.1-0.1-0.2-0.3-0.3-0.4c-0.1-0.2-0.3-0.4-0.5-0.5c-0.2-0.1-0.4-0.3-0.7-0.3
	c-0.3,0-0.5,0.2-0.6,0.4c-0.1,0.2-0.2,0.4-0.2,0.8c0,0.1,0,0.2,0,0.3c0,0.7,0.3,1.3,0.5,1.8c0,0,0,0.2,0,0.3c0,0.2,0,0.4-0.1,0.5
	l-0.3,0l0,0c0,0.1-0.3,0.2-0.7,0.4c-0.3,0.2-0.7,0.5-0.7,1.1c0,0.3,0.1,0.5,0.2,0.8c0.1,0.2,0.2,0.3,0.3,0.4l-0.2,0.1
	c-0.3,0.2-0.5,0.5-0.6,0.8l0-0.1c0-0.1,0-0.2,0-0.3l-0.1-0.4l-0.4,0.1c-0.5,0.1-0.8,0.4-0.9,0.7c-0.1,0.3-0.1,0.5-0.3,0.7
	c-0.1,0.1-0.3,0.3-0.6,0.6c-0.3,0.2-0.6,0.5-0.7,1l0,0.2l0,0.2c-0.2-0.1-0.4-0.1-0.5-0.1l-0.1,0c-0.5,0-0.9,0.3-1.2,0.6
	c-0.3,0.3-0.6,0.6-0.8,0.7c-0.1,0.1-0.5,0.3-0.8,0.5c-0.3,0.2-0.6,0.5-0.6,1.1l0,0.2l0,0l0,0.1c-0.2-0.2-0.4-0.3-0.7-0.3
	c-0.4,0-0.6,0.2-0.8,0.5c-0.3-0.1-0.6-0.1-0.9-0.1c-0.3,0-0.5,0-0.7,0.1c-0.4,0.2-0.5,0.6-0.6,0.9l-0.2,0c-0.4,0-0.6,0.2-0.9,0.4
	l-0.1,0.1c-0.1-0.1-0.2-0.2-0.2-0.3l-0.3-0.3l-0.3,0.2c-0.7,0.5-1.1,1.2-1.6,1.3c-0.1,0-0.2,0-0.3,0c-0.3,0-0.7-0.1-1.1-0.1
	c-0.3,0-0.7,0-1,0.3c-0.2,0.3-0.2,0.4-0.2,0.7c0,0.2,0,0.5,0,0.7l-0.4-0.4l0.3,1.4l0,0.2c0,0.5-0.4,1.2-0.7,1.8
	c-0.2,0.4-0.8,1-1.2,1.7c-0.5,0.7-0.9,1.4-0.9,2.2c0,0.3,0.1,0.6,0.2,0.9c0.1,0.2,0.2,0.6,0.2,1c0,0.6-0.1,1.3-0.1,2
	c0,0.1,0,0.2,0,0.3c0.1,1.4,1,2.3,0.9,3.3v0c0,0.2,0,0.4,0,0.6c0,0.8,0.1,1.5,0.6,2.3c0.2,0.4,0.3,0.6,0.3,0.8
	c0,0.3-0.2,0.7-0.4,1.3c0,0.1-0.1,0.2-0.1,0.4c0,0.4,0.2,0.6,0.3,0.8c0.1,0.2,0.1,0.3,0.1,0.3c0,0,0,0.1-0.1,0.2
	c-0.4,0.8-1,1.6-1.5,2.4c-0.5,0.8-1.2,1.7-1.6,2.8c-0.2,0.5-0.2,1-0.3,1.4c-0.1,0.4-0.2,0.6-0.5,0.7c-0.5,0.2-0.9,0.3-1.3,0.6
	c-0.3,0.3-0.4,0.8-0.5,1.5c0,0.8-1,1.8-1.3,3.1l0.4,0.1l-0.4,0.1c0.1,0.3,0.1,0.7,0.1,1.1c0,0.5,0,1.1,0,1.6c0,0.9,0.1,1.8,0.8,2.6
	c0.5,0.6,0.5,1.3,0.8,2.2c0.1,0.3,0.3,0.6,0.4,0.7c0.1,0.2,0.1,0.2,0.1,0.2c0,0,0,0.1-0.2,0.3c-0.5,0.6-0.6,1.6-0.6,2.5
	c0,0.9,0.1,1.9,0.4,2.5c0.4,0.9,0.9,1.6,1.1,2.5c0.3,1.1,0.9,1.6,1.5,2.1c0,0.2,0.1,0.2,0.1,0.3c0.2,0.3,0.5,0.5,0.9,0.7
	c0.6,0.2,1,0.1,1.4,0.2c0.4,0.1,0.8,0.4,1.2,0.8c0.4,0.4,0.9,0.8,1.6,0.9c0.2,0,0.4,0.1,0.5,0.1c1,0,2-0.6,2.8-1.2
	c0.9-0.6,1.7-1.2,2.4-1.4c0.1,0,0.2,0,0.3,0c0.3,0,0.6,0.1,1,0.1c0.2,0,0.4,0,0.6-0.1c0.5-0.2,0.9-0.5,1.3-0.5
	c1-0.2,1.4-1.2,1.7-1.8c0.4-0.8,0.6-1.6,0.8-2.4c0.3-1,0.9-1.9,1.3-3.1c0.6-2,1.3-3.9,1.9-6c0.8-2.9,1.9-5.4,2.9-8.3
	c0.8-2.3,1.3-4.6,2.3-6.8c0.2-0.5,0.7-1.3,0.7-2.1c0-0.1,0-0.2,0-0.3l0.1-0.2c0.3-0.5,0.5-1.3,0.6-1.5c0.6-1.6,0.9-3.2,1.5-4.7
	c0.9-2.2,1.8-4.1,2.3-6.6c0.1-0.3,0.1-0.6,0.1-0.9c0-0.7-0.1-1.4-0.1-2.1c0-1,0.2-1.7,1.1-2.2c0.1-0.1,0.2-0.2,0.3-0.3
	c0,0.1-0.1,0.3-0.1,0.4c0,0.2,0,0.3,0.1,0.5l0.3,0.7l0.4-0.7c0.4-0.6,0.5-1.2,0.8-1.6l-0.1-0.1l0.1-0.1h0.1c0-0.1,0-0.2,0-0.3
	l-0.8-0.2c-0.1,0.1-0.2,0.3-0.3,0.4c0.2-0.5,0.3-0.9,0.4-1.3c0-0.1,0-0.2,0-0.3c0-0.3,0-0.5,0-0.7c0-0.1,0-0.3,0-0.4l0-0.2
	c0-0.5-0.4-0.8-0.5-0.9c-0.2-0.1-0.2-0.1-0.2-0.2v0v0v0c0-0.3-0.1-1.1-0.1-1.9c0-0.4,0-0.9,0.1-1.1c0-0.1,0.1-0.2,0.1-0.2l0,0
	c0.2,0.1,0.4,0.6,0.6,1.2c0.2,0.6,0.3,1.4,1.1,1.7c0.1,0,0.2,0.1,0.3,0.1c0.5,0,0.8-0.3,1-0.6c0.7-0.9,1.1-2.6,1.2-3.1
	c0-0.1,0-0.3,0-0.4c0-1-0.6-1.5-0.8-2.1C663.1,436.5,663.1,435.1,663.1,433.4z"/>
<path class="st0" d="M669.9,286.6c-0.3-0.1-0.6-0.2-0.9-0.4l-0.2-0.2c0-0.3,0.1-0.5,0.1-0.8c0-0.6-0.1-1.3-0.2-1.8
	c-0.1-0.4-0.1-0.8-0.1-1.1c0-0.9,0.2-1.6,0.5-2.7c0-0.1,0-0.2,0-0.3c0-0.7-0.6-1.1-1.1-1.4c-0.6-0.3-1.2-0.4-1.8-0.4
	c-0.3,0-0.6,0-0.8,0.2c-0.6,0.3-0.8,0.8-1.1,1.2c-0.2,0.4-0.5,0.8-0.8,1c-1,0.5-2.3,0.3-3.6,0.8c-1.1,0.5-2,1.1-2.9,1.1l-0.2,0
	c-0.5,0-1-0.3-1.7-0.3c-0.2,0-0.4,0-0.6,0.1c-0.8,0.2-1.5,0.5-2.1,0.8c-0.5,0.2-0.9,0.3-1.3,0.3c-0.4,0-0.8-0.1-1.4-0.3
	c-0.1,0-0.3-0.1-0.4-0.1c-0.7,0-1.3,0.4-2,0.9c-0.6,0.4-1.2,0.9-1.4,1.1c-0.7,0.4-1.2,0.5-1.6,0.5c-0.5,0-1.1-0.1-1.9-0.3
	c-0.6-0.1-1.1-0.2-1.5-0.2c-0.6,0-1.2,0.2-1.9,0.8c-0.7,0.5-1.8,1.2-2.5,1.5c-0.6,0.2-1.2,0.3-1.8,0.3c-1.4,0-2.6-0.6-3.5-1.7
	c-1.1-1.3-2-3.6-3.8-4.6c-0.2-0.2-0.4-0.5-0.7-0.6c-0.2-0.1-0.3-0.1-0.5-0.1c-0.5,0-1,0.2-1.4,0.3c0.2-0.3,0.4-0.5,0.6-0.6
	c0.8-0.3,2.2-0.9,2.9-1.7c0.2-0.3,0.3-0.7,0.3-1c0-0.7-0.4-1.4-0.8-2c-0.3-0.5-0.7-1-0.9-1.3l0-0.2c-0.1-0.6-0.4-0.8-0.8-1.1
	l-0.5-0.4l-0.2,0.6l0,0.1l0,0c-0.2-0.1-0.5-0.5-0.8-0.9c-0.3-0.4-0.5-0.8-0.7-1c-0.3-0.3-0.6-0.4-0.8-0.4c-0.2-0.1-0.2-0.1-0.3-0.2
	c-0.2-0.5-0.1-1.6-1-2.3l-1-0.7c-0.3-0.3-0.6-0.5-1-0.7c-0.9-0.6-1.4-1.5-2.1-2.4c-0.6-0.9-1.2-2.1-2.7-2.3
	c-0.5-0.1-0.6-0.2-0.8-0.4c-0.2-0.2-0.4-0.5-0.8-0.9c-0.3-0.3-0.7-0.5-1-0.5c-0.6,0-0.9,0.3-1.1,0.3l-0.2,0c-0.3-0.1-0.8-1-0.8-1.5
	c0-0.3-0.1-0.7-0.4-1c-0.2-0.3-0.6-0.6-1.1-0.6l-0.2,0c-0.2,0-0.4,0.2-0.5,0.3c-0.1,0.1-0.1,0.2-0.1,0.3c-0.1-0.5-0.5-0.7-0.7-0.9
	c-0.2-0.2-0.3-0.3-0.3-0.4c-0.2-1-0.6-1.7-1-2.5c-0.3-0.6-0.3-1.4-0.5-2.2c-0.8-3.4-1.9-6.3-3.4-9.4l0,0c0-0.4-0.2-0.6-0.5-0.8
	c-0.3-0.3-0.7-0.4-0.9-0.5c-0.3-0.2-0.3-0.2-0.3-0.3l0-0.9l-0.6,0.5c-0.2-0.1-0.8-0.7-1.3-1.2c-0.6-0.6-1.1-1.2-1.8-1.4
	c-0.5-0.1-1.1-0.8-1.4-1.8c-0.3-1-0.5-2.1-0.5-2.8c-0.1-1.7-0.5-3.2-0.5-4.7c0-0.3,0-0.6,0.1-1c0-0.2,0-0.3,0-0.5
	c0-0.9-0.3-1.7-0.6-2.4c0-0.1-0.1-0.2-0.1-0.2l0.8-0.1c0-0.9-0.5-1.5-1-2.1c-0.5-0.6-0.9-1.1-1.1-1.6c-0.2-0.7-0.2-1.2-0.2-1.8
	c-0.1-0.6-0.4-1.2-1.2-1.7c-1-0.7-1.7-2.1-3-2.9c-1.3-0.7-2.1-1.1-2.5-2.4l-0.2-0.8l-0.1,0.1l-0.1-0.1c-0.4-0.4-0.6-1.5-0.6-2.6
	c0-0.3,0-0.7,0.1-1c0.3,0.1,0.7,0.1,1,0.1l0.2,0l0.7,0l-0.4-0.6c-0.7-1.1-1.8-1.3-2.2-2.1c-0.7-1-1.4-1.7-1.9-2.7
	c-1.3-2.7-2.7-5.3-4.1-7.9c-0.4-0.8-0.9-1.6-1.3-2.4c-0.1-0.3-0.3-0.5-0.5-0.7c-0.1-0.1-0.2-0.2-0.2-0.3l-0.1-0.1c0,0,0-0.1,0.1-0.2
	c0.1-0.1,0.2-0.3,0.2-0.6c0-0.1,0-0.3-0.1-0.4c-0.3-0.4-0.6-0.8-0.7-1.2c-0.4-0.9-0.8-1.8-1.6-2.6c-0.1-0.1-0.1-0.2-0.1-0.4
	c0-0.1,0-0.2,0-0.3c0-0.2,0-0.4-0.1-0.6c0.1-0.1,0.1-0.3,0.1-0.3c0-0.3-0.1-0.5-0.3-0.8c-0.1-0.2-0.3-0.4-0.4-0.6
	c-0.4-0.5-1-0.9-1.4-1.3c-0.9-0.9-1.8-2.3-2.6-3.5c-0.8-1.2-0.7-2.8-1.9-4.3c-0.1-0.1-0.2-0.3-0.2-0.5c0-0.3,0.1-0.7,0.3-1.1
	c0.4,1.3,1,2.5,1.8,3.7c0.7,0.9,1.7,1.8,1.7,2.6c0,0.1,0,0.2,0,0.3c0,0.1,0,0.2,0,0.3c0,0.8,0.5,1.3,1,1.7c0.5,0.4,1,0.8,1.2,1.1
	c0.5,0.7,1,1.5,1.8,2c0.6,0.4,1.3,0.7,1.7,1l0.7-0.5l0-0.1c0-0.2,0.1-0.5,0.4-0.9c0.2-0.4,0.5-0.8,0.5-1.3v0v0c0-0.2,0-0.3,0-0.5
	c0-0.7,0-1.1,0.3-1.8c0.7-1.8,0.5-4.2,1.4-5.3l0.2-0.2l-4.5-11.8l-0.5,0.4c-0.6,0.5-1.4,0.9-2.2,1.1c-0.7,0.2-1.5,0-2.4,0.3
	l-0.1-0.1c-0.2-0.1-0.4-0.2-0.5-0.2c-0.3,0-0.6,0.1-0.9,0.2c-0.3,0.1-0.5,0.2-0.5,0.2l-0.2,0c-0.5,0-0.8-0.2-1.2-0.5
	c-0.4-0.3-0.9-0.7-1.6-0.8l0,0l0,0c-0.1-0.1-0.3-0.3-0.5-0.6c-0.2-0.3-0.4-0.6-0.9-0.7c-0.1,0-0.3-0.1-0.4-0.1
	c-0.3,0-0.5,0.1-0.7,0.2l0,0l0,0c-0.3,0.1-0.6,0.3-0.7,0.3l-0.1,0c-0.3,0-0.6-0.2-1-0.4c-0.4-0.2-0.9-0.5-1.5-0.5
	c-0.2,0-0.4,0-0.6,0.1l0,0.2l-0.2,0l-0.1,0c-0.9,0-1.5,0.6-1.9,0.5c-0.1,0-0.2,0-0.3-0.1l-0.5-0.3l-0.1,0.6
	c-0.1,0.3-0.4,0.7-0.7,0.9c-0.1-0.1-0.2-0.1-0.3-0.2l-0.3-0.2l-0.3,0.3c-0.5,0.5-0.9,0.9-1.4,1.3c-0.8,0.7-1.9,1.4-2.9,1.4
	c-0.1,0-0.2,0-0.4,0c-1.2-0.2-2.2-1.1-3.9-1.3c-0.5,0-0.9-0.1-1.3-0.1c0,0-0.1-0.1-0.3-0.2c-0.1-0.1-0.3-0.4-0.8-0.4l-0.1,0
	c-0.3,0-0.5,0.1-0.8,0.1c-0.2,0-0.4,0-0.6-0.1c-0.2-0.1-0.3-0.2-0.5-0.4c-0.2-0.2-0.4-0.5-0.9-0.6c-1.5-0.4-2.9-0.7-4.5-0.9
	c-0.9-0.1-1.8-0.4-2.8-0.4c-0.4,0-0.8,0.1-1.3,0.2c-0.4,0.1-0.9,0.3-1.2,0.2c-0.2,0-0.3,0-0.4-0.1c-0.1,0-0.1-0.1-0.1-0.3l0-0.9
	l-0.1,0.1c-0.1-0.3-0.3-0.5-0.4-0.8c-0.3-0.4-0.7-0.8-1.2-0.9c-0.3-0.1-0.6-0.1-0.9-0.1c-0.5,0-1,0.1-1.5,0.1c-0.4,0-0.7,0-1.1-0.1
	c-1.1-0.3-1.9-0.9-3.3-1c-0.3,0-0.8-0.1-1.2-0.2c-0.4-0.2-0.6-0.3-0.6-0.5c0-0.1,0-0.2,0-0.3c0-0.2,0-0.3,0-0.4c0-0.2,0-0.6-0.3-0.8
	c-0.2-0.2-0.5-0.4-1-0.6c-1-0.4-2-1-3.2-1.3c-0.6-0.2-1.3-0.2-1.9-0.2c-0.4,0-0.8,0-1.2,0.1c-1.2,0.1-1.8,0.9-2.6,0.9
	c-1.2,0-2.5,0.7-3.7,1.6c-1.2,0.9-2.2,2-2.6,3.1c-0.1,0.4-0.2,0.8-0.2,1.2c0,0.8,0.2,1.6,0.4,2.3c0.3,0.9,0.8,1.6,0.8,2.2
	c0,0.1,0,0.2,0,0.3c-0.4,2-2.7,3.9-4.7,4l-0.2,0c-1.5,0-2.6-1.5-4-2.7c-1.8-1.4-4.8-2.4-6.9-2.8c-2.2-0.4-4.2-0.1-5.8-1.4
	c-0.9-0.8-1.3-1.6-1.5-2.8c-0.2-0.9-0.3-2.1-1.4-2.9c-1-0.6-2.2-0.3-2.8-0.5c-0.8-0.3-1.6-1-2.6-1.5c-1.2-0.5-2.3-0.5-3.3-0.9
	c-0.3-0.1-0.6-0.2-0.9-0.2c-1,0-1.7,0.5-2.5,0.6c-0.2,0-0.4,0-0.6,0c-0.9,0-1.7-0.2-2.4-0.7c-1-0.6-2.2-0.9-3-1.5l-0.1-0.1l-0.2-0.2
	l-0.3-0.2l0,0.1c-0.2-0.1-0.4-0.1-0.6-0.1l-0.2,0c0-0.4-0.2-0.5-0.3-0.6c-0.1-0.2-0.2-0.3-0.3-0.4l0-0.1c0-0.1,0-0.2,0-0.3
	c0-0.3-0.2-0.7-0.6-0.8l-0.1,0c0.2-0.2,0.3-0.4,0.3-0.8c0-0.2-0.2-0.5-0.4-0.6c-0.2-0.1-0.5-0.1-0.8-0.1l0,0c-0.3,0-0.5,0-0.8,0.2
	c-0.3,0.1-0.4,0.5-0.4,0.8c0,0.1,0,0.2,0,0.3c-0.4,0-0.6,0.1-0.8,0.1c-0.1,0-0.1,0-0.2-0.1c-0.4-0.2-0.8-0.6-1.1-1
	c-0.3-0.5-0.4-0.8-0.4-1.1c0-0.4,0.3-0.7,0.8-1.1c0.5-0.4,1.2-0.7,1.8-1.2c1.3-1.1,2.6-2.8,2.6-4.6c0-0.3,0-0.5-0.1-0.8
	c-0.2-0.7-0.2-1.2-0.5-1.6c-0.3-0.4-0.7-0.6-1.3-1c-0.6-0.3-1.2-1.3-1.1-2.1l0-0.1c0-0.4,0.4-0.9,1.1-1.5c0.6-0.6,1.3-1.1,1.7-1.8
	c0.2-0.3,0.3-0.6,0.3-1c0-0.5-0.3-1-0.8-1.2c-0.1,0-0.2-0.1-0.3-0.1c-0.4,0-0.6,0.2-0.8,0.4c-0.2,0.2-0.4,0.4-0.5,0.4
	c-0.5,0.4-0.9,0.8-1.4,1l0,0l-0.1,0c0-0.1,0.1-0.2,0.1-0.4c0-0.4-0.2-0.7-0.5-0.9c0-0.1,0.1-0.2,0.1-0.3c0-0.1,0-0.2-0.1-0.3
	c-0.2-0.5-0.5-0.8-0.8-0.9c-0.3-0.1-0.6-0.1-1-0.2c-0.1-0.2-0.3-0.3-0.5-0.3c-0.2-0.1-0.4-0.1-0.5-0.1c-0.6,0-1.1,0.3-1.5,0.4
	c-1.1,0.3-2,0.7-2.8,1.6c-0.1,0.1-0.2,0.1-0.3,0.2c-0.1,0-0.2,0-0.4,0.1l0,0l0,0l-0.2,0l-0.2,0.1l-0.1,0c-0.7,0.3-1.7,0-2.7,0.3
	c-0.2,0.1-0.6,0.1-0.8,0.1l0,0l0.4-0.7l-0.8,0l-0.1,0c-0.4,0-0.9-0.4-1.6-0.6c-0.2,0-0.3-0.1-0.5-0.1c-0.4,0-0.7,0.3-0.7,0.5
	c-0.1,0.2-0.1,0.2-0.2,0.3c-0.3,0.2-0.6,0.3-0.9,0.3c-0.5,0-1.1-0.2-1.5-0.5c-0.3-0.2-0.9-0.5-1.6-0.5c-0.2,0-0.4,0-0.6,0.2
	c-0.2,0.2-0.3,0.4-0.3,0.7l0,0.2c-0.1,0.1-0.6,0.2-1,0.3c-0.5,0.1-1,0.1-1.2,0.1c-0.6,0.1-1,0.4-1.3,0.6c-0.3,0.2-0.5,0.4-0.7,0.4
	c-0.1,0-0.3,0-0.6-0.3c-0.9-0.7-1.5-1.1-2.7-1.1l-0.2,0c-0.2,0-0.3,0-0.5,0c-0.5,0-0.9,0-1.4,0c-1,0-2,0.1-3,0.5
	c-0.1,0-0.6,0.1-1.1,0.1c-0.2,0-0.4,0-0.6,0l-0.2,0l-0.1,0c0,0-0.1,0-0.3,0.2c-0.2-0.1-0.4-0.2-0.6-0.2c-0.6,0-1,0.3-1.4,0.6
	c-0.4,0.2-0.7,0.4-1.1,0.4l-0.1,0c-0.2,0-0.4,0-0.5,0c-1.5,0-2.9,0.4-4.3,0.5c-2.3,0.3-6.2,1.2-7.5,3.7c-0.3,0.5-0.4,0.5-0.5,0.5
	c-0.3,0-0.7-0.3-1.4-0.3c-0.2,0-0.5,0.1-0.8,0.3c-0.2,0.3-0.7,0.6-0.8,0.6l0,0c-0.2-0.1-0.4-0.2-0.5-0.2c-0.6,0-1.1,0.5-1.3,0.6
	c-0.7,0.4-1,1-1.3,1.5c-0.2,0.3-0.3,0.3-0.4,0.4c-0.2,0.1-0.4,0.2-0.8,0.3c-1.4,0.7-2,1-3.4,1.1c-0.2-0.1-0.5-0.3-0.8-0.3
	c-0.2,0-0.4,0-0.6,0.1c-0.1,0.1-0.3,0.1-0.4,0.1c-0.3,0-0.5-0.1-0.7-0.3c-0.1-0.1-0.1-0.2-0.2-0.3l-0.1,0.1
	c-0.1-0.4-0.2-0.5-0.2-0.9l0-0.1l-0.8-0.2c-0.4,0.8-1,0.9-1.8,1c-0.6,0-1.3-0.1-2-0.1c-0.2,0-0.4,0-0.5,0c-0.9,0.1-1.6,0.2-2.3,0.2
	c-0.8,0-1.6-0.2-2.5-0.8c-0.8-0.5-1.2-1.1-1.5-1.9c-0.1-0.2-0.1-0.4-0.3-0.7c-0.1-0.3-0.4-0.6-0.8-0.6c-0.2,0-0.3,0.1-0.5,0.1
	c-0.4,0.2-0.9,0.4-1.4,0.4l-0.1,0l-0.1,0c-0.4,0-0.6,0.3-0.7,0.4c-0.4,0.6-0.7,1.6-0.7,1.8c-1.3,3.4-2.9,7.9-6,9.7
	c-1.6,0.9-3.5,1.6-5.3,2.4c-1.8,0.8-2.8,2.3-4,3.4c-0.6,0.6-1.3,1.2-1.6,2.2c-0.4,1.3-0.2,2.1-0.8,2.9c-1.4,1.7-2.3,2.9-2.4,5.2
	c0,0.9,0,1.5-0.3,2.2c-0.1,0.2-0.2,0.4-0.2,0.7c0,0.3,0.2,0.6,0.4,0.7c0.2,0.1,0.4,0.2,0.5,0.4c0.3,0.2,0.4,0.5,0.4,0.9
	c0,1-1,2.7-1.5,3.3c-1.1,1.4-2.2,3-3.5,4.1c-1.4,1.2-2.9,2.3-4.3,3.6c-1.3,1.3-3.1,1.8-5,2.2c-1,0.2-2,0.3-3.1,0.6
	c-0.2,0.1-0.3,0.2-0.5,0.4c-0.3,0.3-0.6,0.9-0.9,1.1c-0.1,0-0.1,0.1-0.2,0.1l-0.1,0.1l-0.6,0.7l0.4,0c-0.1,0.2-0.2,0.4-0.3,0.6
	c-0.3,0.6-0.6,1.3-0.8,1.9c-0.8,2.2-1.8,3-3.9,4.2c-2.1,1.2-2.7,3.5-3.4,5.4c-1,2.5-0.6,4.4-2.3,6.1c-1.4,1.4-3.6,2.8-4.5,4.8
	l0.7,0.4c-0.1,0.3-0.3,0.7-0.6,1c-0.4,0.7-0.9,1.3-1.1,1.6c-0.2,0.4-0.2,0.7-0.3,1c0,0.1,0,0.2,0,0.3l0,0c-0.5,0.3-0.7,0.8-0.8,1.2
	c-0.1,0.4-0.2,0.9-0.3,1.2c-0.2,0.5-0.5,0.8-0.9,1.1c-0.4,0.3-1,0.6-1.4,1.2c-0.6,1-0.9,2-1,3c-0.2,1-0.9,2.7-0.9,4.2
	c0,0.5,0.1,1,0.3,1.4l0.4-0.2l0.4,0.1c0.1-0.4,0.2-0.9,0.4-1.4c0.1,0.3,0.2,0.6,0.4,0.9c0.2,0.6,0.4,1.4,1.1,1.9l0.6,0.4l0.1-0.5
	c0.4,0.8,0.9,1.8,0.9,2.4c0,0.3-0.1,0.5-0.3,0.7l-0.1,0.1l-0.4,0.4c-0.3,0.3-0.7,0.8-0.7,1.4c0,0.2,0,0.4,0.2,0.6l0.1,0
	c-0.1,0.2-0.2,0.4-0.3,0.6l-0.4-0.1l0.1,0.6c0.1,1,1,1.5,1.3,1.9c0.4,0.5,0.4,1.2,0.5,2c0.2,1.6,0.4,3,0.4,4.5c0,0.5,0,0.9-0.1,1.4
	c-0.3,3.3-2.6,6.2-2.7,9.9c-0.1,0.2-0.1,0.4-0.2,0.6c-0.3,1-0.6,1.9-0.6,2c-0.6,1.3-1.4,2.7-2.4,3.7c-0.1,0.1-0.6,0.3-1.1,0.6
	c-0.2,0.1-0.5,0.3-0.7,0.5c-0.2,0.2-0.4,0.5-0.4,0.8l0,0.1l0.1,0.8l0.6-0.6c0.1-0.1,0.3-0.2,0.4-0.2c0.7,0.3,1.3,1,1.7,2
	c0.4,1,0.7,2.1,0.7,2.8c0,0.1,0,0.1,0,0.1l0.2,0l0,0.1l0,0.2l0.1,0.3l0.4-0.1l0,0l0,0l-0.1,0.5l0.5,0c0.1,0,0.2,0,0.3,0.1
	c-0.2,0.1-0.4,0.4-0.4,0.6l0,0l-0.1,0c-0.3,0-0.4,0.1-0.5,0.2c-0.1,0.1-0.3,0.2-0.5,0.4l0.3,0.3l-0.4-0.1c0,0.1,0,0.3,0,0.4
	c0,0.5,0.1,1,0.3,1.4l0,0.1c-0.1,0.3-0.3,0.9-0.3,1.4c0,0.2,0,0.4,0.2,0.6l0.1,0.1c-0.1,0.1-0.1,0.3-0.1,0.5c0,0.1,0,0.3,0.1,0.4
	l0,0.1c-0.1,0.1-0.2,0.3-0.2,0.5c0,0.3,0.1,0.5,0.2,0.7c0.1,0.2,0.2,0.3,0.2,0.3l0.2,0.5l0.3-0.2c0.1,0.1,0.2,0.2,0.4,0.3
	c0.2,0.2,0.6,0.5,1,0.5l0,0l0,0c0,0.1-0.1,0.3-0.1,0.4l0,0.2l-0.1,0l0.3,0.7c0.1,0.2,0.1,0.3,0.2,0.5l0.4-0.2l0.2,0.4l0.1,0
	c0.2,0.2,0.4,0.4,0.7,0.4h0l0.1,0l0,0.5l0.5-0.1c0.4-0.1,1.2,0,1.8-0.5l0.2-0.2c0,0.1-0.1,0.2-0.1,0.4c0,0.4,0.2,0.8,0.4,1.2l0,0.1
	c-0.1,0.2-0.2,0.5-0.2,0.7c0,0.1,0,0.2,0.1,0.4l0,0l0,0l-0.2,0.4l0,0l-0.2,0.1l0.5,0.4c0.2,0.1,0.3,0.3,0.5,0.4l0.3-0.3l0,0
	c0.1,0.1,0.2,0.2,0.3,0.2c0.2,0.2,0.3,0.5,0.4,1.1l0.1,0.4c0,0.4,0.3,0.8,0.8,0.9l0.7,0.1l0.2,1l0.6-0.9l0.1-0.1l0.1,0
	c-0.1,0.3-0.3,0.7-0.4,1l-0.4,0.7l0.8-0.1l0.1,0c0,0.4,0.2,0.7,0.5,0.9c0.4,0.3,0.8,0.5,1.2,0.7c0.3,0.2,0.5,0.4,0.5,0.6l0.8,0.1v0
	c0,0.3,0.2,0.7,0.6,0.9c0.2,0.1,0.4,0.3,0.7,0.4l0,0l-0.2,0.5l0.5,0.1c0.1,0,0.2,0,0.3,0l0.1,0c0,0.1,0,0.2,0,0.3
	c0,0.2,0,0.4,0.1,0.6c0,0.1,0.1,0.2,0.2,0.3c0.1,0.1,0.2,0.2,0.3,0.2c0.1,0.2,0.2,0.3,0.3,0.4c0.1,0.1,0.1,0.2,0.1,0.2l0,0l-0.1,0.6
	l0.6-0.1l0.1,0c0,0.2,0,0.4,0,0.6l0.1,0.4l0,0.2l0,0.2l0.1,0.8l0.3-0.2c0.1,0.1,0.3,0.2,0.5,0.3l-0.1,0.1c-0.3,0.2-0.5,0.5-0.5,0.9
	c0,0.3,0.1,0.5,0.2,0.8l-0.1,0.2c-0.1,0.2-0.2,0.5-0.2,0.7c0,0.5,0.3,0.8,0.6,1.1c0.3,0.2,0.6,0.3,1,0.3c0,0.3,0.1,0.7,0.2,1.1
	c0.1,0.3,0.1,0.6,0.2,0.9c0,0.1,0.1,0.3,0.2,0.4c0.1,0.1,0.2,0.3,0.5,0.3l0,0c0,0,0.1,0.1,0.3,0.2c-0.2,0-0.4,0-0.5,0l-0.1,0l0,0.4
	l0,0l0,0.1l-0.4-0.2c0,0.1-0.1,0.2-0.1,0.3l-0.2,0.4l0.5,0.1c0.6,0.2,1.3,0.5,2.1,0.6l0.2,0l-0.1,0.2c0.7,0.6,4.1,2.4,5.1,2.8l0,0
	c0.4,0.3,0.5,0.6,0.8,1c0.2,0.4,0.6,0.7,1.2,1c0.2,0.1,0.5,0.4,0.8,0.6c0.2,0.2,0.5,0.4,0.8,0.5c0.1,0.4,0.3,0.7,0.6,0.9
	c0.5,0.4,1.1,0.7,1.7,1c0.6,0.3,1.1,0.5,1.1,0.6c1.5,1.4,2.7,3.2,4.2,4.7c1.4,1.4,3.3,2,4.7,3.1c0.9,0.7,2,0.8,2.8,1.3
	c0.5,0.3,1.2,0.6,1.9,0.6c0.1,0,0.2,0,0.4,0c0.1,0,0.2,0.1,0.4,0.1c0.4,0,0.7-0.2,1-0.5c0.4-0.5,2.2-1.4,2.8-1.4
	c1.7-0.2,3-1.4,4.3-1.9c1.5-0.6,3.2-0.6,4.9-0.8l0-0.1c0.2,0.1,0.4,0.1,0.6,0.1c0.3,0,0.5-0.1,0.6-0.1c1.3-0.2,2.6-0.5,4-0.5l0.4,0
	c0.2,0.1,0.4,0.2,0.7,0.2c0.1,0,0.3,0,0.4-0.1c0.4,0.3,0.9,0.4,1.4,0.4l0.1,0c0.5,0,0.9-0.3,1.1-0.6l0.1-0.2l0.1,0.2
	c0.2,0.2,0.4,0.5,0.7,0.7l-0.2,0.4l0.8-0.3c0.3,0.3,0.6,0.5,0.9,0.5c0.4,0.1,0.7,0.1,1,0.2c0.8,0.2,1.3,0.3,1.8,0.8
	c0.3,0.3,0.7,0.5,1.1,0.5h0c0.3,0,0.5-0.1,0.8-0.2c0.7-0.3,1.1-0.9,1.5-1.2c0.5-0.4,1.2-0.5,1.9-0.8c1-0.4,2.2-0.4,3.3-1.1
	c1.8-1.1,3.1-2.3,5.2-2.6c0.3,0,0.7-0.2,1-0.3l0.2-0.1c0.1,0.2,0.3,0.3,0.6,0.4l0.2,0c0.9,0,1.5-0.7,1.7-1.4c0,0,0.1-0.2,0.4-0.4
	c0.1-0.1,0.2-0.2,0.4-0.3c0.4-0.2,0.8-0.4,1.2-0.5l0.9-0.1c1.1-0.1,2.1-0.3,3.2-0.5c0.5-0.1,1.4-0.2,2-0.3l0,0.1l0.5-0.1l0.5,0
	l0-0.1c0.4,0,0.7-0.1,1.1-0.1c0.3,0,0.5,0,0.8,0c0.4,0,0.8,0,1.2-0.1l0.5-0.1l0,0c0.1,0,0.2,0,0.4,0c0.5,0,1-0.1,1.3-0.1
	c0.1,0,0.3,0,0.4,0c0.7,0,1.5,0.1,2.1,0.3c1.5,0.4,2.9,2,3.6,3.4l0.3,0.6l0,0c0.1,0.3,0.3,0.5,0.6,0.6c-0.1,0.1-0.2,0.2-0.2,0.4
	c0,0.3,0.2,0.5,0.4,0.6c0.2,0.1,0.4,0.2,0.6,0.2l0,0c-0.1,0.2-0.1,0.4-0.1,0.5c0,0.2,0,0.3,0.1,0.5l0.1,0.4l0.4-0.1l0,0l-0.1,0.2
	c0,0.2-0.1,0.3-0.1,0.5c0,0.8,0.4,1.4,0.7,1.9c0.4,0.7,0.9,1.5,1.7,1.9c0.2,0.1,0.3,0.2,0.5,0.3c0.2,0.1,0.2,0.2,0.6,0.3
	c0.1,0.2,0.3,0.3,0.5,0.3c0.4,0,0.5-0.2,0.7-0.4c0.1,0.1,0.3,0.1,0.4,0.1c0.2,0,0.4,0,0.7,0l0.1,0c0.1,0,0.2,0,0.3,0l0,0.6l0.7-0.8
	l0.1-0.1l0.1,0.1c0.1,0.1,0.2,0.2,0.4,0.2c0.2,0,0.4-0.1,0.4-0.2c0.1-0.1,0.1-0.2,0.2-0.3l0,0l0.2,0.2l0.4,0.2l0.2-0.4
	c0-0.1,0.1-0.3,0.1-0.4l0.2,0l-0.2,0.1l0.2,0l0,0l0.4,0l0,0.4c0.2,0,0.5-0.1,0.7-0.2l0.2-0.1c0.1,0,0.3,0,0.4,0l0-0.2l0.1,0l0.1,0.2
	c0.2-0.1,0.3-0.2,0.5-0.3l0.4-0.2c0.2,0,0.4,0,0.6,0c0.6,0,1.3-0.1,1.6-0.2c0.6-0.1,0.9-0.2,1.3-0.3c0.3-0.1,0.5-0.5,0.5-0.8
	c0.1,0.1,0.2,0.2,0.3,0.3l0,0.2c0,0.2,0.1,0.5,0.3,0.7c0.2,0.2,0.5,0.3,0.8,0.3c0.1,0,0.2,0,0.3,0l0.4,0l0-0.4l0,0
	c0.1,0,0.2,0,0.3-0.1c0.2,0.6,0.4,1.6,0.5,2.3c0.1,0.3,0.3,0.6,0.6,0.8c0.3,0.2,0.6,0.4,1,0.4l0.1,0c0.2,0.3,0.5,0.5,0.9,0.5l0.3,0
	l0.1-0.3l0.1-0.2l0.5,0c-0.1,0.1-0.2,0.2-0.4,0.3c-0.2,0.2-0.4,0.5-0.4,0.7c0,0.4,0.2,0.6,0.5,0.8c0.1,0.1,0.2,0.1,0.4,0.2v0
	c0,0.4,0.2,0.7,0.4,0.9c0.2,0.2,0.4,0.5,0.4,0.6c0.2,0.4,0.3,0.8,0.3,1.2c0,0.7-0.2,1.4-0.4,2.1c-0.1,0.5-0.2,1-0.2,1.4
	c0,0.3,0,0.5,0.1,0.8c-0.3,1.2,0,2.4-0.4,2.9c-0.1,0.1-0.2,0.4-0.4,0.6c-0.1,0.3-0.3,0.5-0.3,0.9c-0.1,0.2-0.5,0.6-0.8,1
	c-0.3,0.4-0.7,0.9-0.7,1.5c0,0.1,0,0.3,0.1,0.4c0.3,0.6,0.8,0.7,1.3,0.7l0,0.1c-0.1,0.2-0.1,0.4-0.1,0.6c0,0.5,0.1,0.9,0.2,1.3
	c-0.2-0.1-0.3-0.1-0.5-0.1c-0.1,0-0.2,0-0.3,0c-0.2,0-0.4,0.1-0.5,0.2c-0.2,0.1-0.3,0.3-0.3,0.5c0,0.4,0.2,0.5,0.4,0.7
	c0.2,0.2,0.3,0.3,0.4,0.4l-0.2,0.2c-0.5,0.4-0.6,1.1-0.6,1.7c0,0.7,0.1,1.4,0.1,1.8l0,0.2c-0.1,0.5-0.4,1-0.8,1.5
	c-0.1,0.1-0.1,0.2-0.2,0.3l-0.1-0.1l-0.6-0.6l-0.1,0.8l0,0.2l-0.1,0l0-0.2l-0.1-1.6l-0.7,1.4c-0.1,0.2-0.2,0.5-0.2,0.7
	c0,0.5,0.2,1,0.5,1.3l0.3-0.3l-0.3,0.3l0.1-0.2l-0.2,0.2l0,0c0,0,0.2,0.3,0.3,0.5c0.2,0.4,0.5,1,0.8,1.6l0.1,0.2l-0.3,0.2
	c0.4,0.7,0.9,1.3,1.1,1.9c0,0,0,0.2,0,0.4l0,0.1l0,0l0,0l0,0.2l-0.3,0l0.6,0.8c0.2,0.3,0.6,1.1,1,1.8c0.3,0.6,0.6,1.1,1.1,1.4
	l-0.1,0.1l0.4,0.4c1.5,1.5,3.2,2.9,4.3,4.6c0.8,1.2,1.7,3,3,4c1.3,1.2,3,2.6,3.4,4.1c0.1,0.2,0.2,0.8,0.3,1.2
	c0.1,0.2,0.2,0.5,0.3,0.7c0.1,0.2,0.4,0.4,0.6,0.4l0,0.1c0,0.8,0.6,1.4,0.6,1.7c0,0.1,0.1,0.3,0.1,0.3c0,0.3-0.2,0.5-0.2,1.2v0
	c0,0.3,0.1,0.6,0.3,0.8l0.1,0.1l-0.1,0c0.2,0.7,0.6,1.1,1,1.4c-0.3,0.2-0.4,0.6-0.4,1c0,1.1,0.8,2.4,1.1,2.9
	c0.6,0.9,1.4,1.5,1.6,2.3c0.2,0.5,0.1,1.2,0.4,2c0.5,1.4,0.9,2.8,1.7,4.1c0.5,0.9,0.8,1.8,0.8,2.8c0,0.2,0,0.4,0,0.7
	c0,0.1,0,0.1-0.1,0.1c-0.1,0.1-0.4,0.2-0.6,0.4c-0.1,0.1-0.2,0.2-0.3,0.3l0,0c-0.6,0.3-0.9,0.8-0.9,1.3c0,0.3,0.1,0.6,0.2,0.9
	l0.1,0.7l0.1-0.3c0.1,0.2,0.2,0.4,0.3,0.6c0.2,0.5,0.2,1,0.2,1.7c0.1,0.7,0.6,1.1,0.7,1.5c0.4,1,0.4,1.9,1.1,3
	c0.6,1,1.1,1.7,1.3,2.8c0.2,0.7,0.3,1.6,0.3,2.5c0,1.9-0.4,4.1-1.3,5.5c-0.3,0.5-0.5,1-0.6,1.2c-0.2,0.3-0.3,0.4-0.8,0.4
	c-0.9,0.1-1.5,0.7-1.7,1.3c-0.2,0.6-0.3,1.2-0.5,1.6c-0.3,0.6-1.2,1.7-1.7,2.1c-0.5,0.4-0.5,1-0.5,1.6c0,0.5-0.1,1.1-0.3,1.3
	c-0.8,1.3-0.5,2.7-0.7,3.9c-0.1,0.7-1,2.4-1,3.5c0,0.2,0,0.3,0.1,0.5c0,0-0.1,0.2-0.2,0.4c-0.1,0.2-0.3,0.4-0.3,0.8
	c-0.1,0.5-0.1,1-0.2,1.3c-0.1,0.4-0.7,0.7-1.1,1.4c-0.1,0.1-0.1,0.3-0.1,0.4c0,0.5,0.2,0.8,0.2,0.9c0,0.4,0.1,0.8,0.1,1.2
	c0,1.8-0.4,3.7-0.4,5.6c0,0.1,0,0.3,0,0.4c0,0.5-0.1,1-0.1,1.5c0,2.6,0.5,5.2,2.7,7.1c2.1,1.8,2.6,5.2,4,7.9c1.5,2.7,1.9,5.8,4,8.5
	c0.3,0.4,0.4,1.1,0.8,1.8c0.4,0.7,0.9,1.3,1.3,1.9c0.8,1.1,1.4,2.3,1.4,3.6l0,0.6c-0.1,0.7-0.4,1.9-0.4,2c0,0.2,0,0.3,0,0.5
	c0,0.7,0.1,1.7,0.2,2.5c0,0.2,0,0.5,0,0.7c0,0.6,0,1.1,0,1.7c0,0.6,0.1,1.3,0.3,2c0.5,1.4,1.2,2.6,1.4,4c0,0.1,0,0.2,0,0.3
	c0,0.4-0.1,0.9-0.1,1.4c0,0.2,0,0.5,0.1,0.7c0.1,0.5,0.1,1.1,0.2,1.7c0.1,0.9,0.4,1.6,0.4,2.3l0,0.1c0,0.2,0,0.4,0,0.6
	c0,0.3,0.1,0.6,0.3,0.9c0.4,0.5,0.4,0.7,0.4,1.1c0,0.1,0,0.3,0,0.5c0,0.2,0,0.5,0.1,0.8c0.2,0.8,0.6,1.1,0.7,1.6
	c0.1,0.6,0.1,1.3,0.5,2c0.6,1.1,1.1,2.3,1.9,3.4c0.9,1.3,2.1,2.2,2.9,3.2c0.2,0.3,0.6,0.5,0.9,0.5c0.3,1.5,1.5,2.7,1.9,3.8
	c0.5,1.3,0.8,2.8,1.2,4.2c0.9,3.1,2.4,5.8,4,8.5c1,1.7,1.6,3.3,1.6,5.2l0,0.2c0,0.5-0.1,1-0.2,1.4c-0.2,0.4-0.3,0.5-0.6,0.5
	c-0.1,0-0.3,0-0.6-0.2l-0.5-0.3l-0.2,0.5c0,0.1-0.4,0.9-0.4,1.5c0,0.2,0,0.3,0.1,0.5c0.1,0.2,0.4,0.3,0.6,0.3l0,0h0
	c0.2,0,0.1,0,0.2,0.1l0,0l0,0.2c0,0.2,0.1,0.2,0.1,0.3c0.2,0.5,1.1,1.6,1.2,1.8c0.3,0.5,0.6,1.1,0.6,1.6l0,0.2
	c0,0.4-0.5,1.3-0.6,2.1c0,0.5,0.3,1.2,1,1.4l0.6,0.2l0-0.7c0-0.3-0.1-0.6-0.1-0.8c0-0.1,0-0.3,0-0.3c0,0,0,0,0.1-0.1
	c0.1,0,0.2,0,0.2,0c0.4,0,0.5,0.2,0.5,0.5c0,0.1,0,0.3-0.1,0.5l-0.2,0.5l0.5,0.1c0.3,0.1,0.9,0.1,1.5,0.2c0.3,0.1,0.5,0.1,0.7,0.2
	l0.1,0.1l0,0c0,0,0,0.1-0.1,0.2l-0.4,0.5l0.6,0.2c0.4,0.1,0.7,0.4,1.1,0.8c0.3,0.2,0.6,0.3,0.8,0.3c0.2,0,0.3,0,0.4,0l0.1,0
	c0.4,0.1,0.5,0.2,0.8,0.2h0c0.2,0,0.4-0.1,0.5-0.2c0.1-0.1,0.2-0.2,0.5-0.4c0.6-0.5,1.4-1.2,2-1.4c0.4-0.2,1,0,1.8-0.4
	c0.1,0,0.3-0.1,0.5-0.1c0.7,0,1.8,0.2,2.8,0.2c0.7,0,1.4-0.1,1.8-0.8c0.5-0.9,2.2-1.6,3.5-1.6c0.2,0,0.4,0,0.5,0l0.2,0
	c0.2,0.1,0.5,0.1,0.7,0.1c0.4,0,0.8,0,0.9,0.1c0.3,0.1,0.5,0.2,0.7,0.2c0.3,0,0.6-0.2,0.6-0.3c0.1-0.1,0.1-0.1,0.3-0.2
	c0.4-0.1,0.7-0.2,1.2-0.2c1,0,2.1,0.4,3,0.7c0.6,0.2,1.1,0.3,1.5,0.3c1,0,1.4-0.6,2.3-1.1c0.2-0.1,0.3-0.1,0.5-0.1
	c0.6,0,1.4,0.5,2.3,0.6c0.2,0,0.5,0,0.7-0.2l0.7-0.3l-0.7-0.4c-0.2-0.2-0.2-0.2-0.2-0.2c0,0,0.1-0.2,0.2-0.4
	c0.2-0.2,0.4-0.3,0.6-0.3c0.2-0.1,0.4-0.1,0.5-0.1c0.6,0,1.2,0.2,2,0.2c0.1,0,0.3,0,0.4,0c2.3-0.3,4.2-1.9,5.8-3.1
	c2.1-1.6,4.1-3.3,6.1-5c1.7-1.4,2.6-3.3,4.1-4.5c1.9-1.6,3.5-3,5-5.1c0.8-1.2,1.5-2.4,2.2-3.6c0.4-0.7,1.2-1.3,1.5-2.3
	c0.5-1.5,1.6-2.9,2.6-4.1c0.3-0.4,0.8-0.9,1-0.9c0.1,0,0.4,0,0.7-0.1c0.1,0,0.3-0.1,0.4-0.2c0.1-0.1,0.2-0.2,0.2-0.4
	c0.9-0.2,1.5-0.9,1.9-1.7c0.5-0.9,0.7-1.9,0.9-2.5c0.7-2.5,1.4-4.7,2-7.2c0.3-0.1,0.5-0.5,0.6-0.8c0.1-0.4,0.2-0.9,0.2-1.4
	c0-0.8-0.1-1.6-0.1-2.1c0-0.1,0-0.3,0-0.4l-0.8-0.2c0,0.1-0.1,0.2-0.1,0.2l0,0c-0.1-0.1-0.4-0.4-0.7-0.7l-0.2-0.2
	c0.2-0.1,0.4-0.3,0.5-0.5c0.3-0.4,0.4-0.8,0.6-1.2c0.4-0.8,1.1-1.2,2-1.7c1.7-1.1,3.7-1.9,5.8-2.6c1.8-0.6,3.8-1.3,5.2-2.9
	c0.6-0.7,1.8-2.1,1.8-3.5c0-0.3-0.1-0.7-0.3-1l-0.5-0.8c0.3-1.2,1-2.5,1.2-3.8l0-0.2c0-0.8-0.4-1.3-0.4-1.8l0-0.1
	c0.1-0.8,0.3-1.6,0.4-2.4l-0.2,0c0-0.1,0-0.3,0-0.4l0-0.2l0.1-1.3l-0.8,1l-0.1,0.1c0-0.6-0.2-1.2-0.2-1.7c-0.1-1.1-0.7-2.2-0.7-3
	c0-0.2,0-0.3,0.1-0.5l-0.2-0.1c0-0.4,0.1-1,0.1-1.1v-0.1c0-0.7-0.1-1.5-0.7-2.2c-0.4-0.5-0.8-0.7-0.9-0.9c-0.1-0.1-0.2-0.1-0.2-0.6
	c0-0.1,0-0.2,0-0.4c0-0.1,0-0.2,0-0.3c0-0.2,0-0.3-0.1-0.5c0.1-0.1,0.2-0.2,0.3-0.4c0.1-0.2,0.2-0.5,0.2-0.8c0-0.2,0-0.4-0.1-0.6
	l0.2,0c0.5,0,0.9-0.3,1.3-0.6c0.4-0.3,0.7-0.6,0.8-0.8c0.9-0.8,1.5-1.7,2.2-2.6c0.6-0.7,1.4-1.3,2.2-1.9c0.1,0.1,0.2,0.2,0.4,0.2
	c0.3,0,0.4-0.1,0.5-0.2l0,0l0,0l0.4-0.2l0.3,0.3c0.1-0.1,0.3-0.3,0.3-0.5l0.2,0l-0.1-0.5l0-0.2c0-0.5,0.6-1.1,1.3-1.7
	c0.7-0.6,1.6-1.2,1.6-2.2c0-0.1,0-0.3-0.1-0.4c0.6-0.1,1.1-0.6,1.6-1c0.5-0.5,1.1-1,1.3-1.2c0.9-0.5,2.1-0.8,3-1.7
	c0.3-0.3,0.3-0.2,0.3-0.2c0.1,0,0.3,0,0.7-0.1c0.5-0.2,1-0.4,1.5-0.7c0.1-0.1,0.9-0.3,1.5-0.5c0.3-0.1,0.7-0.2,0.9-0.3
	c0.1-0.1,0.3-0.1,0.4-0.2c0.1-0.1,0.3-0.2,0.3-0.5l0-0.1l0,0l0.1-0.1c0.2-0.3,0.9-0.7,1.7-1.2c0.7-0.4,1.5-0.8,1.8-1.3l0,0l0.3,0.5
	l0.3-0.8c0.1-0.2,0.1-0.5,0.2-0.8c0.4-0.5,0.9-1.1,1.3-1.8c0.5-1,1.6-1.6,2.3-2.9c0.1-0.2,0.5-1,0.6-1.6c0-0.1,0-0.3-0.1-0.4
	l0.2-0.2c0.1-0.1,0.2-0.3,0.2-0.5l0-0.2l0.2-0.5l-0.1,0c0.2-0.2,0.4-0.5,0.4-0.8c0.1-0.4,0.1-0.8,0.2-1.2c0-0.1,0-0.2,0-0.3
	c0-0.5-0.3-0.9-0.7-1c0.1-0.3,0.2-0.5,0.2-0.8c0-0.1,0-0.2-0.1-0.4c-0.1-0.1-0.3-0.2-0.4-0.2c0-0.6,0.2-1.6,0.2-2.4
	c0-0.3,0-0.6-0.1-0.9c-0.1-0.2-0.2-0.4-0.4-0.6c0-0.2,0.1-0.5,0.2-0.9c0.1-0.5,0.3-1,0.3-1.4c0-0.2,0-0.5-0.2-0.7l-0.2-0.2
	c0.2-0.4,0.3-0.9,0.3-1.3c0-0.2,0-0.4-0.1-0.6c-0.1-0.2-0.2-0.4-0.3-0.5c-0.1-0.1-0.1-0.1-0.1-0.2l0-0.1c0.1-0.2,0.1-0.4,0.1-0.6
	c0-0.1,0-0.2,0-0.4l0,0l0,0c-0.1-0.2-0.1-0.3-0.1-0.3c0,0,0,0,0.1-0.2c0-0.1,0.1-0.3,0.1-0.6c0-0.2,0-0.3,0-0.5c0-0.4,0-0.8-0.1-1.1
	c0-0.3,0-0.9-0.1-1.5c-0.1-0.6-0.1-1.1-0.5-1.5c0-0.1,0.1-0.1,0.2-0.2c0.1-0.2,0.3-0.3,0.4-0.6c0.2-0.4,0.2-0.9,0.2-1.2
	c0-0.3,0.1-0.6,0.2-0.8l0.3-0.4l-0.4-0.2c0.1-0.2,0.2-0.4,0.2-0.6c0-0.5-0.3-1-0.9-1.1l0-0.1c0-0.6-0.4-1.1-0.8-1.5
	c-0.4-0.4-0.9-0.6-1.4-0.6l-0.2,0c-0.1-0.1-0.1-0.2-0.2-0.3c-0.1-0.2-0.4-0.4-0.6-0.5l0-0.2c0-0.3-0.1-0.6-0.3-0.8l0-0.1
	c0,0,0.1-0.2,0.1-0.6l0-0.2c-0.1-0.4-0.4-0.7-0.5-0.9c-0.2-0.2-0.2-0.3-0.2-0.4l0-0.1c0.1-0.2,0.3-0.6,0.3-1.1c0-0.2,0-0.4-0.2-0.6
	c-0.2-0.2-0.4-0.2-0.6-0.2c0-0.1,0-0.3-0.1-0.5c0-0.1-0.1-0.2-0.2-0.4c0.1-0.1,0.1-0.2,0.1-0.4c0-0.4-0.2-0.8-0.4-1.1
	c-0.2-0.3-0.3-0.7-0.3-0.9c0-0.1,0-0.2,0-0.3c0-0.6,0.2-1.4,0.5-2c0.1-0.3,0.2-0.7,0.2-1.1c0-0.3,0-0.5-0.1-0.8
	c-0.1-0.2-0.2-0.5-0.5-0.5c0.1-0.4,0.1-0.8,0.1-1.1c0.1-0.6,0.1-1.1,0.5-1.6c0.3-0.4,0.5-1,0.5-1.6c0-0.3-0.1-0.6-0.2-0.9
	c-0.2-0.3-0.5-0.4-0.9-0.4h0c-0.1-0.9-0.8-1.4-1.3-1.8c-0.6-0.5-1-0.8-1-1.2l0-0.2l0-0.2c0-0.6-0.4-1-0.3-1.2v0
	c0-0.3,0.1-0.6,0.2-0.9c0.2-0.7,0.5-1.3,0.8-2c0.6-1.3,1.1-2.9,1.3-4.4l0-0.1l0-0.1c0.1-0.1,0.2-0.2,0.3-0.2l0,0l0.6,0.4l0.1-0.7
	c0.1-0.9,1.3-1.9,1.4-3.4l0-0.1c0.2-0.2,0.4-0.4,0.5-0.7c0.3-0.5,0.5-1.3,0.7-1.9c0.2-0.6,0.5-1.3,0.6-1.3c0.3-0.2,0.5-0.6,0.8-1.1
	c0.3-0.5,0.5-0.9,0.5-1.4c0-0.1,0-0.2-0.1-0.3c-0.1-0.2-0.1-0.4-0.1-0.6c0-0.7,0.4-1.2,1.2-1.3c0.6-0.1,1.4-0.3,1.8-1.1l0,0l0,0.3
	l0.7-0.7c0.2-0.2,0.3-0.6,0.3-0.9c0-0.3-0.1-0.5-0.2-0.8l0,0l0-0.1c0.1,0,0.3,0.1,0.4,0.1c1.1,0,2-1,2.5-1.6
	c0.1-0.2,0.2-0.4,0.3-0.6c0.9-1.1,1.9-2.5,2.1-4.1c0.2,0,0.4-0.2,0.5-0.3c0.5-0.4,1-1.2,1.2-1.4c0.6-0.8,1.2-1.7,1.8-2.4
	c1.3-1.6,2.7-3.2,4-4.8c1.3-1.6,3-3.1,4.5-4.6c1.3-1.3,2.8-2.3,4.4-3.3c3.8-2.4,6.7-5.3,9.6-8.7c1.4-1.7,2.8-3.4,4.2-5.2
	c1.3-1.6,2-3.6,3.1-5.2c1.1-1.7,2.3-3.4,3.2-5.4c0.8-2,0.9-4,1.8-5.7c0.7-1.3,1.8-2.5,2.4-4.1c0.3-0.8,0-1.5,0.3-1.9
	c0.2-0.4,0.6-0.5,1.2-1.1c1.2-1.4,1-3.3,1.8-4.4c0.7-1.1,1.5-2.1,1.9-3.4c0.3-1,0.3-2,0.3-3c0-0.5,0-1,0-1.6l0-0.1
	c0-0.4,0.1-0.4,0.2-0.5c0.1-0.1,0.3-0.1,0.6-0.1c0.1,0,0.3,0,0.5,0c0.2,0,0.5,0,0.7-0.1c0.3-0.1,0.5-0.4,0.6-0.7l0.1-0.4
	L669.9,286.6z"/>
<path class="st5" d="M669.9,286.6c-0.3-0.1-0.6-0.2-0.9-0.4l-0.2-0.2c0-0.3,0.1-0.5,0.1-0.8c0-0.6-0.1-1.3-0.2-1.8
	c-0.1-0.4-0.1-0.8-0.1-1.1c0-0.9,0.2-1.6,0.5-2.7c0-0.1,0-0.2,0-0.3c0-0.7-0.6-1.1-1.1-1.4c-0.6-0.3-1.2-0.4-1.8-0.4
	c-0.3,0-0.6,0-0.8,0.2c-0.6,0.3-0.8,0.8-1.1,1.2c-0.2,0.4-0.5,0.8-0.8,1c-1,0.5-2.3,0.3-3.6,0.8c-1.1,0.5-2,1.1-2.9,1.1l-0.2,0
	c-0.5,0-1-0.3-1.7-0.3c-0.2,0-0.4,0-0.6,0.1c-0.8,0.2-1.5,0.5-2.1,0.8c-0.5,0.2-0.9,0.3-1.3,0.3c-0.4,0-0.8-0.1-1.4-0.3
	c-0.1,0-0.3-0.1-0.4-0.1c-0.7,0-1.3,0.4-2,0.9c-0.6,0.4-1.2,0.9-1.4,1.1c-0.7,0.4-1.2,0.5-1.6,0.5c-0.5,0-1.1-0.1-1.9-0.3
	c-0.6-0.1-1.1-0.2-1.5-0.2c-0.6,0-1.2,0.2-1.9,0.8c-0.7,0.5-1.8,1.2-2.5,1.5c-0.6,0.2-1.2,0.3-1.8,0.3c-1.4,0-2.6-0.6-3.5-1.7
	c-1.1-1.3-2-3.6-3.8-4.6c-0.2-0.2-0.4-0.5-0.7-0.6c-0.2-0.1-0.3-0.1-0.5-0.1c-0.5,0-1,0.2-1.4,0.3c0.2-0.3,0.4-0.5,0.6-0.6
	c0.8-0.3,2.2-0.9,2.9-1.7c0.2-0.3,0.3-0.7,0.3-1c0-0.7-0.4-1.4-0.8-2c-0.3-0.5-0.7-1-0.9-1.3l0-0.2c-0.1-0.6-0.4-0.8-0.8-1.1
	l-0.5-0.4l-0.2,0.6l0,0.1l0,0c-0.2-0.1-0.5-0.5-0.8-0.9c-0.3-0.4-0.5-0.8-0.7-1c-0.3-0.3-0.6-0.4-0.8-0.4c-0.2-0.1-0.2-0.1-0.3-0.2
	c-0.2-0.5-0.1-1.6-1-2.3l-1-0.7c-0.3-0.3-0.6-0.5-1-0.7c-0.9-0.6-1.4-1.5-2.1-2.4c-0.6-0.9-1.2-2.1-2.7-2.3
	c-0.5-0.1-0.6-0.2-0.8-0.4c-0.2-0.2-0.4-0.5-0.8-0.9c-0.3-0.3-0.7-0.5-1-0.5c-0.6,0-0.9,0.3-1.1,0.3l-0.2,0c-0.3-0.1-0.8-1-0.8-1.5
	c0-0.3-0.1-0.7-0.4-1c-0.2-0.3-0.6-0.6-1.1-0.6l-0.2,0c-0.2,0-0.4,0.2-0.5,0.3c-0.1,0.1-0.1,0.2-0.1,0.3c-0.1-0.5-0.5-0.7-0.7-0.9
	c-0.2-0.2-0.3-0.3-0.3-0.4c-0.2-1-0.6-1.7-1-2.5c-0.3-0.6-0.3-1.4-0.5-2.2c-0.8-3.4-1.9-6.3-3.4-9.4l0,0c0-0.4-0.2-0.6-0.5-0.8
	c-0.3-0.3-0.7-0.4-0.9-0.5c-0.3-0.2-0.3-0.2-0.3-0.3l0-0.9l-0.6,0.5c-0.2-0.1-0.8-0.7-1.3-1.2c-0.6-0.6-1.1-1.2-1.8-1.4
	c-0.5-0.1-1.1-0.8-1.4-1.8c-0.3-1-0.5-2.1-0.5-2.8c-0.1-1.7-0.5-3.2-0.5-4.7c0-0.3,0-0.6,0.1-1c0-0.2,0-0.3,0-0.5
	c0-0.9-0.3-1.7-0.6-2.4c0-0.1-0.1-0.2-0.1-0.2l0.8-0.1c0-0.9-0.5-1.5-1-2.1c-0.5-0.6-0.9-1.1-1.1-1.6c-0.2-0.7-0.2-1.2-0.2-1.8
	c-0.1-0.6-0.4-1.2-1.2-1.7c-1-0.7-1.7-2.1-3-2.9c-1.3-0.7-2.1-1.1-2.5-2.4l-0.2-0.8l-0.1,0.1l-0.1-0.1c-0.4-0.4-0.6-1.5-0.6-2.6
	c0-0.3,0-0.7,0.1-1c0.3,0.1,0.7,0.1,1,0.1l0.2,0l0.7,0l-0.4-0.6c-0.7-1.1-1.8-1.3-2.2-2.1c-0.7-1-1.4-1.7-1.9-2.7
	c-1.3-2.7-2.7-5.3-4.1-7.9c-0.4-0.8-0.9-1.6-1.3-2.4c-0.1-0.3-0.3-0.5-0.5-0.7c-0.1-0.1-0.2-0.2-0.2-0.3l-0.1-0.1c0,0,0-0.1,0.1-0.2
	c0.1-0.1,0.2-0.3,0.2-0.6c0-0.1,0-0.3-0.1-0.4c-0.3-0.4-0.6-0.8-0.7-1.2c-0.4-0.9-0.8-1.8-1.6-2.6c-0.1-0.1-0.1-0.2-0.1-0.4
	c0-0.1,0-0.2,0-0.3c0-0.2,0-0.4-0.1-0.6c0.1-0.1,0.1-0.3,0.1-0.3c0-0.3-0.1-0.5-0.3-0.8c-0.1-0.2-0.3-0.4-0.4-0.6
	c-0.4-0.5-1-0.9-1.4-1.3c-0.9-0.9-1.8-2.3-2.6-3.5c-0.8-1.2-0.7-2.8-1.9-4.3c-0.1-0.1-0.2-0.3-0.2-0.5c0-0.3,0.1-0.7,0.3-1.1
	c0.4,1.3,1,2.5,1.8,3.7c0.7,0.9,1.7,1.8,1.7,2.6c0,0.1,0,0.2,0,0.3c0,0.1,0,0.2,0,0.3c0,0.8,0.5,1.3,1,1.7c0.5,0.4,1,0.8,1.2,1.1
	c0.5,0.7,1,1.5,1.8,2c0.6,0.4,1.3,0.7,1.7,1l0.7-0.5l0-0.1c0-0.2,0.1-0.5,0.4-0.9c0.2-0.4,0.5-0.8,0.5-1.3v0v0c0-0.2,0-0.3,0-0.5
	c0-0.7,0-1.1,0.3-1.8c0.7-1.8,0.5-4.2,1.4-5.3l0.2-0.2l-4.5-11.8l-0.5,0.4c-0.6,0.5-1.4,0.9-2.2,1.1c-0.7,0.2-1.5,0-2.4,0.3
	l-0.1-0.1c-0.2-0.1-0.4-0.2-0.5-0.2c-0.3,0-0.6,0.1-0.9,0.2c-0.3,0.1-0.5,0.2-0.5,0.2l-0.2,0c-0.5,0-0.8-0.2-1.2-0.5
	c-0.4-0.3-0.9-0.7-1.6-0.8l0,0l0,0c-0.1-0.1-0.3-0.3-0.5-0.6c-0.2-0.3-0.4-0.6-0.9-0.7c-0.1,0-0.3-0.1-0.4-0.1
	c-0.3,0-0.5,0.1-0.7,0.2l0,0l0,0c-0.3,0.1-0.6,0.3-0.7,0.3l-0.1,0c-0.3,0-0.6-0.2-1-0.4c-0.4-0.2-0.9-0.5-1.5-0.5
	c-0.2,0-0.4,0-0.6,0.1l0,0.2l-0.2,0l-0.1,0c-0.9,0-1.5,0.6-1.9,0.5c-0.1,0-0.2,0-0.3-0.1l-0.5-0.3l-0.1,0.6
	c-0.1,0.3-0.4,0.7-0.7,0.9c-0.1-0.1-0.2-0.1-0.3-0.2l-0.3-0.2l-0.3,0.3c-0.5,0.5-0.9,0.9-1.4,1.3c-0.8,0.7-1.9,1.4-2.9,1.4
	c-0.1,0-0.2,0-0.4,0c-1.2-0.2-2.2-1.1-3.9-1.3c-0.5,0-0.9-0.1-1.3-0.1c0,0-0.1-0.1-0.3-0.2c-0.1-0.1-0.3-0.4-0.8-0.4l-0.1,0
	c-0.3,0-0.5,0.1-0.8,0.1c-0.2,0-0.4,0-0.6-0.1c-0.2-0.1-0.3-0.2-0.5-0.4c-0.2-0.2-0.4-0.5-0.9-0.6c-1.5-0.4-2.9-0.7-4.5-0.9
	c-0.9-0.1-1.8-0.4-2.8-0.4c-0.4,0-0.8,0.1-1.3,0.2c-0.4,0.1-0.9,0.3-1.2,0.2c-0.2,0-0.3,0-0.4-0.1c-0.1,0-0.1-0.1-0.1-0.3l0-0.9
	l-0.1,0.1c-0.1-0.3-0.3-0.5-0.4-0.8c-0.3-0.4-0.7-0.8-1.2-0.9c-0.3-0.1-0.6-0.1-0.9-0.1c-0.5,0-1,0.1-1.5,0.1c-0.4,0-0.7,0-1.1-0.1
	c-1.1-0.3-1.9-0.9-3.3-1c-0.3,0-0.8-0.1-1.2-0.2c-0.4-0.2-0.6-0.3-0.6-0.5c0-0.1,0-0.2,0-0.3c0-0.2,0-0.3,0-0.4c0-0.2,0-0.6-0.3-0.8
	c-0.2-0.2-0.5-0.4-1-0.6c-1-0.4-2-1-3.2-1.3c-0.6-0.2-1.3-0.2-1.9-0.2c-0.4,0-0.8,0-1.2,0.1c-1.2,0.1-1.8,0.9-2.6,0.9
	c-1.2,0-2.5,0.7-3.7,1.6c-1.2,0.9-2.2,2-2.6,3.1c-0.1,0.4-0.2,0.8-0.2,1.2c0,0.8,0.2,1.6,0.4,2.3c0.3,0.9,0.8,1.6,0.8,2.2
	c0,0.1,0,0.2,0,0.3c-0.4,2-2.7,3.9-4.7,4l-0.2,0c-1.5,0-2.6-1.5-4-2.7c-1.8-1.4-4.8-2.4-6.9-2.8c-2.2-0.4-4.2-0.1-5.8-1.4
	c-0.9-0.8-1.3-1.6-1.5-2.8c-0.2-0.9-0.3-2.1-1.4-2.9c-1-0.6-2.2-0.3-2.8-0.5c-0.8-0.3-1.6-1-2.6-1.5c-1.2-0.5-2.3-0.5-3.3-0.9
	c-0.3-0.1-0.6-0.2-0.9-0.2c-1,0-1.7,0.5-2.5,0.6c-0.2,0-0.4,0-0.6,0c-0.9,0-1.7-0.2-2.4-0.7c-1-0.6-2.2-0.9-3-1.5l-0.1-0.1l-0.2-0.2
	l-0.3-0.2l0,0.1c-0.2-0.1-0.4-0.1-0.6-0.1l-0.2,0c0-0.4-0.2-0.5-0.3-0.6c-0.1-0.2-0.2-0.3-0.3-0.4l0-0.1c0-0.1,0-0.2,0-0.3
	c0-0.3-0.2-0.7-0.6-0.8l-0.1,0c0.2-0.2,0.3-0.4,0.3-0.8c0-0.2-0.2-0.5-0.4-0.6c-0.2-0.1-0.5-0.1-0.8-0.1l0,0c-0.3,0-0.5,0-0.8,0.2
	c-0.3,0.1-0.4,0.5-0.4,0.8c0,0.1,0,0.2,0,0.3c-0.4,0-0.6,0.1-0.8,0.1c-0.1,0-0.1,0-0.2-0.1c-0.4-0.2-0.8-0.6-1.1-1
	c-0.3-0.5-0.4-0.8-0.4-1.1c0-0.4,0.3-0.7,0.8-1.1c0.5-0.4,1.2-0.7,1.8-1.2c1.3-1.1,2.6-2.8,2.6-4.6c0-0.3,0-0.5-0.1-0.8
	c-0.2-0.7-0.2-1.2-0.5-1.6c-0.3-0.4-0.7-0.6-1.3-1c-0.6-0.3-1.2-1.3-1.1-2.1l0-0.1c0-0.4,0.4-0.9,1.1-1.5c0.6-0.6,1.3-1.1,1.7-1.8
	c0.2-0.3,0.3-0.6,0.3-1c0-0.5-0.3-1-0.8-1.2c-0.1,0-0.2-0.1-0.3-0.1c-0.4,0-0.6,0.2-0.8,0.4c-0.2,0.2-0.4,0.4-0.5,0.4
	c-0.5,0.4-0.9,0.8-1.4,1l0,0l-0.1,0c0-0.1,0.1-0.2,0.1-0.4c0-0.4-0.2-0.7-0.5-0.9c0-0.1,0.1-0.2,0.1-0.3c0-0.1,0-0.2-0.1-0.3
	c-0.2-0.5-0.5-0.8-0.8-0.9c-0.3-0.1-0.6-0.1-1-0.2c-0.1-0.2-0.3-0.3-0.5-0.3c-0.2-0.1-0.4-0.1-0.5-0.1c-0.6,0-1.1,0.3-1.5,0.4
	c-1.1,0.3-2,0.7-2.8,1.6c-0.1,0.1-0.2,0.1-0.3,0.2c-0.1,0-0.2,0-0.4,0.1l0,0l0,0l-0.2,0l-0.2,0.1l-0.1,0c-0.7,0.3-1.7,0-2.7,0.3
	c-0.2,0.1-0.6,0.1-0.8,0.1l0,0l0.4-0.7l-0.8,0l-0.1,0c-0.4,0-0.9-0.4-1.6-0.6c-0.2,0-0.3-0.1-0.5-0.1c-0.4,0-0.7,0.3-0.7,0.5
	c-0.1,0.2-0.1,0.2-0.2,0.3c-0.3,0.2-0.6,0.3-0.9,0.3c-0.5,0-1.1-0.2-1.5-0.5c-0.3-0.2-0.9-0.5-1.6-0.5c-0.2,0-0.4,0-0.6,0.2
	c-0.2,0.2-0.3,0.4-0.3,0.7l0,0.2c-0.1,0.1-0.6,0.2-1,0.3c-0.5,0.1-1,0.1-1.2,0.1c-0.6,0.1-1,0.4-1.3,0.6c-0.3,0.2-0.5,0.4-0.7,0.4
	c-0.1,0-0.3,0-0.6-0.3c-0.9-0.7-1.5-1.1-2.7-1.1l-0.2,0c-0.2,0-0.3,0-0.5,0c-0.5,0-0.9,0-1.4,0c-1,0-2,0.1-3,0.5
	c-0.1,0-0.6,0.1-1.1,0.1c-0.2,0-0.4,0-0.6,0l-0.2,0l-0.1,0c0,0-0.1,0-0.3,0.2c-0.2-0.1-0.4-0.2-0.6-0.2c-0.6,0-1,0.3-1.4,0.6
	c-0.4,0.2-0.7,0.4-1.1,0.4l-0.1,0c-0.2,0-0.4,0-0.5,0c-1.5,0-2.9,0.4-4.3,0.5c-2.3,0.3-6.2,1.2-7.5,3.7c-0.3,0.5-0.4,0.5-0.5,0.5
	c-0.3,0-0.7-0.3-1.4-0.3c-0.2,0-0.5,0.1-0.8,0.3c-0.2,0.3-0.7,0.6-0.8,0.6l0,0c-0.2-0.1-0.4-0.2-0.5-0.2c-0.6,0-1.1,0.5-1.3,0.6
	c-0.7,0.4-1,1-1.3,1.5c-0.2,0.3-0.3,0.3-0.4,0.4c-0.2,0.1-0.4,0.2-0.8,0.3c-1.4,0.7-2,1-3.4,1.1c-0.2-0.1-0.5-0.3-0.8-0.3
	c-0.2,0-0.4,0-0.6,0.1c-0.1,0.1-0.3,0.1-0.4,0.1c-0.3,0-0.5-0.1-0.7-0.3c-0.1-0.1-0.1-0.2-0.2-0.3l-0.1,0.1
	c-0.1-0.4-0.2-0.5-0.2-0.9l0-0.1l-0.8-0.2c-0.4,0.8-1,0.9-1.8,1c-0.6,0-1.3-0.1-2-0.1c-0.2,0-0.4,0-0.5,0c-0.9,0.1-1.6,0.2-2.3,0.2
	c-0.8,0-1.6-0.2-2.5-0.8c-0.8-0.5-1.2-1.1-1.5-1.9c-0.1-0.2-0.1-0.4-0.3-0.7c-0.1-0.3-0.4-0.6-0.8-0.6c-0.2,0-0.3,0.1-0.5,0.1
	c-0.4,0.2-0.9,0.4-1.4,0.4l-0.1,0l-0.1,0c-0.4,0-0.6,0.3-0.7,0.4c-0.4,0.6-0.7,1.6-0.7,1.8c-1.3,3.4-2.9,7.9-6,9.7
	c-1.6,0.9-3.5,1.6-5.3,2.4c-1.8,0.8-2.8,2.3-4,3.4c-0.6,0.6-1.3,1.2-1.6,2.2c-0.4,1.3-0.2,2.1-0.8,2.9c-1.4,1.7-2.3,2.9-2.4,5.2
	c0,0.9,0,1.5-0.3,2.2c-0.1,0.2-0.2,0.4-0.2,0.7c0,0.3,0.2,0.6,0.4,0.7c0.2,0.1,0.4,0.2,0.5,0.4c0.3,0.2,0.4,0.5,0.4,0.9
	c0,1-1,2.7-1.5,3.3c-1.1,1.4-2.2,3-3.5,4.1c-1.4,1.2-2.9,2.3-4.3,3.6c-1.3,1.3-3.1,1.8-5,2.2c-1,0.2-2,0.3-3.1,0.6
	c-0.2,0.1-0.3,0.2-0.5,0.4c-0.3,0.3-0.6,0.9-0.9,1.1c-0.1,0-0.1,0.1-0.2,0.1l-0.1,0.1l-0.6,0.7l0.4,0c-0.1,0.2-0.2,0.4-0.3,0.6
	c-0.3,0.6-0.6,1.3-0.8,1.9c-0.8,2.2-1.8,3-3.9,4.2c-2.1,1.2-2.7,3.5-3.4,5.4c-1,2.5-0.6,4.4-2.3,6.1c-1.4,1.4-3.6,2.8-4.5,4.8
	l0.7,0.4c-0.1,0.3-0.3,0.7-0.6,1c-0.4,0.7-0.9,1.3-1.1,1.6c-0.2,0.4-0.2,0.7-0.3,1c0,0.1,0,0.2,0,0.3l0,0c-0.5,0.3-0.7,0.8-0.8,1.2
	c-0.1,0.4-0.2,0.9-0.3,1.2c-0.2,0.5-0.5,0.8-0.9,1.1c-0.4,0.3-1,0.6-1.4,1.2c-0.6,1-0.9,2-1,3c-0.2,1-0.9,2.7-0.9,4.2
	c0,0.5,0.1,1,0.3,1.4l0.4-0.2l0.4,0.1c0.1-0.4,0.2-0.9,0.4-1.4c0.1,0.3,0.2,0.6,0.4,0.9c0.2,0.6,0.4,1.4,1.1,1.9l0.6,0.4l0.1-0.5
	c0.4,0.8,0.9,1.8,0.9,2.4c0,0.3-0.1,0.5-0.3,0.7l-0.1,0.1l-0.4,0.4c-0.3,0.3-0.7,0.8-0.7,1.4c0,0.2,0,0.4,0.2,0.6l0.1,0
	c-0.1,0.2-0.2,0.4-0.3,0.6l-0.4-0.1l0.1,0.6c0.1,1,1,1.5,1.3,1.9c0.4,0.5,0.4,1.2,0.5,2c0.2,1.6,0.4,3,0.4,4.5c0,0.5,0,0.9-0.1,1.4
	c-0.3,3.3-2.6,6.2-2.7,9.9c-0.1,0.2-0.1,0.4-0.2,0.6c-0.3,1-0.6,1.9-0.6,2c-0.6,1.3-1.4,2.7-2.4,3.7c-0.1,0.1-0.6,0.3-1.1,0.6
	c-0.2,0.1-0.5,0.3-0.7,0.5c-0.2,0.2-0.4,0.5-0.4,0.8l0,0.1l0.1,0.8l0.6-0.6c0.1-0.1,0.3-0.2,0.4-0.2c0.7,0.3,1.3,1,1.7,2
	c0.4,1,0.7,2.1,0.7,2.8c0,0.1,0,0.1,0,0.1l0.2,0l0,0.1l0,0.2l0.1,0.3l0.4-0.1l0,0l0,0l-0.1,0.5l0.5,0c0.1,0,0.2,0,0.3,0.1
	c-0.2,0.1-0.4,0.4-0.4,0.6l0,0l-0.1,0c-0.3,0-0.4,0.1-0.5,0.2c-0.1,0.1-0.3,0.2-0.5,0.4l0.3,0.3l-0.4-0.1c0,0.1,0,0.3,0,0.4
	c0,0.5,0.1,1,0.3,1.4l0,0.1c-0.1,0.3-0.3,0.9-0.3,1.4c0,0.2,0,0.4,0.2,0.6l0.1,0.1c-0.1,0.1-0.1,0.3-0.1,0.5c0,0.1,0,0.3,0.1,0.4
	l0,0.1c-0.1,0.1-0.2,0.3-0.2,0.5c0,0.3,0.1,0.5,0.2,0.7c0.1,0.2,0.2,0.3,0.2,0.3l0.2,0.5l0.3-0.2c0.1,0.1,0.2,0.2,0.4,0.3
	c0.2,0.2,0.6,0.5,1,0.5l0,0l0,0c0,0.1-0.1,0.3-0.1,0.4l0,0.2l-0.1,0l0.3,0.7c0.1,0.2,0.1,0.3,0.2,0.5l0.4-0.2l0.2,0.4l0.1,0
	c0.2,0.2,0.4,0.4,0.7,0.4h0l0.1,0l0,0.5l0.5-0.1c0.4-0.1,1.2,0,1.8-0.5l0.2-0.2c0,0.1-0.1,0.2-0.1,0.4c0,0.4,0.2,0.8,0.4,1.2l0,0.1
	c-0.1,0.2-0.2,0.5-0.2,0.7c0,0.1,0,0.2,0.1,0.4l0,0l0,0l-0.2,0.4l0,0l-0.2,0.1l0.5,0.4c0.2,0.1,0.3,0.3,0.5,0.4l0.3-0.3l0,0
	c0.1,0.1,0.2,0.2,0.3,0.2c0.2,0.2,0.3,0.5,0.4,1.1l0.1,0.4c0,0.4,0.3,0.8,0.8,0.9l0.7,0.1l0.2,1l0.6-0.9l0.1-0.1l0.1,0
	c-0.1,0.3-0.3,0.7-0.4,1l-0.4,0.7l0.8-0.1l0.1,0c0,0.4,0.2,0.7,0.5,0.9c0.4,0.3,0.8,0.5,1.2,0.7c0.3,0.2,0.5,0.4,0.5,0.6l0.8,0.1v0
	c0,0.3,0.2,0.7,0.6,0.9c0.2,0.1,0.4,0.3,0.7,0.4l0,0l-0.2,0.5l0.5,0.1c0.1,0,0.2,0,0.3,0l0.1,0c0,0.1,0,0.2,0,0.3
	c0,0.2,0,0.4,0.1,0.6c0,0.1,0.1,0.2,0.2,0.3c0.1,0.1,0.2,0.2,0.3,0.2c0.1,0.2,0.2,0.3,0.3,0.4c0.1,0.1,0.1,0.2,0.1,0.2l0,0l-0.1,0.6
	l0.6-0.1l0.1,0c0,0.2,0,0.4,0,0.6l0.1,0.4l0,0.2l0,0.2l0.1,0.8l0.3-0.2c0.1,0.1,0.3,0.2,0.5,0.3l-0.1,0.1c-0.3,0.2-0.5,0.5-0.5,0.9
	c0,0.3,0.1,0.5,0.2,0.8l-0.1,0.2c-0.1,0.2-0.2,0.5-0.2,0.7c0,0.5,0.3,0.8,0.6,1.1c0.3,0.2,0.6,0.3,1,0.3c0,0.3,0.1,0.7,0.2,1.1
	c0.1,0.3,0.1,0.6,0.2,0.9c0,0.1,0.1,0.3,0.2,0.4c0.1,0.1,0.2,0.3,0.5,0.3l0,0c0,0,0.1,0.1,0.3,0.2c-0.2,0-0.4,0-0.5,0l-0.1,0l0,0.4
	l0,0l0,0.1l-0.4-0.2c0,0.1-0.1,0.2-0.1,0.3l-0.2,0.4l0.5,0.1c0.6,0.2,1.3,0.5,2.1,0.6l0.2,0l-0.1,0.2c0.7,0.6,4.1,2.4,5.1,2.8l0,0
	c0.4,0.3,0.5,0.6,0.8,1c0.2,0.4,0.6,0.7,1.2,1c0.2,0.1,0.5,0.4,0.8,0.6c0.2,0.2,0.5,0.4,0.8,0.5c0.1,0.4,0.3,0.7,0.6,0.9
	c0.5,0.4,1.1,0.7,1.7,1c0.6,0.3,1.1,0.5,1.1,0.6c1.5,1.4,2.7,3.2,4.2,4.7c1.4,1.4,3.3,2,4.7,3.1c0.9,0.7,2,0.8,2.8,1.3
	c0.5,0.3,1.2,0.6,1.9,0.6c0.1,0,0.2,0,0.4,0c0.1,0,0.2,0.1,0.4,0.1c0.4,0,0.7-0.2,1-0.5c0.4-0.5,2.2-1.4,2.8-1.4
	c1.7-0.2,3-1.4,4.3-1.9c1.5-0.6,3.2-0.6,4.9-0.8l0-0.1c0.2,0.1,0.4,0.1,0.6,0.1c0.3,0,0.5-0.1,0.6-0.1c1.3-0.2,2.6-0.5,4-0.5l0.4,0
	c0.2,0.1,0.4,0.2,0.7,0.2c0.1,0,0.3,0,0.4-0.1c0.4,0.3,0.9,0.4,1.4,0.4l0.1,0c0.5,0,0.9-0.3,1.1-0.6l0.1-0.2l0.1,0.2
	c0.2,0.2,0.4,0.5,0.7,0.7l-0.2,0.4l0.8-0.3c0.3,0.3,0.6,0.5,0.9,0.5c0.4,0.1,0.7,0.1,1,0.2c0.8,0.2,1.3,0.3,1.8,0.8
	c0.3,0.3,0.7,0.5,1.1,0.5h0c0.3,0,0.5-0.1,0.8-0.2c0.7-0.3,1.1-0.9,1.5-1.2c0.5-0.4,1.2-0.5,1.9-0.8c1-0.4,2.2-0.4,3.3-1.1
	c1.8-1.1,3.1-2.3,5.2-2.6c0.3,0,0.7-0.2,1-0.3l0.2-0.1c0.1,0.2,0.3,0.3,0.6,0.4l0.2,0c0.9,0,1.5-0.7,1.7-1.4c0,0,0.1-0.2,0.4-0.4
	c0.1-0.1,0.2-0.2,0.4-0.3c0.4-0.2,0.8-0.4,1.2-0.5l0.9-0.1c1.1-0.1,2.1-0.3,3.2-0.5c0.5-0.1,1.4-0.2,2-0.3l0,0.1l0.5-0.1l0.5,0
	l0-0.1c0.4,0,0.7-0.1,1.1-0.1c0.3,0,0.5,0,0.8,0c0.4,0,0.8,0,1.2-0.1l0.5-0.1l0,0c0.1,0,0.2,0,0.4,0c0.5,0,1-0.1,1.3-0.1
	c0.1,0,0.3,0,0.4,0c0.7,0,1.5,0.1,2.1,0.3c1.5,0.4,2.9,2,3.6,3.4l0.3,0.6l0,0c0.1,0.3,0.3,0.5,0.6,0.6c-0.1,0.1-0.2,0.2-0.2,0.4
	c0,0.3,0.2,0.5,0.4,0.6c0.2,0.1,0.4,0.2,0.6,0.2l0,0c-0.1,0.2-0.1,0.4-0.1,0.5c0,0.2,0,0.3,0.1,0.5l0.1,0.4l0.4-0.1l0,0l-0.1,0.2
	c0,0.2-0.1,0.3-0.1,0.5c0,0.8,0.4,1.4,0.7,1.9c0.4,0.7,0.9,1.5,1.7,1.9c0.2,0.1,0.3,0.2,0.5,0.3c0.2,0.1,0.2,0.2,0.6,0.3
	c0.1,0.2,0.3,0.3,0.5,0.3c0.4,0,0.5-0.2,0.7-0.4c0.1,0.1,0.3,0.1,0.4,0.1c0.2,0,0.4,0,0.7,0l0.1,0c0.1,0,0.2,0,0.3,0l0,0.6l0.7-0.8
	l0.1-0.1l0.1,0.1c0.1,0.1,0.2,0.2,0.4,0.2c0.2,0,0.4-0.1,0.4-0.2c0.1-0.1,0.1-0.2,0.2-0.3l0,0l0.2,0.2l0.4,0.2l0.2-0.4
	c0-0.1,0.1-0.3,0.1-0.4l0.2,0l-0.2,0.1l0.2,0l0,0l0.4,0l0,0.4c0.2,0,0.5-0.1,0.7-0.2l0.2-0.1c0.1,0,0.3,0,0.4,0l0-0.2l0.1,0l0.1,0.2
	c0.2-0.1,0.3-0.2,0.5-0.3l0.4-0.2c0.2,0,0.4,0,0.6,0c0.6,0,1.3-0.1,1.6-0.2c0.6-0.1,0.9-0.2,1.3-0.3c0.3-0.1,0.5-0.5,0.5-0.8
	c0.1,0.1,0.2,0.2,0.3,0.3l0,0.2c0,0.2,0.1,0.5,0.3,0.7c0.2,0.2,0.5,0.3,0.8,0.3c0.1,0,0.2,0,0.3,0l0.4,0l0-0.4l0,0
	c0.1,0,0.2,0,0.3-0.1c0.2,0.6,0.4,1.6,0.5,2.3c0.1,0.3,0.3,0.6,0.6,0.8c0.3,0.2,0.6,0.4,1,0.4l0.1,0c0.2,0.3,0.5,0.5,0.9,0.5l0.3,0
	l0.1-0.3l0.1-0.2l0.5,0c-0.1,0.1-0.2,0.2-0.4,0.3c-0.2,0.2-0.4,0.5-0.4,0.7c0,0.4,0.2,0.6,0.5,0.8c0.1,0.1,0.2,0.1,0.4,0.2v0
	c0,0.4,0.2,0.7,0.4,0.9c0.2,0.2,0.4,0.5,0.4,0.6c0.2,0.4,0.3,0.8,0.3,1.2c0,0.7-0.2,1.4-0.4,2.1c-0.1,0.5-0.2,1-0.2,1.4
	c0,0.3,0,0.5,0.1,0.8c-0.3,1.2,0,2.4-0.4,2.9c-0.1,0.1-0.2,0.4-0.4,0.6c-0.1,0.3-0.3,0.5-0.3,0.9c-0.1,0.2-0.5,0.6-0.8,1
	c-0.3,0.4-0.7,0.9-0.7,1.5c0,0.1,0,0.3,0.1,0.4c0.3,0.6,0.8,0.7,1.3,0.7l0,0.1c-0.1,0.2-0.1,0.4-0.1,0.6c0,0.5,0.1,0.9,0.2,1.3
	c-0.2-0.1-0.3-0.1-0.5-0.1c-0.1,0-0.2,0-0.3,0c-0.2,0-0.4,0.1-0.5,0.2c-0.2,0.1-0.3,0.3-0.3,0.5c0,0.4,0.2,0.5,0.4,0.7
	c0.2,0.2,0.3,0.3,0.4,0.4l-0.2,0.2c-0.5,0.4-0.6,1.1-0.6,1.7c0,0.7,0.1,1.4,0.1,1.8l0,0.2c-0.1,0.5-0.4,1-0.8,1.5
	c-0.1,0.1-0.1,0.2-0.2,0.3l-0.1-0.1l-0.6-0.6l-0.1,0.8l0,0.2l-0.1,0l0-0.2l-0.1-1.6l-0.7,1.4c-0.1,0.2-0.2,0.5-0.2,0.7
	c0,0.5,0.2,1,0.5,1.3l0.3-0.3l-0.3,0.3l0.1-0.2l-0.2,0.2l0,0c0,0,0.2,0.3,0.3,0.5c0.2,0.4,0.5,1,0.8,1.6l0.1,0.2l-0.3,0.2
	c0.4,0.7,0.9,1.3,1.1,1.9c0,0,0,0.2,0,0.4l0,0.1l0,0l0,0l0,0.2l-0.3,0l0.6,0.8c0.2,0.3,0.6,1.1,1,1.8c0.3,0.6,0.6,1.1,1.1,1.4
	l-0.1,0.1l0.4,0.4c1.5,1.5,3.2,2.9,4.3,4.6c0.8,1.2,1.7,3,3,4c1.3,1.2,3,2.6,3.4,4.1c0.1,0.2,0.2,0.8,0.3,1.2
	c0.1,0.2,0.2,0.5,0.3,0.7c0.1,0.2,0.4,0.4,0.6,0.4l0,0.1c0,0.8,0.6,1.4,0.6,1.7c0,0.1,0.1,0.3,0.1,0.3c0,0.3-0.2,0.5-0.2,1.2v0
	c0,0.3,0.1,0.6,0.3,0.8l0.1,0.1l-0.1,0c0.2,0.7,0.6,1.1,1,1.4c-0.3,0.2-0.4,0.6-0.4,1c0,1.1,0.8,2.4,1.1,2.9
	c0.6,0.9,1.4,1.5,1.6,2.3c0.2,0.5,0.1,1.2,0.4,2c0.5,1.4,0.9,2.8,1.7,4.1c0.5,0.9,0.8,1.8,0.8,2.8c0,0.2,0,0.4,0,0.7
	c0,0.1,0,0.1-0.1,0.1c-0.1,0.1-0.4,0.2-0.6,0.4c-0.1,0.1-0.2,0.2-0.3,0.3l0,0c-0.6,0.3-0.9,0.8-0.9,1.3c0,0.3,0.1,0.6,0.2,0.9
	l0.1,0.7l0.1-0.3c0.1,0.2,0.2,0.4,0.3,0.6c0.2,0.5,0.2,1,0.2,1.7c0.1,0.7,0.6,1.1,0.7,1.5c0.4,1,0.4,1.9,1.1,3
	c0.6,1,1.1,1.7,1.3,2.8c0.2,0.7,0.3,1.6,0.3,2.5c0,1.9-0.4,4.1-1.3,5.5c-0.3,0.5-0.5,1-0.6,1.2c-0.2,0.3-0.3,0.4-0.8,0.4
	c-0.9,0.1-1.5,0.7-1.7,1.3c-0.2,0.6-0.3,1.2-0.5,1.6c-0.3,0.6-1.2,1.7-1.7,2.1c-0.5,0.4-0.5,1-0.5,1.6c0,0.5-0.1,1.1-0.3,1.3
	c-0.8,1.3-0.5,2.7-0.7,3.9c-0.1,0.7-1,2.4-1,3.5c0,0.2,0,0.3,0.1,0.5c0,0-0.1,0.2-0.2,0.4c-0.1,0.2-0.3,0.4-0.3,0.8
	c-0.1,0.5-0.1,1-0.2,1.3c-0.1,0.4-0.7,0.7-1.1,1.4c-0.1,0.1-0.1,0.3-0.1,0.4c0,0.5,0.2,0.8,0.2,0.9c0,0.4,0.1,0.8,0.1,1.2
	c0,1.8-0.4,3.7-0.4,5.6c0,0.1,0,0.3,0,0.4c0,0.5-0.1,1-0.1,1.5c0,2.6,0.5,5.2,2.7,7.1c2.1,1.8,2.6,5.2,4,7.9c1.5,2.7,1.9,5.8,4,8.5
	c0.3,0.4,0.4,1.1,0.8,1.8c0.4,0.7,0.9,1.3,1.3,1.9c0.8,1.1,1.4,2.3,1.4,3.6l0,0.6c-0.1,0.7-0.4,1.9-0.4,2c0,0.2,0,0.3,0,0.5
	c0,0.7,0.1,1.7,0.2,2.5c0,0.2,0,0.5,0,0.7c0,0.6,0,1.1,0,1.7c0,0.6,0.1,1.3,0.3,2c0.5,1.4,1.2,2.6,1.4,4c0,0.1,0,0.2,0,0.3
	c0,0.4-0.1,0.9-0.1,1.4c0,0.2,0,0.5,0.1,0.7c0.1,0.5,0.1,1.1,0.2,1.7c0.1,0.9,0.4,1.6,0.4,2.3l0,0.1c0,0.2,0,0.4,0,0.6
	c0,0.3,0.1,0.6,0.3,0.9c0.4,0.5,0.4,0.7,0.4,1.1c0,0.1,0,0.3,0,0.5c0,0.2,0,0.5,0.1,0.8c0.2,0.8,0.6,1.1,0.7,1.6
	c0.1,0.6,0.1,1.3,0.5,2c0.6,1.1,1.1,2.3,1.9,3.4c0.9,1.3,2.1,2.2,2.9,3.2c0.2,0.3,0.6,0.5,0.9,0.5c0.3,1.5,1.5,2.7,1.9,3.8
	c0.5,1.3,0.8,2.8,1.2,4.2c0.9,3.1,2.4,5.8,4,8.5c1,1.7,1.6,3.3,1.6,5.2l0,0.2c0,0.5-0.1,1-0.2,1.4c-0.2,0.4-0.3,0.5-0.6,0.5
	c-0.1,0-0.3,0-0.6-0.2l-0.5-0.3l-0.2,0.5c0,0.1-0.4,0.9-0.4,1.5c0,0.2,0,0.3,0.1,0.5c0.1,0.2,0.4,0.3,0.6,0.3l0,0h0
	c0.2,0,0.1,0,0.2,0.1l0,0l0,0.2c0,0.2,0.1,0.2,0.1,0.3c0.2,0.5,1.1,1.6,1.2,1.8c0.3,0.5,0.6,1.1,0.6,1.6l0,0.2
	c0,0.4-0.5,1.3-0.6,2.1c0,0.5,0.3,1.2,1,1.4l0.6,0.2l0-0.7c0-0.3-0.1-0.6-0.1-0.8c0-0.1,0-0.3,0-0.3c0,0,0,0,0.1-0.1
	c0.1,0,0.2,0,0.2,0c0.4,0,0.5,0.2,0.5,0.5c0,0.1,0,0.3-0.1,0.5l-0.2,0.5l0.5,0.1c0.3,0.1,0.9,0.1,1.5,0.2c0.3,0.1,0.5,0.1,0.7,0.2
	l0.1,0.1l0,0c0,0,0,0.1-0.1,0.2l-0.4,0.5l0.6,0.2c0.4,0.1,0.7,0.4,1.1,0.8c0.3,0.2,0.6,0.3,0.8,0.3c0.2,0,0.3,0,0.4,0l0.1,0
	c0.4,0.1,0.5,0.2,0.8,0.2h0c0.2,0,0.4-0.1,0.5-0.2c0.1-0.1,0.2-0.2,0.5-0.4c0.6-0.5,1.4-1.2,2-1.4c0.4-0.2,1,0,1.8-0.4
	c0.1,0,0.3-0.1,0.5-0.1c0.7,0,1.8,0.2,2.8,0.2c0.7,0,1.4-0.1,1.8-0.8c0.5-0.9,2.2-1.6,3.5-1.6c0.2,0,0.4,0,0.5,0l0.2,0
	c0.2,0.1,0.5,0.1,0.7,0.1c0.4,0,0.8,0,0.9,0.1c0.3,0.1,0.5,0.2,0.7,0.2c0.3,0,0.6-0.2,0.6-0.3c0.1-0.1,0.1-0.1,0.3-0.2
	c0.4-0.1,0.7-0.2,1.2-0.2c1,0,2.1,0.4,3,0.7c0.6,0.2,1.1,0.3,1.5,0.3c1,0,1.4-0.6,2.3-1.1c0.2-0.1,0.3-0.1,0.5-0.1
	c0.6,0,1.4,0.5,2.3,0.6c0.2,0,0.5,0,0.7-0.2l0.7-0.3l-0.7-0.4c-0.2-0.2-0.2-0.2-0.2-0.2c0,0,0.1-0.2,0.2-0.4
	c0.2-0.2,0.4-0.3,0.6-0.3c0.2-0.1,0.4-0.1,0.5-0.1c0.6,0,1.2,0.2,2,0.2c0.1,0,0.3,0,0.4,0c2.3-0.3,4.2-1.9,5.8-3.1
	c2.1-1.6,4.1-3.3,6.1-5c1.7-1.4,2.6-3.3,4.1-4.5c1.9-1.6,3.5-3,5-5.1c0.8-1.2,1.5-2.4,2.2-3.6c0.4-0.7,1.2-1.3,1.5-2.3
	c0.5-1.5,1.6-2.9,2.6-4.1c0.3-0.4,0.8-0.9,1-0.9c0.1,0,0.4,0,0.7-0.1c0.1,0,0.3-0.1,0.4-0.2c0.1-0.1,0.2-0.2,0.2-0.4
	c0.9-0.2,1.5-0.9,1.9-1.7c0.5-0.9,0.7-1.9,0.9-2.5c0.7-2.5,1.4-4.7,2-7.2c0.3-0.1,0.5-0.5,0.6-0.8c0.1-0.4,0.2-0.9,0.2-1.4
	c0-0.8-0.1-1.6-0.1-2.1c0-0.1,0-0.3,0-0.4l-0.8-0.2c0,0.1-0.1,0.2-0.1,0.2l0,0c-0.1-0.1-0.4-0.4-0.7-0.7l-0.2-0.2
	c0.2-0.1,0.4-0.3,0.5-0.5c0.3-0.4,0.4-0.8,0.6-1.2c0.4-0.8,1.1-1.2,2-1.7c1.7-1.1,3.7-1.9,5.8-2.6c1.8-0.6,3.8-1.3,5.2-2.9
	c0.6-0.7,1.8-2.1,1.8-3.5c0-0.3-0.1-0.7-0.3-1l-0.5-0.8c0.3-1.2,1-2.5,1.2-3.8l0-0.2c0-0.8-0.4-1.3-0.4-1.8l0-0.1
	c0.1-0.8,0.3-1.6,0.4-2.4l-0.2,0c0-0.1,0-0.3,0-0.4l0-0.2l0.1-1.3l-0.8,1l-0.1,0.1c0-0.6-0.2-1.2-0.2-1.7c-0.1-1.1-0.7-2.2-0.7-3
	c0-0.2,0-0.3,0.1-0.5l-0.2-0.1c0-0.4,0.1-1,0.1-1.1v-0.1c0-0.7-0.1-1.5-0.7-2.2c-0.4-0.5-0.8-0.7-0.9-0.9c-0.1-0.1-0.2-0.1-0.2-0.6
	c0-0.1,0-0.2,0-0.4c0-0.1,0-0.2,0-0.3c0-0.2,0-0.3-0.1-0.5c0.1-0.1,0.2-0.2,0.3-0.4c0.1-0.2,0.2-0.5,0.2-0.8c0-0.2,0-0.4-0.1-0.6
	l0.2,0c0.5,0,0.9-0.3,1.3-0.6c0.4-0.3,0.7-0.6,0.8-0.8c0.9-0.8,1.5-1.7,2.2-2.6c0.6-0.7,1.4-1.3,2.2-1.9c0.1,0.1,0.2,0.2,0.4,0.2
	c0.3,0,0.4-0.1,0.5-0.2l0,0l0,0l0.4-0.2l0.3,0.3c0.1-0.1,0.3-0.3,0.3-0.5l0.2,0l-0.1-0.5l0-0.2c0-0.5,0.6-1.1,1.3-1.7
	c0.7-0.6,1.6-1.2,1.6-2.2c0-0.1,0-0.3-0.1-0.4c0.6-0.1,1.1-0.6,1.6-1c0.5-0.5,1.1-1,1.3-1.2c0.9-0.5,2.1-0.8,3-1.7
	c0.3-0.3,0.3-0.2,0.3-0.2c0.1,0,0.3,0,0.7-0.1c0.5-0.2,1-0.4,1.5-0.7c0.1-0.1,0.9-0.3,1.5-0.5c0.3-0.1,0.7-0.2,0.9-0.3
	c0.1-0.1,0.3-0.1,0.4-0.2c0.1-0.1,0.3-0.2,0.3-0.5l0-0.1l0,0l0.1-0.1c0.2-0.3,0.9-0.7,1.7-1.2c0.7-0.4,1.5-0.8,1.8-1.3l0,0l0.3,0.5
	l0.3-0.8c0.1-0.2,0.1-0.5,0.2-0.8c0.4-0.5,0.9-1.1,1.3-1.8c0.5-1,1.6-1.6,2.3-2.9c0.1-0.2,0.5-1,0.6-1.6c0-0.1,0-0.3-0.1-0.4
	l0.2-0.2c0.1-0.1,0.2-0.3,0.2-0.5l0-0.2l0.2-0.5l-0.1,0c0.2-0.2,0.4-0.5,0.4-0.8c0.1-0.4,0.1-0.8,0.2-1.2c0-0.1,0-0.2,0-0.3
	c0-0.5-0.3-0.9-0.7-1c0.1-0.3,0.2-0.5,0.2-0.8c0-0.1,0-0.2-0.1-0.4c-0.1-0.1-0.3-0.2-0.4-0.2c0-0.6,0.2-1.6,0.2-2.4
	c0-0.3,0-0.6-0.1-0.9c-0.1-0.2-0.2-0.4-0.4-0.6c0-0.2,0.1-0.5,0.2-0.9c0.1-0.5,0.3-1,0.3-1.4c0-0.2,0-0.5-0.2-0.7l-0.2-0.2
	c0.2-0.4,0.3-0.9,0.3-1.3c0-0.2,0-0.4-0.1-0.6c-0.1-0.2-0.2-0.4-0.3-0.5c-0.1-0.1-0.1-0.1-0.1-0.2l0-0.1c0.1-0.2,0.1-0.4,0.1-0.6
	c0-0.1,0-0.2,0-0.4l0,0l0,0c-0.1-0.2-0.1-0.3-0.1-0.3c0,0,0,0,0.1-0.2c0-0.1,0.1-0.3,0.1-0.6c0-0.2,0-0.3,0-0.5c0-0.4,0-0.8-0.1-1.1
	c0-0.3,0-0.9-0.1-1.5c-0.1-0.6-0.1-1.1-0.5-1.5c0-0.1,0.1-0.1,0.2-0.2c0.1-0.2,0.3-0.3,0.4-0.6c0.2-0.4,0.2-0.9,0.2-1.2
	c0-0.3,0.1-0.6,0.2-0.8l0.3-0.4l-0.4-0.2c0.1-0.2,0.2-0.4,0.2-0.6c0-0.5-0.3-1-0.9-1.1l0-0.1c0-0.6-0.4-1.1-0.8-1.5
	c-0.4-0.4-0.9-0.6-1.4-0.6l-0.2,0c-0.1-0.1-0.1-0.2-0.2-0.3c-0.1-0.2-0.4-0.4-0.6-0.5l0-0.2c0-0.3-0.1-0.6-0.3-0.8l0-0.1
	c0,0,0.1-0.2,0.1-0.6l0-0.2c-0.1-0.4-0.4-0.7-0.5-0.9c-0.2-0.2-0.2-0.3-0.2-0.4l0-0.1c0.1-0.2,0.3-0.6,0.3-1.1c0-0.2,0-0.4-0.2-0.6
	c-0.2-0.2-0.4-0.2-0.6-0.2c0-0.1,0-0.3-0.1-0.5c0-0.1-0.1-0.2-0.2-0.4c0.1-0.1,0.1-0.2,0.1-0.4c0-0.4-0.2-0.8-0.4-1.1
	c-0.2-0.3-0.3-0.7-0.3-0.9c0-0.1,0-0.2,0-0.3c0-0.6,0.2-1.4,0.5-2c0.1-0.3,0.2-0.7,0.2-1.1c0-0.3,0-0.5-0.1-0.8
	c-0.1-0.2-0.2-0.5-0.5-0.5c0.1-0.4,0.1-0.8,0.1-1.1c0.1-0.6,0.1-1.1,0.5-1.6c0.3-0.4,0.5-1,0.5-1.6c0-0.3-0.1-0.6-0.2-0.9
	c-0.2-0.3-0.5-0.4-0.9-0.4h0c-0.1-0.9-0.8-1.4-1.3-1.8c-0.6-0.5-1-0.8-1-1.2l0-0.2l0-0.2c0-0.6-0.4-1-0.3-1.2v0
	c0-0.3,0.1-0.6,0.2-0.9c0.2-0.7,0.5-1.3,0.8-2c0.6-1.3,1.1-2.9,1.3-4.4l0-0.1l0-0.1c0.1-0.1,0.2-0.2,0.3-0.2l0,0l0.6,0.4l0.1-0.7
	c0.1-0.9,1.3-1.9,1.4-3.4l0-0.1c0.2-0.2,0.4-0.4,0.5-0.7c0.3-0.5,0.5-1.3,0.7-1.9c0.2-0.6,0.5-1.3,0.6-1.3c0.3-0.2,0.5-0.6,0.8-1.1
	c0.3-0.5,0.5-0.9,0.5-1.4c0-0.1,0-0.2-0.1-0.3c-0.1-0.2-0.1-0.4-0.1-0.6c0-0.7,0.4-1.2,1.2-1.3c0.6-0.1,1.4-0.3,1.8-1.1l0,0l0,0.3
	l0.7-0.7c0.2-0.2,0.3-0.6,0.3-0.9c0-0.3-0.1-0.5-0.2-0.8l0,0l0-0.1c0.1,0,0.3,0.1,0.4,0.1c1.1,0,2-1,2.5-1.6
	c0.1-0.2,0.2-0.4,0.3-0.6c0.9-1.1,1.9-2.5,2.1-4.1c0.2,0,0.4-0.2,0.5-0.3c0.5-0.4,1-1.2,1.2-1.4c0.6-0.8,1.2-1.7,1.8-2.4
	c1.3-1.6,2.7-3.2,4-4.8c1.3-1.6,3-3.1,4.5-4.6c1.3-1.3,2.8-2.3,4.4-3.3c3.8-2.4,6.7-5.3,9.6-8.7c1.4-1.7,2.8-3.4,4.2-5.2
	c1.3-1.6,2-3.6,3.1-5.2c1.1-1.7,2.3-3.4,3.2-5.4c0.8-2,0.9-4,1.8-5.7c0.7-1.3,1.8-2.5,2.4-4.1c0.3-0.8,0-1.5,0.3-1.9
	c0.2-0.4,0.6-0.5,1.2-1.1c1.2-1.4,1-3.3,1.8-4.4c0.7-1.1,1.5-2.1,1.9-3.4c0.3-1,0.3-2,0.3-3c0-0.5,0-1,0-1.6l0-0.1
	c0-0.4,0.1-0.4,0.2-0.5c0.1-0.1,0.3-0.1,0.6-0.1c0.1,0,0.3,0,0.5,0c0.2,0,0.5,0,0.7-0.1c0.3-0.1,0.5-0.4,0.6-0.7l0.1-0.4
	L669.9,286.6z"/>
<path class="st4" d="M317,280.9L317,280.9c0-0.1,0-0.3,0-0.4l-0.1-0.6l-0.6,0.3c-0.2,0.1-0.4,0.3-0.6,0.5l-0.7,0.7h1
	c0.2,0,0.4,0,0.5,0v-0.3l0.2-0.1L317,280.9z"/>
<path class="st5" d="M317,280.9L317,280.9c0-0.1,0-0.3,0-0.4l-0.1-0.6l-0.6,0.3c-0.2,0.1-0.4,0.3-0.6,0.5l-0.7,0.7h1
	c0.2,0,0.4,0,0.5,0v-0.3l0.2-0.1L317,280.9z"/>
<path class="st4" d="M317.1,279.2L317.1,279.2z"/>
<path class="st5" d="M317.1,279.2L317.1,279.2z"/>
<path class="st0" d="M317.4,282.5c-0.4,0-0.8,0.3-0.8,0.7c0,0.3,0.2,0.6,0.5,0.8l0.3-0.3l0.3,0.3v0c0.1-0.1,0.3-0.2,0.5-0.3l0.4-0.2
	l-0.2-0.4C318.1,282.7,317.7,282.5,317.4,282.5z"/>
<path class="st5" d="M317.4,282.5c-0.4,0-0.8,0.3-0.8,0.7c0,0.3,0.2,0.6,0.5,0.8l0.3-0.3l0.3,0.3v0c0.1-0.1,0.3-0.2,0.5-0.3l0.4-0.2
	l-0.2-0.4C318.1,282.7,317.7,282.5,317.4,282.5z"/>
<path class="st4" d="M319.2,280.4l-0.5,0c-0.2,0-0.3,0-0.5,0l-0.1,0.4l-0.4-0.2c-0.1,0.2-0.1,0.3-0.2,0.5l-0.1,0.4l0.4,0.2
	c0.1,0.1,0.3,0.1,0.5,0.1c0.5,0,0.8-0.5,0.9-0.9L319.2,280.4z"/>
<path class="st5" d="M319.2,280.4l-0.5,0c-0.2,0-0.3,0-0.5,0l-0.1,0.4l-0.4-0.2c-0.1,0.2-0.1,0.3-0.2,0.5l-0.1,0.4l0.4,0.2
	c0.1,0.1,0.3,0.1,0.5,0.1c0.5,0,0.8-0.5,0.9-0.9L319.2,280.4z"/>
<path class="st4" d="M319.8,281.6c-0.4,0.2-0.8,0.6-0.8,1.1l0,0.2l0.4-0.1l0.3,0.3c0.3-0.3,0.6-0.6,0.7-1.1l0.2-0.8L319.8,281.6z"/>
<path class="st5" d="M319.8,281.6c-0.4,0.2-0.8,0.6-0.8,1.1l0,0.2l0.4-0.1l0.3,0.3c0.3-0.3,0.6-0.6,0.7-1.1l0.2-0.8L319.8,281.6z"/>
<path class="st4" d="M585.1,476.9l-0.8-0.2c-0.2,0.4-0.4,0.8-0.4,1.3c0,0.2,0,0.4,0.1,0.6l0.4-0.2l0.4,0.1c0.2-0.5,0.3-1,0.3-1.5
	L585.1,476.9z"/>
<path class="st5" d="M585.1,476.9l-0.8-0.2c-0.2,0.4-0.4,0.8-0.4,1.3c0,0.2,0,0.4,0.1,0.6l0.4-0.2l0.4,0.1c0.2-0.5,0.3-1,0.3-1.5
	L585.1,476.9z"/>
<path class="st4" d="M439,323.5L439,323.5z"/>
<path class="st5" d="M439,323.5L439,323.5z"/>
<path class="st0" d="M607.6,387.7c0.1,0.1,0.3,0.2,0.5,0.2h0c0.4,0,0.6-0.4,0.7-0.6c0.1-0.2,0.1-0.5,0.1-0.8c0-0.2,0-0.5-0.1-0.7
	c-0.1-0.2-0.3-0.4-0.6-0.5v0c0-0.8-0.2-1.7-0.6-2.3l-0.5-0.8l-0.3,0.9c0,0.1-0.2,0.3-0.4,0.6c-0.2,0.2-0.4,0.6-0.4,1
	c0,0.1,0,0.2,0,0.3C606.3,386.2,606.6,386.9,607.6,387.7z"/>
<path class="st5" d="M607.6,387.7c0.1,0.1,0.3,0.2,0.5,0.2h0c0.4,0,0.6-0.4,0.7-0.6c0.1-0.2,0.1-0.5,0.1-0.8c0-0.2,0-0.5-0.1-0.7
	c-0.1-0.2-0.3-0.4-0.6-0.5v0c0-0.8-0.2-1.7-0.6-2.3l-0.5-0.8l-0.3,0.9c0,0.1-0.2,0.3-0.4,0.6c-0.2,0.2-0.4,0.6-0.4,1
	c0,0.1,0,0.2,0,0.3C606.3,386.2,606.6,386.9,607.6,387.7z"/>
<path class="st4" d="M606.1,384.9L606.1,384.9L606.1,384.9z"/>
<path class="st5" d="M606.1,384.9L606.1,384.9L606.1,384.9z"/>
<path class="st4" d="M608.4,396.6l0.4-0.1l0.3,0.3c0.2-0.2,0.5-0.3,0.7-0.6c0.3-0.2,0.6-0.6,0.6-1.1c0-0.2,0-0.3-0.1-0.5l-0.4-1
	l-0.4,1c-0.1,0.2-0.3,0.3-0.5,0.6c-0.3,0.2-0.6,0.6-0.6,1.1L608.4,396.6z"/>
<path class="st5" d="M608.4,396.6l0.4-0.1l0.3,0.3c0.2-0.2,0.5-0.3,0.7-0.6c0.3-0.2,0.6-0.6,0.6-1.1c0-0.2,0-0.3-0.1-0.5l-0.4-1
	l-0.4,1c-0.1,0.2-0.3,0.3-0.5,0.6c-0.3,0.2-0.6,0.6-0.6,1.1L608.4,396.6z"/>
<path class="st0" d="M609.3,377.9l-0.5-0.2l-0.1,0.6c0,0.2,0,0.3,0,0.5l0.4,0l-0.4,0.1h0c0,0.3,0.1,0.5,0.2,0.6l0,0.1l-1.2,0.1
	l1.1,0.7l0,0c-0.1,0.2-0.2,0.4-0.2,0.6c0,0.4,0.3,0.8,0.7,0.8c0.4,0,0.7-0.3,0.9-0.7c0.2-0.5,0.3-0.9,0.3-1.4
	C610.6,378.9,610.2,378.2,609.3,377.9z"/>
<path class="st5" d="M609.3,377.9l-0.5-0.2l-0.1,0.6c0,0.2,0,0.3,0,0.5l0.4,0l-0.4,0.1h0c0,0.3,0.1,0.5,0.2,0.6l0,0.1l-1.2,0.1
	l1.1,0.7l0,0c-0.1,0.2-0.2,0.4-0.2,0.6c0,0.4,0.3,0.8,0.7,0.8c0.4,0,0.7-0.3,0.9-0.7c0.2-0.5,0.3-0.9,0.3-1.4
	C610.6,378.9,610.2,378.2,609.3,377.9z"/>
<path class="st0" d="M608.6,256.1c0.2,0.5,0.6,0.8,1,0.9c0.4,0.1,0.9,0.2,1.2,0.2c0.3,0,0.5,0,0.7,0l0.6,0l-0.3-0.6
	c-0.1-0.3-0.4-0.5-0.6-0.6c-0.3-0.1-0.6-0.1-0.8-0.1c-0.2,0-0.1,0-0.2-0.1c0,0-0.1-0.3-0.1-0.6c0-0.1-0.1-0.3-0.2-0.4
	c-0.1-0.1-0.3-0.3-0.6-0.3c-0.2,0-0.3,0.1-0.4,0.1l0.2,0.4l-0.4,0c0,0.1,0,0.2,0,0.3l-0.8-0.6L608.6,256.1z"/>
<path class="st5" d="M608.6,256.1c0.2,0.5,0.6,0.8,1,0.9c0.4,0.1,0.9,0.2,1.2,0.2c0.3,0,0.5,0,0.7,0l0.6,0l-0.3-0.6
	c-0.1-0.3-0.4-0.5-0.6-0.6c-0.3-0.1-0.6-0.1-0.8-0.1c-0.2,0-0.1,0-0.2-0.1c0,0-0.1-0.3-0.1-0.6c0-0.1-0.1-0.3-0.2-0.4
	c-0.1-0.1-0.3-0.3-0.6-0.3c-0.2,0-0.3,0.1-0.4,0.1l0.2,0.4l-0.4,0c0,0.1,0,0.2,0,0.3l-0.8-0.6L608.6,256.1z"/>
<path class="st0" d="M271,249.1L271,249.1c-0.1,0-0.2-0.1-0.3-0.2c-0.2-0.2-0.3-0.5-0.3-0.8c0-0.9,0.8-1.5,1.5-1.6
	c0.4,0,0.8,0.2,0.9,0.6c0,0.1,0.1,0.2,0.1,0.3c0,0.5-0.4,0.9-0.7,1.1C271.9,248.9,271.5,249.1,271,249.1L271,249.1z"/>
<path class="st5" d="M271,249.1L271,249.1c-0.1,0-0.2-0.1-0.3-0.2c-0.2-0.2-0.3-0.5-0.3-0.8c0-0.9,0.8-1.5,1.5-1.6
	c0.4,0,0.8,0.2,0.9,0.6c0,0.1,0.1,0.2,0.1,0.3c0,0.5-0.4,0.9-0.7,1.1C271.9,248.9,271.5,249.1,271,249.1L271,249.1z"/>
<path class="st0" d="M272.3,249.8L272.3,249.8L272.3,249.8L272.3,249.8L272.3,249.8L272.3,249.8l-0.1-0.1l0,0l0,0l0,0l0,0l0,0l0,0
	l0,0v0l0,0l0,0l0,0c-0.1-0.2-0.1-0.4-0.1-0.6c0-0.2,0-0.3,0.2-0.5c0.1-0.1,0.3-0.2,0.4-0.2c0.2,0,0.4,0.1,0.5,0.2
	c0.1,0.1,0.3,0.3,0.3,0.6c0,0.2-0.2,0.5-0.3,0.5c-0.2,0.1-0.4,0.1-0.6,0.2l0,0L272.3,249.8z"/>
<path class="st5" d="M272.3,249.8L272.3,249.8L272.3,249.8L272.3,249.8L272.3,249.8L272.3,249.8l-0.1-0.1l0,0l0,0l0,0l0,0l0,0l0,0
	l0,0v0l0,0l0,0l0,0c-0.1-0.2-0.1-0.4-0.1-0.6c0-0.2,0-0.3,0.2-0.5c0.1-0.1,0.3-0.2,0.4-0.2c0.2,0,0.4,0.1,0.5,0.2
	c0.1,0.1,0.3,0.3,0.3,0.6c0,0.2-0.2,0.5-0.3,0.5c-0.2,0.1-0.4,0.1-0.6,0.2l0,0L272.3,249.8z"/>
<path class="st0" d="M274.9,261.6c-0.4-0.3-0.6-0.7-0.6-1.1c0-0.2,0.1-0.5,0.2-0.7c0.1-0.2,0.4-0.4,0.7-0.4c0.2,0,0.4,0.1,0.5,0.2
	c0.3,0.2,0.4,0.5,0.4,0.8c0,0.5-0.3,1-0.7,1.2l-0.1,0l0,0l-0.1,0L274.9,261.6z"/>
<path class="st5" d="M274.9,261.6c-0.4-0.3-0.6-0.7-0.6-1.1c0-0.2,0.1-0.5,0.2-0.7c0.1-0.2,0.4-0.4,0.7-0.4c0.2,0,0.4,0.1,0.5,0.2
	c0.3,0.2,0.4,0.5,0.4,0.8c0,0.5-0.3,1-0.7,1.2l-0.1,0l0,0l-0.1,0L274.9,261.6z"/>
<path class="st0" d="M275.9,251.7L275.9,251.7L275.9,251.7L275.9,251.7L275.9,251.7L275.9,251.7L275.9,251.7L275.9,251.7
	L275.9,251.7L275.9,251.7L275.9,251.7L275.9,251.7l-0.3-0.1l0,0l0,0l-0.1-0.2c-0.1-0.3-0.3-0.7-0.5-1c-0.1-0.1-0.1-0.2,0-0.4
	c0-0.1,0.1-0.2,0.3-0.3c0.2-0.1,0.4-0.1,0.6-0.1c0.7,0,1.3,0.3,1.7,0.5c0.1,0,0.2,0.1,0.2,0.3c0,0.1,0,0.2,0,0.3
	c-0.2,0.3-0.5,0.4-0.7,0.4c-0.3,0-0.6-0.1-0.7-0.1h0l0,0.1l0,0c0,0.1-0.1,0.2-0.1,0.3l0,0l-0.2,0.1l0,0L275.9,251.7L275.9,251.7
	L275.9,251.7L275.9,251.7L275.9,251.7L275.9,251.7L275.9,251.7z"/>
<path class="st5" d="M275.9,251.7L275.9,251.7L275.9,251.7L275.9,251.7L275.9,251.7L275.9,251.7L275.9,251.7L275.9,251.7
	L275.9,251.7L275.9,251.7L275.9,251.7L275.9,251.7l-0.3-0.1l0,0l0,0l-0.1-0.2c-0.1-0.3-0.3-0.7-0.5-1c-0.1-0.1-0.1-0.2,0-0.4
	c0-0.1,0.1-0.2,0.3-0.3c0.2-0.1,0.4-0.1,0.6-0.1c0.7,0,1.3,0.3,1.7,0.5c0.1,0,0.2,0.1,0.2,0.3c0,0.1,0,0.2,0,0.3
	c-0.2,0.3-0.5,0.4-0.7,0.4c-0.3,0-0.6-0.1-0.7-0.1h0l0,0.1l0,0c0,0.1-0.1,0.2-0.1,0.3l0,0l-0.2,0.1l0,0L275.9,251.7L275.9,251.7
	L275.9,251.7L275.9,251.7L275.9,251.7L275.9,251.7L275.9,251.7z"/>
<path class="st0" d="M279.7,261.1c-0.5,0-1-0.2-1.2-0.5c-0.3-0.3-0.4-0.7-0.4-1.1c0-0.5,0.1-1,0.3-1.5c0.1-0.2,0.2-0.3,0.4-0.3
	c0.2,0,0.3,0.1,0.4,0.2c0.1,0.2,0.4,0.5,0.6,0.8c0.3,0.3,0.5,0.7,0.6,1.3c0,0.3-0.1,0.6-0.4,0.9l0,0l0,0h0l-0.1,0.1l0,0l0,0
	L279.7,261.1L279.7,261.1z"/>
<path class="st5" d="M279.7,261.1c-0.5,0-1-0.2-1.2-0.5c-0.3-0.3-0.4-0.7-0.4-1.1c0-0.5,0.1-1,0.3-1.5c0.1-0.2,0.2-0.3,0.4-0.3
	c0.2,0,0.3,0.1,0.4,0.2c0.1,0.2,0.4,0.5,0.6,0.8c0.3,0.3,0.5,0.7,0.6,1.3c0,0.3-0.1,0.6-0.4,0.9l0,0l0,0h0l-0.1,0.1l0,0l0,0
	L279.7,261.1L279.7,261.1z"/>
<path class="st0" d="M281.3,259.7c-0.3-0.2-0.6-0.5-0.6-0.9c0-0.3,0.2-0.5,0.4-0.6c0.2-0.1,0.4-0.2,0.6-0.2c0.1,0,0.3,0,0.4,0.1
	c0.2,0.1,0.3,0.3,0.3,0.5c0,0.4-0.2,0.6-0.5,1l-0.1,0.1l0,0l0,0l-0.2,0.1L281.3,259.7z"/>
<path class="st5" d="M281.3,259.7c-0.3-0.2-0.6-0.5-0.6-0.9c0-0.3,0.2-0.5,0.4-0.6c0.2-0.1,0.4-0.2,0.6-0.2c0.1,0,0.3,0,0.4,0.1
	c0.2,0.1,0.3,0.3,0.3,0.5c0,0.4-0.2,0.6-0.5,1l-0.1,0.1l0,0l0,0l-0.2,0.1L281.3,259.7z"/>
<path class="st0" d="M283.6,254.7c-0.3,0-0.6-0.1-0.8-0.3c-0.2-0.2-0.3-0.5-0.3-0.7c0-0.4,0.2-0.8,0.1-1v0c0-0.1,0.1-0.3,0.2-0.4
	c0.1-0.1,0.3-0.1,0.4-0.1c0.3,0.1,0.6,0.2,0.8,0.4c0.3,0.2,0.6,0.4,0.6,0.9c0,0.5-0.4,0.8-0.9,1L283.6,254.7L283.6,254.7z"/>
<path class="st5" d="M283.6,254.7c-0.3,0-0.6-0.1-0.8-0.3c-0.2-0.2-0.3-0.5-0.3-0.7c0-0.4,0.2-0.8,0.1-1v0c0-0.1,0.1-0.3,0.2-0.4
	c0.1-0.1,0.3-0.1,0.4-0.1c0.3,0.1,0.6,0.2,0.8,0.4c0.3,0.2,0.6,0.4,0.6,0.9c0,0.5-0.4,0.8-0.9,1L283.6,254.7L283.6,254.7z"/>
<path class="st0" d="M283.1,251L283.1,251L283.1,251L283.1,251L283.1,251l-0.2-0.1l0,0l0,0l0,0l-0.1-0.1l0,0v0l-0.1-0.2l0,0v0
	c0-0.2-0.2-0.5-0.2-1c0-0.3,0.1-0.7,0.4-0.9c0.1-0.1,0.3-0.1,0.4-0.1c0.1,0,0.2,0.2,0.3,0.3c0.1,0.3,0.1,0.6,0.1,0.9
	c0,0.3-0.1,0.7-0.3,1c-0.1,0.1-0.1,0.2-0.3,0.2l0,0l0,0l0,0l-0.1,0L283.1,251z"/>
<path class="st5" d="M283.1,251L283.1,251L283.1,251L283.1,251L283.1,251l-0.2-0.1l0,0l0,0l0,0l-0.1-0.1l0,0v0l-0.1-0.2l0,0v0
	c0-0.2-0.2-0.5-0.2-1c0-0.3,0.1-0.7,0.4-0.9c0.1-0.1,0.3-0.1,0.4-0.1c0.1,0,0.2,0.2,0.3,0.3c0.1,0.3,0.1,0.6,0.1,0.9
	c0,0.3-0.1,0.7-0.3,1c-0.1,0.1-0.1,0.2-0.3,0.2l0,0l0,0l0,0l-0.1,0L283.1,251z"/>
<path class="st0" d="M628,420.4L628,420.4L628,420.4L628,420.4L628,420.4L628,420.4L628,420.4c-0.1,0-0.2-0.1-0.3-0.2l0,0l0,0
	c-0.1-0.1-0.4-0.3-0.6-0.5c-0.3-0.2-0.6-0.5-0.6-1c0-0.2,0-0.3,0.1-0.5c0-0.1,0-0.3,0-0.6c0-0.3,0-0.7,0.3-1
	c0.2-0.2,0.5-0.4,0.8-0.4l0,0c0.2,0,0.3,0.1,0.4,0.3c0.3,0.9,0.1,1.6,0.3,2.2c0.1,0.2,0.2,0.5,0.2,0.8c0,0.2-0.1,0.5-0.3,0.7l0,0
	l0,0h0l0,0l0,0l0,0l0,0l0,0l0,0h0L628,420.4L628,420.4z"/>
<path class="st5" d="M628,420.4L628,420.4L628,420.4L628,420.4L628,420.4L628,420.4L628,420.4c-0.1,0-0.2-0.1-0.3-0.2l0,0l0,0
	c-0.1-0.1-0.4-0.3-0.6-0.5c-0.3-0.2-0.6-0.5-0.6-1c0-0.2,0-0.3,0.1-0.5c0-0.1,0-0.3,0-0.6c0-0.3,0-0.7,0.3-1
	c0.2-0.2,0.5-0.4,0.8-0.4l0,0c0.2,0,0.3,0.1,0.4,0.3c0.3,0.9,0.1,1.6,0.3,2.2c0.1,0.2,0.2,0.5,0.2,0.8c0,0.2-0.1,0.5-0.3,0.7l0,0
	l0,0h0l0,0l0,0l0,0l0,0l0,0l0,0h0L628,420.4L628,420.4z"/>
<path class="st0" d="M629.9,423.1c-0.2,0-0.5-0.1-0.8-0.2c-0.3-0.1-0.7-0.5-0.7-1c0-0.2,0.1-0.4,0.3-0.4c0.1,0,0.2,0,0.3,0
	c0.7,0,1.2,0.5,1.4,1l0,0l0,0.3v0l0,0l0,0l0,0l-0.1,0.1l0,0l0,0l0,0l0,0l0,0l0,0l-0.1,0l0,0l0,0l0,0l0,0l0,0l0,0l-0.1,0l0,0l0,0l0,0
	l0,0l0,0l-0.1,0L629.9,423.1z"/>
<path class="st5" d="M629.9,423.1c-0.2,0-0.5-0.1-0.8-0.2c-0.3-0.1-0.7-0.5-0.7-1c0-0.2,0.1-0.4,0.3-0.4c0.1,0,0.2,0,0.3,0
	c0.7,0,1.2,0.5,1.4,1l0,0l0,0.3v0l0,0l0,0l0,0l-0.1,0.1l0,0l0,0l0,0l0,0l0,0l0,0l-0.1,0l0,0l0,0l0,0l0,0l0,0l0,0l-0.1,0l0,0l0,0l0,0
	l0,0l0,0l-0.1,0L629.9,423.1z"/>
<path class="st0" d="M633.3,423L633.3,423L633.3,423L633.3,423L633.3,423L633.3,423L633.3,423L633.3,423L633.3,423L633.3,423
	l-0.2-0.1c-0.4-0.4-0.9-0.7-1.4-1.1c-0.2-0.1-0.2-0.3-0.1-0.5s0.3-0.3,0.5-0.2c0.2,0.1,0.5,0.1,0.7,0.1c0.3,0,0.6,0,0.9,0.2
	c0.2,0.1,0.3,0.4,0.3,0.7c0,0.2-0.1,0.5-0.2,0.8l0,0v0l-0.1,0.2l0,0l0,0l0,0l0,0l-0.1,0.1l0,0l0,0l0,0l-0.1,0L633.3,423z"/>
<path class="st5" d="M633.3,423L633.3,423L633.3,423L633.3,423L633.3,423L633.3,423L633.3,423L633.3,423L633.3,423L633.3,423
	l-0.2-0.1c-0.4-0.4-0.9-0.7-1.4-1.1c-0.2-0.1-0.2-0.3-0.1-0.5s0.3-0.3,0.5-0.2c0.2,0.1,0.5,0.1,0.7,0.1c0.3,0,0.6,0,0.9,0.2
	c0.2,0.1,0.3,0.4,0.3,0.7c0,0.2-0.1,0.5-0.2,0.8l0,0v0l-0.1,0.2l0,0l0,0l0,0l0,0l-0.1,0.1l0,0l0,0l0,0l-0.1,0L633.3,423z"/>
<path class="st0" d="M698.1,471.4l-0.2,0c-0.2,0-0.5-0.1-0.6-0.3c-0.1-0.2-0.2-0.4-0.2-0.6c0-0.6,0.3-1.1,0.6-1.7
	c0.3-0.5,0.6-1,0.8-1.2l0.2-0.1l0.2,0c0.4,0,0.7,0.3,0.9,0.5c0.2,0.3,0.2,0.6,0.2,1c0,0.5-0.1,1.1-0.4,1.6
	C699.3,471,698.8,471.4,698.1,471.4L698.1,471.4z"/>
<path class="st5" d="M698.1,471.4l-0.2,0c-0.2,0-0.5-0.1-0.6-0.3c-0.1-0.2-0.2-0.4-0.2-0.6c0-0.6,0.3-1.1,0.6-1.7
	c0.3-0.5,0.6-1,0.8-1.2l0.2-0.1l0.2,0c0.4,0,0.7,0.3,0.9,0.5c0.2,0.3,0.2,0.6,0.2,1c0,0.5-0.1,1.1-0.4,1.6
	C699.3,471,698.8,471.4,698.1,471.4L698.1,471.4z"/>
<path class="st0" d="M435.1,349.3L435.1,349.3L435.1,349.3l-0.1-0.1l0-0.1c-0.1-0.4-0.2-0.8-0.2-1.2c0-0.6,0.3-1.3,1.1-1.5l0.2,0
	c0.4,0,0.6,0.3,0.7,0.5c0.1,0.2,0.1,0.5,0.1,0.7c0,0.2,0,0.3-0.1,0.4c-0.2,0.7-0.8,1.1-1.3,1.4l0,0v0l-0.2,0.1
	C435.4,349.4,435.2,349.4,435.1,349.3z"/>
<path class="st3" d="M435.1,349.3L435.1,349.3L435.1,349.3l-0.1-0.1l0-0.1c-0.1-0.4-0.2-0.8-0.2-1.2c0-0.6,0.3-1.3,1.1-1.5l0.2,0
	c0.4,0,0.6,0.3,0.7,0.5c0.1,0.2,0.1,0.5,0.1,0.7c0,0.2,0,0.3-0.1,0.4c-0.2,0.7-0.8,1.1-1.3,1.4l0,0v0l-0.2,0.1
	C435.4,349.4,435.2,349.4,435.1,349.3z"/>
<path class="st0" d="M439.9,340.4L439.9,340.4L439.9,340.4L439.9,340.4L439.9,340.4L439.9,340.4L439.9,340.4L439.9,340.4
	L439.9,340.4L439.9,340.4L439.9,340.4L439.9,340.4L439.9,340.4l-0.1-0.1l0,0l0,0l0,0c-0.2-0.2-0.4-0.5-0.4-0.8
	c0-0.4,0.2-0.7,0.5-0.9c0.1-0.1,0.2-0.1,0.4-0.1c0.1,0,0.2,0.1,0.3,0.2c0.1,0.2,0.2,0.4,0.2,0.7c0,0.3-0.1,0.5-0.2,0.8l0,0.1l0,0v0
	l0,0l0,0l0,0l0,0l0,0l0,0l-0.2,0.1l0,0l0,0l0,0l0,0l0,0l-0.1,0L439.9,340.4z"/>
<path class="st5" d="M439.9,340.4L439.9,340.4L439.9,340.4L439.9,340.4L439.9,340.4L439.9,340.4L439.9,340.4L439.9,340.4
	L439.9,340.4L439.9,340.4L439.9,340.4L439.9,340.4L439.9,340.4l-0.1-0.1l0,0l0,0l0,0c-0.2-0.2-0.4-0.5-0.4-0.8
	c0-0.4,0.2-0.7,0.5-0.9c0.1-0.1,0.2-0.1,0.4-0.1c0.1,0,0.2,0.1,0.3,0.2c0.1,0.2,0.2,0.4,0.2,0.7c0,0.3-0.1,0.5-0.2,0.8l0,0.1l0,0v0
	l0,0l0,0l0,0l0,0l0,0l0,0l-0.2,0.1l0,0l0,0l0,0l0,0l0,0l-0.1,0L439.9,340.4z"/>
<path class="st0" d="M691.8,377.6c-0.1-0.3-0.3-0.5-0.5-0.6c-0.2-0.1-0.2-0.3-0.2-0.4c0-0.2,0.2-0.3,0.3-0.4c0.1,0,0.2,0,0.3,0
	c0.4,0,0.7,0.2,0.8,0.5c0.2,0.2,0.2,0.5,0.2,0.8l0,0.2l0,0l-0.1,0.2l0,0l0,0c-0.1,0.1-0.1,0.1-0.2,0.1l-0.1,0
	C692,378,691.8,377.8,691.8,377.6z"/>
<path class="st5" d="M691.8,377.6c-0.1-0.3-0.3-0.5-0.5-0.6c-0.2-0.1-0.2-0.3-0.2-0.4c0-0.2,0.2-0.3,0.3-0.4c0.1,0,0.2,0,0.3,0
	c0.4,0,0.7,0.2,0.8,0.5c0.2,0.2,0.2,0.5,0.2,0.8l0,0.2l0,0l-0.1,0.2l0,0l0,0c-0.1,0.1-0.1,0.1-0.2,0.1l-0.1,0
	C692,378,691.8,377.8,691.8,377.6z"/>
<path class="st0" d="M319.2,155.8L319.2,155.8c-0.6-0.1-1.1-0.4-1.5-0.8c-0.1-0.1-0.2-0.3-0.2-0.5c0-0.5,0.4-0.7,0.8-0.8
	c0.2,0,0.4,0.1,0.6,0.2l0,0l0,0c0.1,0,0.3-0.1,0.6-0.1c0.2,0,0.5,0.1,0.8,0.3c0.2,0.2,0.3,0.4,0.3,0.7c0,0.6-0.6,0.9-1.1,0.9
	C319.4,155.8,319.3,155.8,319.2,155.8z"/>
<path class="st5" d="M319.2,155.8L319.2,155.8c-0.6-0.1-1.1-0.4-1.5-0.8c-0.1-0.1-0.2-0.3-0.2-0.5c0-0.5,0.4-0.7,0.8-0.8
	c0.2,0,0.4,0.1,0.6,0.2l0,0l0,0c0.1,0,0.3-0.1,0.6-0.1c0.2,0,0.5,0.1,0.8,0.3c0.2,0.2,0.3,0.4,0.3,0.7c0,0.6-0.6,0.9-1.1,0.9
	C319.4,155.8,319.3,155.8,319.2,155.8z"/>
<path class="st0" d="M311.7,185.4L311.7,185.4L311.7,185.4L311.7,185.4L311.7,185.4L311.7,185.4L311.7,185.4L311.7,185.4
	c-0.4-0.3-0.6-0.6-0.6-0.9c0-0.6,0.5-1,1.1-1c0.1,0,0.3,0,0.4,0.1c0.1,0,0.2,0.1,0.3,0.2c0.1,0.1,0.1,0.2,0,0.3
	c-0.2,0.4-0.4,0.8-0.7,1.2c-0.1,0.1-0.2,0.1-0.3,0.2h0l0,0h0h0l0,0L311.7,185.4z"/>
<path class="st5" d="M311.7,185.4L311.7,185.4L311.7,185.4L311.7,185.4L311.7,185.4L311.7,185.4L311.7,185.4L311.7,185.4
	c-0.4-0.3-0.6-0.6-0.6-0.9c0-0.6,0.5-1,1.1-1c0.1,0,0.3,0,0.4,0.1c0.1,0,0.2,0.1,0.3,0.2c0.1,0.1,0.1,0.2,0,0.3
	c-0.2,0.4-0.4,0.8-0.7,1.2c-0.1,0.1-0.2,0.1-0.3,0.2h0l0,0h0h0l0,0L311.7,185.4z"/>
<path class="st0" d="M312.6,180.4c-0.1-0.1-0.2-0.2-0.2-0.3c0,0-0.1-0.3-0.2-0.6c-0.1-0.3-0.2-0.6-0.2-1c0-0.4,0.3-0.9,0.8-0.9
	c0.1,0,0.2,0,0.3,0c0.3,0,0.7,0.2,0.8,0.4c0.2,0.2,0.2,0.5,0.2,0.8c0,0.5-0.1,0.9-0.4,1.3l-0.1,0.1c-0.1,0.1-0.3,0.2-0.4,0.3
	l-0.2,0.1L312.6,180.4z"/>
<path class="st5" d="M312.6,180.4c-0.1-0.1-0.2-0.2-0.2-0.3c0,0-0.1-0.3-0.2-0.6c-0.1-0.3-0.2-0.6-0.2-1c0-0.4,0.3-0.9,0.8-0.9
	c0.1,0,0.2,0,0.3,0c0.3,0,0.7,0.2,0.8,0.4c0.2,0.2,0.2,0.5,0.2,0.8c0,0.5-0.1,0.9-0.4,1.3l-0.1,0.1c-0.1,0.1-0.3,0.2-0.4,0.3
	l-0.2,0.1L312.6,180.4z"/>
<path class="st0" d="M315.6,183.2L315.6,183.2L315.6,183.2L315.6,183.2c-0.4-0.3-0.6-0.6-0.6-1c0-0.2,0.1-0.4,0.2-0.6
	c0.2-0.2,0.4-0.3,0.7-0.3l0.2,0c0.4,0.1,0.8,0.4,0.8,0.8c0,0.6-0.4,1-1,1.1l0,0l0,0l-0.1,0L315.6,183.2z"/>
<path class="st5" d="M315.6,183.2L315.6,183.2L315.6,183.2L315.6,183.2c-0.4-0.3-0.6-0.6-0.6-1c0-0.2,0.1-0.4,0.2-0.6
	c0.2-0.2,0.4-0.3,0.7-0.3l0.2,0c0.4,0.1,0.8,0.4,0.8,0.8c0,0.6-0.4,1-1,1.1l0,0l0,0l-0.1,0L315.6,183.2z"/>
<path class="st0" d="M318.4,183.4L318.4,183.4L318.4,183.4L318.4,183.4L318.4,183.4L318.4,183.4l-0.2-0.2c-0.4-0.8-0.7-1.5-1-2.2
	c-0.1-0.1-0.1-0.3,0-0.4c0.1-0.1,0.2-0.2,0.3-0.3c1.5-0.3,2.6-0.8,4-1.4c0.2-0.1,0.4,0,0.5,0.1c0.1,0.1,0.1,0.3,0.1,0.5
	c-0.6,1.2-1.8,3.2-3.3,3.8l-0.1,0L318.4,183.4z"/>
<path class="st5" d="M318.4,183.4L318.4,183.4L318.4,183.4L318.4,183.4L318.4,183.4L318.4,183.4l-0.2-0.2c-0.4-0.8-0.7-1.5-1-2.2
	c-0.1-0.1-0.1-0.3,0-0.4c0.1-0.1,0.2-0.2,0.3-0.3c1.5-0.3,2.6-0.8,4-1.4c0.2-0.1,0.4,0,0.5,0.1c0.1,0.1,0.1,0.3,0.1,0.5
	c-0.6,1.2-1.8,3.2-3.3,3.8l-0.1,0L318.4,183.4z"/>
<path class="st0" d="M324,184.9c-0.9-0.2-1.4-1-1.4-1.7c0-0.6,0.4-1.4,1.2-1.6c0.2,0,0.4-0.1,0.5-0.1c0.4,0,0.7,0.1,0.9,0.4
	c0.2,0.2,0.3,0.6,0.3,0.9c0,0.8-0.5,1.7-1.3,2.1l0,0l0,0L324,184.9L324,184.9z"/>
<path class="st5" d="M324,184.9c-0.9-0.2-1.4-1-1.4-1.7c0-0.6,0.4-1.4,1.2-1.6c0.2,0,0.4-0.1,0.5-0.1c0.4,0,0.7,0.1,0.9,0.4
	c0.2,0.2,0.3,0.6,0.3,0.9c0,0.8-0.5,1.7-1.3,2.1l0,0l0,0L324,184.9L324,184.9z"/>
<path class="st0" d="M330.6,183L330.6,183L330.6,183L330.6,183L330.6,183L330.6,183L330.6,183L330.6,183L330.6,183L330.6,183
	L330.6,183L330.6,183L330.6,183l-0.1,0l0,0l0,0l0,0l0,0l0,0l0,0l0,0l0,0l0,0l0,0h0l0,0l0,0l0,0l0,0c-0.1-0.1-0.3-0.2-0.4-0.3
	c-0.1-0.1-0.2-0.3-0.2-0.4c0-0.2,0.1-0.3,0.3-0.4c0.5-0.2,0.9-0.7,1.3-1.4c0.4-0.7,0.7-1.6,1.3-2.2c0.1-0.1,0.2-0.2,0.5-0.2
	c0.2,0,0.4,0.1,0.4,0.2c0.1,0.1,0.1,0.2,0.1,0.3c0,0.2,0.1,0.4,0.1,0.6c0,0.3,0,0.7-0.1,1c0,0.3-0.1,0.5-0.1,0.7
	c-0.3,0.7-0.8,1.1-1.3,1.3c-0.5,0.2-0.9,0.4-1.3,0.7l-0.1,0.1l0,0l0,0l0,0l0,0L330.6,183L330.6,183L330.6,183L330.6,183L330.6,183
	L330.6,183L330.6,183z"/>
<path class="st5" d="M330.6,183L330.6,183L330.6,183L330.6,183L330.6,183L330.6,183L330.6,183L330.6,183L330.6,183L330.6,183
	L330.6,183L330.6,183L330.6,183l-0.1,0l0,0l0,0l0,0l0,0l0,0l0,0l0,0l0,0l0,0l0,0h0l0,0l0,0l0,0l0,0c-0.1-0.1-0.3-0.2-0.4-0.3
	c-0.1-0.1-0.2-0.3-0.2-0.4c0-0.2,0.1-0.3,0.3-0.4c0.5-0.2,0.9-0.7,1.3-1.4c0.4-0.7,0.7-1.6,1.3-2.2c0.1-0.1,0.2-0.2,0.5-0.2
	c0.2,0,0.4,0.1,0.4,0.2c0.1,0.1,0.1,0.2,0.1,0.3c0,0.2,0.1,0.4,0.1,0.6c0,0.3,0,0.7-0.1,1c0,0.3-0.1,0.5-0.1,0.7
	c-0.3,0.7-0.8,1.1-1.3,1.3c-0.5,0.2-0.9,0.4-1.3,0.7l-0.1,0.1l0,0l0,0l0,0l0,0L330.6,183L330.6,183L330.6,183L330.6,183L330.6,183
	L330.6,183L330.6,183z"/>
<path class="st4" d="M332.7,178.8L332.7,178.8L332.7,178.8z"/>
<path class="st5" d="M332.7,178.8L332.7,178.8L332.7,178.8z"/>
<path class="st0" d="M333.5,178.3L333.5,178.3c-0.2-0.1-0.3-0.1-0.5-0.2c-0.1,0-0.2-0.1-0.2-0.2c0-0.1,0-0.2,0-0.3
	c0.1-0.3,0.4-0.7,0.8-1.1c0.4-0.4,0.8-0.9,1.4-0.9c0.3,0,0.7,0.3,0.7,0.6c0,0.1,0.1,0.2,0.1,0.4c0,0.7-0.5,1-0.9,1.2
	c-0.4,0.2-0.8,0.4-0.9,0.5l-0.1,0.1l0,0l0,0l0,0l0,0l0,0l0,0l0,0l0,0l0,0l0,0l0,0l0,0l-0.1,0L333.5,178.3z"/>
<path class="st5" d="M333.5,178.3L333.5,178.3c-0.2-0.1-0.3-0.1-0.5-0.2c-0.1,0-0.2-0.1-0.2-0.2c0-0.1,0-0.2,0-0.3
	c0.1-0.3,0.4-0.7,0.8-1.1c0.4-0.4,0.8-0.9,1.4-0.9c0.3,0,0.7,0.3,0.7,0.6c0,0.1,0.1,0.2,0.1,0.4c0,0.7-0.5,1-0.9,1.2
	c-0.4,0.2-0.8,0.4-0.9,0.5l-0.1,0.1l0,0l0,0l0,0l0,0l0,0l0,0l0,0l0,0l0,0l0,0l0,0l0,0l-0.1,0L333.5,178.3z"/>
<path class="st0" d="M636.3,426.6l-0.1-0.1c-0.2-0.3-0.2-0.6-0.2-1c0-0.4,0.1-0.8,0.2-1.1c0.1-0.2,0.3-0.3,0.5-0.2
	c0.5,0.2,0.7,0.6,0.7,1c0,0.5-0.3,1-0.5,1.3c-0.1,0.1-0.2,0.2-0.3,0.2C636.5,426.7,636.4,426.7,636.3,426.6z"/>
<path class="st5" d="M636.3,426.6l-0.1-0.1c-0.2-0.3-0.2-0.6-0.2-1c0-0.4,0.1-0.8,0.2-1.1c0.1-0.2,0.3-0.3,0.5-0.2
	c0.5,0.2,0.7,0.6,0.7,1c0,0.5-0.3,1-0.5,1.3c-0.1,0.1-0.2,0.2-0.3,0.2C636.5,426.7,636.4,426.7,636.3,426.6z"/>
<path class="st0" d="M685.9,474.6c0-0.1,0-0.2,0-0.3c0-0.6,0.3-1,0.7-1.2c0.4-0.3,0.9-0.4,1.3-0.4c0.3,0,0.6,0.1,0.8,0.3
	c0.2,0.2,0.4,0.4,0.4,0.8c0.3,0.5,0.5,1,0.5,1.4c0,0.4-0.2,0.8-0.5,1c-0.3,0.2-0.6,0.3-1,0.3C687.3,476.4,686.2,475.8,685.9,474.6z"
	/>
<path class="st5" d="M685.9,474.6c0-0.1,0-0.2,0-0.3c0-0.6,0.3-1,0.7-1.2c0.4-0.3,0.9-0.4,1.3-0.4c0.3,0,0.6,0.1,0.8,0.3
	c0.2,0.2,0.4,0.4,0.4,0.8c0.3,0.5,0.5,1,0.5,1.4c0,0.4-0.2,0.8-0.5,1c-0.3,0.2-0.6,0.3-1,0.3C687.3,476.4,686.2,475.8,685.9,474.6z"
	/>
<path class="st4" d="M366.8,451.6L366.8,451.6L366.8,451.6L366.8,451.6L366.8,451.6L366.8,451.6L366.8,451.6l-0.2-0.1
	c-0.2-0.2-0.4-0.5-0.4-0.8c0-0.4,0.2-0.7,0.5-0.9c0.1-0.1,0.2-0.1,0.4-0.1c0.1,0,0.2,0.1,0.3,0.2c0.1,0.2,0.2,0.4,0.2,0.7
	c0,0.3-0.1,0.5-0.2,0.8l0,0v0c-0.1,0.1-0.2,0.2-0.3,0.2l0,0h0l0,0l0,0L366.8,451.6L366.8,451.6z"/>
<path class="st6" d="M366.8,451.6L366.8,451.6L366.8,451.6L366.8,451.6L366.8,451.6L366.8,451.6L366.8,451.6l-0.2-0.1
	c-0.2-0.2-0.4-0.5-0.4-0.8c0-0.4,0.2-0.7,0.5-0.9c0.1-0.1,0.2-0.1,0.4-0.1c0.1,0,0.2,0.1,0.3,0.2c0.1,0.2,0.2,0.4,0.2,0.7
	c0,0.3-0.1,0.5-0.2,0.8l0,0v0c-0.1,0.1-0.2,0.2-0.3,0.2l0,0h0l0,0l0,0L366.8,451.6L366.8,451.6z"/>
</svg>
